{"glyphs":{"0":{"ha":906,"x_min":82,"x_max":824,"o":"m 453 -4 q 259 56 343 -4 q 128 227 175 117 q 82 486 82 338 q 128 745 82 635 q 259 916 175 856 q 453 976 343 976 q 647 916 564 976 q 777 745 731 856 q 824 486 824 635 q 777 227 824 338 q 647 56 731 117 q 453 -4 564 -4 m 453 22 q 633 79 556 22 q 753 240 710 136 q 796 486 796 344 q 753 733 796 629 q 633 893 710 836 q 453 950 556 950 q 274 893 351 950 q 153 733 196 836 q 110 486 110 629 q 153 240 110 344 q 274 79 196 136 q 453 22 351 22 z "},"1":{"ha":475,"x_min":14,"x_max":290,"o":"m 264 0 l 264 957 l 276 946 l 14 946 l 14 972 l 290 972 l 290 0 l 264 0 z "},"2":{"ha":771,"x_min":39,"x_max":710,"o":"m 60 0 l 60 21 l 481 447 q 575 557 543 510 q 618 645 607 604 q 629 726 629 686 q 560 890 629 829 q 358 950 490 950 q 185 921 258 950 q 58 832 111 892 l 39 851 q 173 944 93 913 q 358 976 253 976 q 517 947 450 976 q 621 861 585 917 q 657 728 657 806 q 644 638 657 682 q 597 543 631 593 q 500 429 564 493 l 92 15 l 75 26 l 710 26 l 710 0 l 60 0 z "},"3":{"ha":761,"x_min":26,"x_max":681,"o":"m 360 -4 q 160 35 250 -4 q 26 133 71 74 l 44 151 q 169 60 85 97 q 360 22 253 22 q 578 89 504 22 q 653 267 653 156 q 577 444 653 378 q 342 511 501 511 l 292 511 l 292 532 l 614 956 l 617 946 l 57 946 l 57 972 l 644 972 l 644 951 l 322 528 l 319 538 l 340 538 q 597 463 513 538 q 681 267 681 388 q 644 125 681 186 q 535 30 607 64 q 360 -4 464 -4 z "},"4":{"ha":894,"x_min":64,"x_max":871,"o":"m 64 289 l 64 310 l 611 972 l 644 972 l 97 310 l 79 315 l 871 315 l 871 289 l 64 289 m 626 0 l 626 289 l 626 315 l 626 569 l 654 569 l 654 0 l 626 0 z "},"5":{"ha":761,"x_min":44,"x_max":699,"o":"m 375 -4 q 178 35 268 -4 q 44 133 89 74 l 63 151 q 186 60 103 97 q 375 22 269 22 q 598 93 525 22 q 671 272 671 164 q 635 408 671 351 q 517 495 600 465 q 289 525 433 525 l 106 525 l 157 972 l 650 972 l 650 946 l 172 946 l 182 957 l 133 538 l 125 551 l 294 551 q 533 517 444 551 q 660 421 621 483 q 699 272 699 358 q 663 131 699 194 q 555 32 626 68 q 375 -4 483 -4 z "},"6":{"ha":822,"x_min":82,"x_max":771,"o":"m 461 -4 q 251 56 335 -4 q 124 226 167 115 q 82 486 82 336 q 134 758 82 650 q 279 922 186 867 q 496 976 372 976 q 607 967 554 976 q 703 931 660 957 l 689 907 q 603 940 653 931 q 496 950 553 950 q 215 835 321 950 q 110 489 110 719 q 115 399 110 454 q 136 292 119 344 l 125 271 q 172 428 128 363 q 289 529 215 494 q 451 564 363 564 q 620 529 549 564 q 731 431 692 494 q 771 281 771 367 q 731 131 771 194 q 622 31 692 67 q 461 -4 551 -4 m 461 22 q 608 54 544 22 q 707 144 671 86 q 743 281 743 203 q 665 467 743 397 q 451 538 588 538 q 295 503 363 538 q 190 409 228 468 q 153 278 153 350 q 188 158 153 217 q 291 60 222 99 q 461 22 360 22 z "},"7":{"ha":792,"x_min":50,"x_max":725,"o":"m 258 0 l 696 956 l 713 946 l 65 946 l 78 957 l 78 750 l 50 750 l 50 972 l 725 972 l 725 951 l 290 0 l 258 0 z "},"8":{"ha":867,"x_min":76,"x_max":790,"o":"m 432 -4 q 240 28 319 -4 q 119 119 161 60 q 76 261 76 179 q 119 398 76 340 q 240 486 161 456 q 432 517 319 517 q 624 486 544 517 q 747 398 704 456 q 790 261 790 340 q 748 119 790 179 q 625 28 706 60 q 432 -4 544 -4 m 432 22 q 676 86 589 22 q 763 260 763 150 q 676 431 763 367 q 432 494 589 494 q 190 431 276 494 q 104 260 104 367 q 190 86 104 150 q 432 22 276 22 m 432 499 q 258 527 329 499 q 149 608 186 556 q 111 733 111 661 q 151 863 111 808 q 263 947 190 918 q 432 976 335 976 q 603 947 531 976 q 715 863 675 918 q 756 733 756 808 q 717 608 756 661 q 607 527 679 556 q 432 499 535 499 m 432 521 q 650 578 572 521 q 728 733 728 636 q 648 892 728 833 q 432 950 568 950 q 218 892 297 950 q 139 735 139 833 q 216 579 139 638 q 432 521 293 521 z "},"9":{"ha":822,"x_min":51,"x_max":740,"o":"m 361 976 q 572 917 488 976 q 698 747 656 857 q 740 486 740 638 q 688 215 740 324 q 543 51 636 106 q 326 -4 450 -4 q 215 6 268 -4 q 119 42 163 15 l 133 65 q 220 33 169 43 q 326 22 271 22 q 607 138 501 22 q 713 483 713 253 q 708 574 713 519 q 686 681 703 628 l 697 701 q 651 544 694 610 q 534 444 607 479 q 371 408 461 408 q 202 443 274 408 q 91 542 131 478 q 51 692 51 606 q 91 842 51 778 q 201 941 131 906 q 361 976 271 976 m 361 950 q 215 918 278 950 q 115 828 151 886 q 79 692 79 769 q 158 505 79 575 q 371 435 236 435 q 527 469 460 435 q 632 563 594 504 q 669 694 669 622 q 635 815 669 756 q 532 912 600 874 q 361 950 464 950 z "},"A":{"ha":956,"x_min":13,"x_max":943,"o":"m 13 0 l 464 972 l 492 972 l 943 0 l 911 0 l 471 950 l 485 950 l 44 0 l 13 0 m 161 293 l 175 319 l 779 319 l 793 293 l 161 293 z "},"Á":{"ha":956,"x_min":13,"x_max":943,"o":"m 13 0 l 464 972 l 492 972 l 943 0 l 911 0 l 471 950 l 485 950 l 44 0 l 13 0 m 161 293 l 175 319 l 779 319 l 793 293 l 161 293 z "},"Ă":{"ha":956,"x_min":13,"x_max":943,"o":"m 13 0 l 464 972 l 492 972 l 943 0 l 911 0 l 471 950 l 485 950 l 44 0 l 13 0 m 161 293 l 175 319 l 779 319 l 793 293 l 161 293 z "},"Ắ":{"ha":956,"x_min":13,"x_max":943,"o":"m 13 0 l 464 972 l 492 972 l 943 0 l 911 0 l 471 950 l 485 950 l 44 0 l 13 0 m 161 293 l 175 319 l 779 319 l 793 293 l 161 293 z "},"Ặ":{"ha":956,"x_min":13,"x_max":943,"o":"m 13 0 l 464 972 l 492 972 l 943 0 l 911 0 l 471 950 l 485 950 l 44 0 l 13 0 m 161 293 l 175 319 l 779 319 l 793 293 l 161 293 m 478 -244 q 453 -233 464 -244 q 442 -208 442 -222 q 453 -183 442 -193 q 478 -172 464 -172 q 503 -183 493 -172 q 514 -208 514 -193 q 503 -233 514 -222 q 478 -244 493 -244 z "},"Ằ":{"ha":956,"x_min":13,"x_max":943,"o":"m 13 0 l 464 972 l 492 972 l 943 0 l 911 0 l 471 950 l 485 950 l 44 0 l 13 0 m 161 293 l 175 319 l 779 319 l 793 293 l 161 293 z "},"Ẳ":{"ha":956,"x_min":13,"x_max":943,"o":"m 13 0 l 464 972 l 492 972 l 943 0 l 911 0 l 471 950 l 485 950 l 44 0 l 13 0 m 161 293 l 175 319 l 779 319 l 793 293 l 161 293 z "},"Ẵ":{"ha":956,"x_min":13,"x_max":943,"o":"m 13 0 l 464 972 l 492 972 l 943 0 l 911 0 l 471 950 l 485 950 l 44 0 l 13 0 m 161 293 l 175 319 l 779 319 l 793 293 l 161 293 z "},"Ǎ":{"ha":956,"x_min":13,"x_max":943,"o":"m 13 0 l 464 972 l 492 972 l 943 0 l 911 0 l 471 950 l 485 950 l 44 0 l 13 0 m 161 293 l 175 319 l 779 319 l 793 293 l 161 293 z "},"Â":{"ha":956,"x_min":13,"x_max":943,"o":"m 13 0 l 464 972 l 492 972 l 943 0 l 911 0 l 471 950 l 485 950 l 44 0 l 13 0 m 161 293 l 175 319 l 779 319 l 793 293 l 161 293 z "},"Ấ":{"ha":956,"x_min":13,"x_max":943,"o":"m 13 0 l 464 972 l 492 972 l 943 0 l 911 0 l 471 950 l 485 950 l 44 0 l 13 0 m 161 293 l 175 319 l 779 319 l 793 293 l 161 293 z "},"Ậ":{"ha":956,"x_min":13,"x_max":943,"o":"m 13 0 l 464 972 l 492 972 l 943 0 l 911 0 l 471 950 l 485 950 l 44 0 l 13 0 m 161 293 l 175 319 l 779 319 l 793 293 l 161 293 m 478 -244 q 453 -233 464 -244 q 442 -208 442 -222 q 453 -183 442 -193 q 478 -172 464 -172 q 503 -183 493 -172 q 514 -208 514 -193 q 503 -233 514 -222 q 478 -244 493 -244 z "},"Ầ":{"ha":956,"x_min":13,"x_max":943,"o":"m 13 0 l 464 972 l 492 972 l 943 0 l 911 0 l 471 950 l 485 950 l 44 0 l 13 0 m 161 293 l 175 319 l 779 319 l 793 293 l 161 293 z "},"Ẩ":{"ha":956,"x_min":13,"x_max":943,"o":"m 13 0 l 464 972 l 492 972 l 943 0 l 911 0 l 471 950 l 485 950 l 44 0 l 13 0 m 161 293 l 175 319 l 779 319 l 793 293 l 161 293 z "},"Ẫ":{"ha":956,"x_min":13,"x_max":943,"o":"m 13 0 l 464 972 l 492 972 l 943 0 l 911 0 l 471 950 l 485 950 l 44 0 l 13 0 m 161 293 l 175 319 l 779 319 l 793 293 l 161 293 z "},"Ȁ":{"ha":956,"x_min":13,"x_max":943,"o":"m 13 0 l 464 972 l 492 972 l 943 0 l 911 0 l 471 950 l 485 950 l 44 0 l 13 0 m 161 293 l 175 319 l 779 319 l 793 293 l 161 293 z "},"Ä":{"ha":956,"x_min":13,"x_max":943,"o":"m 13 0 l 464 972 l 492 972 l 943 0 l 911 0 l 471 950 l 485 950 l 44 0 l 13 0 m 161 293 l 175 319 l 779 319 l 793 293 l 161 293 z "},"Ạ":{"ha":956,"x_min":13,"x_max":943,"o":"m 13 0 l 464 972 l 492 972 l 943 0 l 911 0 l 471 950 l 485 950 l 44 0 l 13 0 m 161 293 l 175 319 l 779 319 l 793 293 l 161 293 m 478 -244 q 453 -233 464 -244 q 442 -208 442 -222 q 453 -183 442 -193 q 478 -172 464 -172 q 503 -183 493 -172 q 514 -208 514 -193 q 503 -233 514 -222 q 478 -244 493 -244 z "},"À":{"ha":956,"x_min":13,"x_max":943,"o":"m 13 0 l 464 972 l 492 972 l 943 0 l 911 0 l 471 950 l 485 950 l 44 0 l 13 0 m 161 293 l 175 319 l 779 319 l 793 293 l 161 293 z "},"Ả":{"ha":956,"x_min":13,"x_max":943,"o":"m 13 0 l 464 972 l 492 972 l 943 0 l 911 0 l 471 950 l 485 950 l 44 0 l 13 0 m 161 293 l 175 319 l 779 319 l 793 293 l 161 293 z "},"Ȃ":{"ha":956,"x_min":13,"x_max":943,"o":"m 13 0 l 464 972 l 492 972 l 943 0 l 911 0 l 471 950 l 485 950 l 44 0 l 13 0 m 161 293 l 175 319 l 779 319 l 793 293 l 161 293 z "},"Ā":{"ha":956,"x_min":13,"x_max":943,"o":"m 13 0 l 464 972 l 492 972 l 943 0 l 911 0 l 471 950 l 485 950 l 44 0 l 13 0 m 161 293 l 175 319 l 779 319 l 793 293 l 161 293 z "},"Ą":{"ha":956,"x_min":13,"x_max":968,"o":"m 13 0 l 464 972 l 492 972 l 943 0 l 911 0 l 471 950 l 485 950 l 44 0 l 13 0 m 161 293 l 175 319 l 779 319 l 793 293 l 161 293 m 865 -296 q 775 -265 811 -296 q 739 -181 739 -235 q 753 -118 739 -151 q 809 -49 768 -85 q 929 22 850 -12 l 943 0 q 829 -65 867 -32 q 779 -126 792 -97 q 767 -181 767 -156 q 795 -247 767 -225 q 867 -269 824 -269 q 913 -261 890 -269 q 953 -237 936 -253 l 968 -258 q 920 -287 946 -278 q 865 -296 894 -296 z "},"Å":{"ha":956,"x_min":13,"x_max":943,"o":"m 13 0 l 464 972 l 492 972 l 943 0 l 911 0 l 471 950 l 485 950 l 44 0 l 13 0 m 161 293 l 175 319 l 779 319 l 793 293 l 161 293 m 476 1083 q 410 1101 439 1083 q 365 1147 382 1118 q 349 1208 349 1175 q 365 1272 349 1243 q 411 1319 382 1301 q 476 1338 440 1338 q 543 1319 514 1338 q 589 1272 572 1301 q 606 1208 606 1243 q 589 1147 606 1175 q 543 1101 572 1118 q 476 1083 514 1083 m 476 1110 q 549 1139 521 1110 q 578 1208 578 1168 q 549 1281 578 1250 q 476 1311 521 1311 q 405 1281 433 1311 q 376 1208 376 1251 q 404 1138 376 1167 q 476 1110 432 1110 z "},"Ǻ":{"ha":956,"x_min":13,"x_max":943,"o":"m 13 0 l 464 972 l 492 972 l 943 0 l 911 0 l 471 950 l 485 950 l 44 0 l 13 0 m 161 293 l 175 319 l 779 319 l 793 293 l 161 293 m 476 1083 q 410 1101 439 1083 q 365 1147 382 1118 q 349 1208 349 1175 q 365 1272 349 1243 q 411 1319 382 1301 q 476 1338 440 1338 q 543 1319 514 1338 q 589 1272 572 1301 q 606 1208 606 1243 q 589 1147 606 1175 q 543 1101 572 1118 q 476 1083 514 1083 m 476 1110 q 549 1139 521 1110 q 578 1208 578 1168 q 549 1281 578 1250 q 476 1311 521 1311 q 405 1281 433 1311 q 376 1208 376 1251 q 404 1138 376 1167 q 476 1110 432 1110 m 571 1289 l 542 1301 l 665 1418 l 689 1400 l 571 1289 z "},"Ã":{"ha":956,"x_min":13,"x_max":943,"o":"m 13 0 l 464 972 l 492 972 l 943 0 l 911 0 l 471 950 l 485 950 l 44 0 l 13 0 m 161 293 l 175 319 l 779 319 l 793 293 l 161 293 z "},"Æ":{"ha":1396,"x_min":13,"x_max":1300,"o":"m 13 0 l 631 972 l 660 972 l 660 946 l 629 946 l 649 951 l 44 0 l 13 0 m 213 293 l 226 319 l 660 319 l 660 293 l 213 293 m 674 507 l 1217 507 l 1217 481 l 674 481 l 674 507 m 681 26 l 1300 26 l 1300 0 l 653 0 l 653 972 l 1279 972 l 1279 946 l 681 946 l 681 26 z "},"Ǽ":{"ha":1396,"x_min":13,"x_max":1300,"o":"m 13 0 l 631 972 l 660 972 l 660 946 l 629 946 l 649 951 l 44 0 l 13 0 m 213 293 l 226 319 l 660 319 l 660 293 l 213 293 m 674 507 l 1217 507 l 1217 481 l 674 481 l 674 507 m 681 26 l 1300 26 l 1300 0 l 653 0 l 653 972 l 1279 972 l 1279 946 l 681 946 l 681 26 z "},"B":{"ha":1039,"x_min":185,"x_max":949,"o":"m 185 0 l 185 972 l 569 972 q 808 910 719 972 q 896 726 896 849 q 857 592 896 646 q 749 513 818 539 q 589 486 679 486 l 613 504 q 799 476 725 504 q 911 392 874 447 q 949 254 949 336 q 862 66 949 132 q 597 0 775 0 l 185 0 m 213 26 l 603 26 q 840 81 758 26 q 921 254 921 136 q 840 426 921 372 q 603 481 758 481 l 206 481 l 206 507 l 575 507 q 791 563 714 507 q 868 726 868 618 q 791 890 868 835 q 575 946 714 946 l 213 946 l 213 26 z "},"C":{"ha":988,"x_min":82,"x_max":911,"o":"m 581 -4 q 383 33 474 -4 q 224 136 292 69 q 119 292 157 203 q 82 486 82 381 q 119 681 82 592 q 224 836 157 769 q 383 940 292 903 q 581 976 474 976 q 763 946 676 976 q 911 853 849 915 l 894 833 q 749 924 828 897 q 581 950 669 950 q 394 915 481 950 q 244 816 308 879 q 145 669 181 753 q 110 486 110 585 q 145 303 110 388 q 244 156 181 219 q 394 58 308 93 q 581 22 481 22 q 749 49 669 22 q 894 140 828 76 l 911 121 q 763 27 849 58 q 581 -4 676 -4 z "},"Ć":{"ha":988,"x_min":82,"x_max":911,"o":"m 581 -4 q 383 33 474 -4 q 224 136 292 69 q 119 292 157 203 q 82 486 82 381 q 119 681 82 592 q 224 836 157 769 q 383 940 292 903 q 581 976 474 976 q 763 946 676 976 q 911 853 849 915 l 894 833 q 749 924 828 897 q 581 950 669 950 q 394 915 481 950 q 244 816 308 879 q 145 669 181 753 q 110 486 110 585 q 145 303 110 388 q 244 156 181 219 q 394 58 308 93 q 581 22 481 22 q 749 49 669 22 q 894 140 828 76 l 911 121 q 763 27 849 58 q 581 -4 676 -4 z "},"Č":{"ha":988,"x_min":82,"x_max":911,"o":"m 581 -4 q 383 33 474 -4 q 224 136 292 69 q 119 292 157 203 q 82 486 82 381 q 119 681 82 592 q 224 836 157 769 q 383 940 292 903 q 581 976 474 976 q 763 946 676 976 q 911 853 849 915 l 894 833 q 749 924 828 897 q 581 950 669 950 q 394 915 481 950 q 244 816 308 879 q 145 669 181 753 q 110 486 110 585 q 145 303 110 388 q 244 156 181 219 q 394 58 308 93 q 581 22 481 22 q 749 49 669 22 q 894 140 828 76 l 911 121 q 763 27 849 58 q 581 -4 676 -4 z "},"Ç":{"ha":988,"x_min":82,"x_max":911,"o":"m 581 -4 q 383 33 474 -4 q 224 136 292 69 q 119 292 157 203 q 82 486 82 381 q 119 681 82 592 q 224 836 157 769 q 383 940 292 903 q 581 976 474 976 q 763 946 676 976 q 911 853 849 915 l 894 833 q 749 924 828 897 q 581 950 669 950 q 394 915 481 950 q 244 816 308 879 q 145 669 181 753 q 110 486 110 585 q 145 303 110 388 q 244 156 181 219 q 394 58 308 93 q 581 22 481 22 q 749 49 669 22 q 894 140 828 76 l 911 121 q 763 27 849 58 q 581 -4 676 -4 m 544 -296 q 490 -287 515 -296 q 442 -258 465 -278 l 457 -237 q 497 -261 474 -253 q 543 -269 519 -269 q 615 -248 586 -269 q 643 -186 643 -226 q 617 -126 643 -150 q 544 -103 592 -103 l 522 -103 l 553 7 l 579 7 l 556 -78 q 640 -110 608 -81 q 671 -186 671 -139 q 635 -266 671 -236 q 544 -296 599 -296 z "},"Ḉ":{"ha":988,"x_min":82,"x_max":911,"o":"m 581 -4 q 383 33 474 -4 q 224 136 292 69 q 119 292 157 203 q 82 486 82 381 q 119 681 82 592 q 224 836 157 769 q 383 940 292 903 q 581 976 474 976 q 763 946 676 976 q 911 853 849 915 l 894 833 q 749 924 828 897 q 581 950 669 950 q 394 915 481 950 q 244 816 308 879 q 145 669 181 753 q 110 486 110 585 q 145 303 110 388 q 244 156 181 219 q 394 58 308 93 q 581 22 481 22 q 749 49 669 22 q 894 140 828 76 l 911 121 q 763 27 849 58 q 581 -4 676 -4 m 544 -296 q 490 -287 515 -296 q 442 -258 465 -278 l 457 -237 q 497 -261 474 -253 q 543 -269 519 -269 q 615 -248 586 -269 q 643 -186 643 -226 q 617 -126 643 -150 q 544 -103 592 -103 l 522 -103 l 553 7 l 579 7 l 556 -78 q 640 -110 608 -81 q 671 -186 671 -139 q 635 -266 671 -236 q 544 -296 599 -296 z "},"Ĉ":{"ha":988,"x_min":82,"x_max":911,"o":"m 581 -4 q 383 33 474 -4 q 224 136 292 69 q 119 292 157 203 q 82 486 82 381 q 119 681 82 592 q 224 836 157 769 q 383 940 292 903 q 581 976 474 976 q 763 946 676 976 q 911 853 849 915 l 894 833 q 749 924 828 897 q 581 950 669 950 q 394 915 481 950 q 244 816 308 879 q 145 669 181 753 q 110 486 110 585 q 145 303 110 388 q 244 156 181 219 q 394 58 308 93 q 581 22 481 22 q 749 49 669 22 q 894 140 828 76 l 911 121 q 763 27 849 58 q 581 -4 676 -4 z "},"Ċ":{"ha":988,"x_min":82,"x_max":911,"o":"m 581 -4 q 383 33 474 -4 q 224 136 292 69 q 119 292 157 203 q 82 486 82 381 q 119 681 82 592 q 224 836 157 769 q 383 940 292 903 q 581 976 474 976 q 763 946 676 976 q 911 853 849 915 l 894 833 q 749 924 828 897 q 581 950 669 950 q 394 915 481 950 q 244 816 308 879 q 145 669 181 753 q 110 486 110 585 q 145 303 110 388 q 244 156 181 219 q 394 58 308 93 q 581 22 481 22 q 749 49 669 22 q 894 140 828 76 l 911 121 q 763 27 849 58 q 581 -4 676 -4 z "},"D":{"ha":1147,"x_min":185,"x_max":1065,"o":"m 185 0 l 185 972 l 553 972 q 822 909 707 972 q 1001 736 938 846 q 1065 486 1065 626 q 1001 236 1065 346 q 822 63 938 126 q 553 0 707 0 l 185 0 m 213 26 l 550 26 q 808 86 699 26 q 978 249 918 146 q 1038 486 1038 353 q 978 723 1038 619 q 808 886 918 826 q 550 946 699 946 l 213 946 l 213 26 z "},"Ǆ":{"ha":2029,"x_min":185,"x_max":1960,"o":"m 185 0 l 185 972 l 553 972 q 822 909 707 972 q 1001 736 938 846 q 1065 486 1065 626 q 1001 236 1065 346 q 822 63 938 126 q 553 0 707 0 l 185 0 m 213 26 l 550 26 q 808 86 699 26 q 978 249 918 146 q 1038 486 1038 353 q 978 723 1038 619 q 808 886 918 826 q 550 946 699 946 l 213 946 l 213 26 z "},"Ð":{"ha":1147,"x_min":28,"x_max":1065,"o":"m 185 0 l 185 972 l 553 972 q 822 909 707 972 q 1001 736 938 846 q 1065 486 1065 626 q 1001 236 1065 346 q 822 63 938 126 q 553 0 707 0 l 185 0 m 213 26 l 550 26 q 808 86 699 26 q 978 249 918 146 q 1038 486 1038 353 q 978 723 1038 619 q 808 886 918 826 q 550 946 699 946 l 213 946 l 213 26 m 28 481 l 28 507 l 528 507 l 528 481 l 28 481 z "},"Ď":{"ha":1147,"x_min":185,"x_max":1065,"o":"m 185 0 l 185 972 l 553 972 q 822 909 707 972 q 1001 736 938 846 q 1065 486 1065 626 q 1001 236 1065 346 q 822 63 938 126 q 553 0 707 0 l 185 0 m 213 26 l 550 26 q 808 86 699 26 q 978 249 918 146 q 1038 486 1038 353 q 978 723 1038 619 q 808 886 918 826 q 550 946 699 946 l 213 946 l 213 26 z "},"Đ":{"ha":1147,"x_min":28,"x_max":1065,"o":"m 185 0 l 185 972 l 553 972 q 822 909 707 972 q 1001 736 938 846 q 1065 486 1065 626 q 1001 236 1065 346 q 822 63 938 126 q 553 0 707 0 l 185 0 m 213 26 l 550 26 q 808 86 699 26 q 978 249 918 146 q 1038 486 1038 353 q 978 723 1038 619 q 808 886 918 826 q 550 946 699 946 l 213 946 l 213 26 m 28 481 l 28 507 l 528 507 l 528 481 l 28 481 z "},"Ḍ":{"ha":1147,"x_min":185,"x_max":1065,"o":"m 185 0 l 185 972 l 553 972 q 822 909 707 972 q 1001 736 938 846 q 1065 486 1065 626 q 1001 236 1065 346 q 822 63 938 126 q 553 0 707 0 l 185 0 m 213 26 l 550 26 q 808 86 699 26 q 978 249 918 146 q 1038 486 1038 353 q 978 723 1038 619 q 808 886 918 826 q 550 946 699 946 l 213 946 l 213 26 m 550 -244 q 525 -233 536 -244 q 514 -208 514 -222 q 525 -183 514 -193 q 550 -172 536 -172 q 576 -183 565 -172 q 586 -208 586 -193 q 576 -233 586 -222 q 550 -244 565 -244 z "},"Ḏ":{"ha":1147,"x_min":185,"x_max":1065,"o":"m 185 0 l 185 972 l 553 972 q 822 909 707 972 q 1001 736 938 846 q 1065 486 1065 626 q 1001 236 1065 346 q 822 63 938 126 q 553 0 707 0 l 185 0 m 213 26 l 550 26 q 808 86 699 26 q 978 249 918 146 q 1038 486 1038 353 q 978 723 1038 619 q 808 886 918 826 q 550 946 699 946 l 213 946 l 213 26 m 361 -222 l 361 -194 l 739 -194 l 739 -222 l 361 -222 z "},"ǅ":{"ha":1829,"x_min":185,"x_max":1763,"o":"m 185 0 l 185 972 l 553 972 q 822 909 707 972 q 1001 736 938 846 q 1065 486 1065 626 q 1001 236 1065 346 q 822 63 938 126 q 553 0 707 0 l 185 0 m 213 26 l 550 26 q 808 86 699 26 q 978 249 918 146 q 1038 486 1038 353 q 978 723 1038 619 q 808 886 918 826 q 550 946 699 946 l 213 946 l 213 26 z "},"E":{"ha":928,"x_min":185,"x_max":832,"o":"m 206 507 l 749 507 l 749 481 l 206 481 l 206 507 m 213 26 l 832 26 l 832 0 l 185 0 l 185 972 l 811 972 l 811 946 l 213 946 l 213 26 z "},"É":{"ha":928,"x_min":185,"x_max":832,"o":"m 206 507 l 749 507 l 749 481 l 206 481 l 206 507 m 213 26 l 832 26 l 832 0 l 185 0 l 185 972 l 811 972 l 811 946 l 213 946 l 213 26 z "},"Ĕ":{"ha":928,"x_min":185,"x_max":832,"o":"m 206 507 l 749 507 l 749 481 l 206 481 l 206 507 m 213 26 l 832 26 l 832 0 l 185 0 l 185 972 l 811 972 l 811 946 l 213 946 l 213 26 z "},"Ě":{"ha":928,"x_min":185,"x_max":832,"o":"m 206 507 l 749 507 l 749 481 l 206 481 l 206 507 m 213 26 l 832 26 l 832 0 l 185 0 l 185 972 l 811 972 l 811 946 l 213 946 l 213 26 z "},"Ḝ":{"ha":928,"x_min":185,"x_max":832,"o":"m 206 507 l 749 507 l 749 481 l 206 481 l 206 507 m 213 26 l 832 26 l 832 0 l 185 0 l 185 972 l 811 972 l 811 946 l 213 946 l 213 26 m 500 -296 q 446 -287 471 -296 q 397 -258 421 -278 l 413 -237 q 452 -261 429 -253 q 499 -269 475 -269 q 570 -248 542 -269 q 599 -186 599 -226 q 573 -126 599 -150 q 500 -103 547 -103 l 478 -103 l 508 7 l 535 7 l 511 -78 q 595 -110 564 -81 q 626 -186 626 -139 q 590 -266 626 -236 q 500 -296 554 -296 z "},"Ê":{"ha":928,"x_min":185,"x_max":832,"o":"m 206 507 l 749 507 l 749 481 l 206 481 l 206 507 m 213 26 l 832 26 l 832 0 l 185 0 l 185 972 l 811 972 l 811 946 l 213 946 l 213 26 z "},"Ế":{"ha":928,"x_min":185,"x_max":835,"o":"m 206 507 l 749 507 l 749 481 l 206 481 l 206 507 m 213 26 l 832 26 l 832 0 l 185 0 l 185 972 l 811 972 l 811 946 l 213 946 l 213 26 z "},"Ệ":{"ha":928,"x_min":185,"x_max":832,"o":"m 206 507 l 749 507 l 749 481 l 206 481 l 206 507 m 213 26 l 832 26 l 832 0 l 185 0 l 185 972 l 811 972 l 811 946 l 213 946 l 213 26 m 522 -244 q 497 -233 508 -244 q 486 -208 486 -222 q 497 -183 486 -193 q 522 -172 508 -172 q 548 -183 538 -172 q 558 -208 558 -193 q 548 -233 558 -222 q 522 -244 538 -244 z "},"Ề":{"ha":928,"x_min":185,"x_max":832,"o":"m 206 507 l 749 507 l 749 481 l 206 481 l 206 507 m 213 26 l 832 26 l 832 0 l 185 0 l 185 972 l 811 972 l 811 946 l 213 946 l 213 26 z "},"Ể":{"ha":928,"x_min":185,"x_max":832,"o":"m 206 507 l 749 507 l 749 481 l 206 481 l 206 507 m 213 26 l 832 26 l 832 0 l 185 0 l 185 972 l 811 972 l 811 946 l 213 946 l 213 26 z "},"Ễ":{"ha":928,"x_min":185,"x_max":832,"o":"m 206 507 l 749 507 l 749 481 l 206 481 l 206 507 m 213 26 l 832 26 l 832 0 l 185 0 l 185 972 l 811 972 l 811 946 l 213 946 l 213 26 z "},"Ȅ":{"ha":928,"x_min":185,"x_max":832,"o":"m 206 507 l 749 507 l 749 481 l 206 481 l 206 507 m 213 26 l 832 26 l 832 0 l 185 0 l 185 972 l 811 972 l 811 946 l 213 946 l 213 26 z "},"Ë":{"ha":928,"x_min":185,"x_max":832,"o":"m 206 507 l 749 507 l 749 481 l 206 481 l 206 507 m 213 26 l 832 26 l 832 0 l 185 0 l 185 972 l 811 972 l 811 946 l 213 946 l 213 26 z "},"Ė":{"ha":928,"x_min":185,"x_max":832,"o":"m 206 507 l 749 507 l 749 481 l 206 481 l 206 507 m 213 26 l 832 26 l 832 0 l 185 0 l 185 972 l 811 972 l 811 946 l 213 946 l 213 26 z "},"Ẹ":{"ha":928,"x_min":185,"x_max":832,"o":"m 206 507 l 749 507 l 749 481 l 206 481 l 206 507 m 213 26 l 832 26 l 832 0 l 185 0 l 185 972 l 811 972 l 811 946 l 213 946 l 213 26 m 522 -244 q 497 -233 508 -244 q 486 -208 486 -222 q 497 -183 486 -193 q 522 -172 508 -172 q 548 -183 538 -172 q 558 -208 558 -193 q 548 -233 558 -222 q 522 -244 538 -244 z "},"È":{"ha":928,"x_min":185,"x_max":832,"o":"m 206 507 l 749 507 l 749 481 l 206 481 l 206 507 m 213 26 l 832 26 l 832 0 l 185 0 l 185 972 l 811 972 l 811 946 l 213 946 l 213 26 z "},"Ẻ":{"ha":928,"x_min":185,"x_max":832,"o":"m 206 507 l 749 507 l 749 481 l 206 481 l 206 507 m 213 26 l 832 26 l 832 0 l 185 0 l 185 972 l 811 972 l 811 946 l 213 946 l 213 26 z "},"Ȇ":{"ha":928,"x_min":185,"x_max":832,"o":"m 206 507 l 749 507 l 749 481 l 206 481 l 206 507 m 213 26 l 832 26 l 832 0 l 185 0 l 185 972 l 811 972 l 811 946 l 213 946 l 213 26 z "},"Ē":{"ha":928,"x_min":185,"x_max":832,"o":"m 206 507 l 749 507 l 749 481 l 206 481 l 206 507 m 213 26 l 832 26 l 832 0 l 185 0 l 185 972 l 811 972 l 811 946 l 213 946 l 213 26 z "},"Ḗ":{"ha":928,"x_min":185,"x_max":832,"o":"m 206 507 l 749 507 l 749 481 l 206 481 l 206 507 m 213 26 l 832 26 l 832 0 l 185 0 l 185 972 l 811 972 l 811 946 l 213 946 l 213 26 z "},"Ḕ":{"ha":928,"x_min":185,"x_max":832,"o":"m 206 507 l 749 507 l 749 481 l 206 481 l 206 507 m 213 26 l 832 26 l 832 0 l 185 0 l 185 972 l 811 972 l 811 946 l 213 946 l 213 26 z "},"Ę":{"ha":928,"x_min":185,"x_max":857,"o":"m 206 507 l 749 507 l 749 481 l 206 481 l 206 507 m 213 26 l 832 26 l 832 0 l 185 0 l 185 972 l 811 972 l 811 946 l 213 946 l 213 26 m 754 -296 q 664 -265 700 -296 q 628 -181 628 -235 q 642 -118 628 -151 q 698 -49 657 -85 q 818 22 739 -12 l 832 0 q 718 -65 756 -32 q 668 -126 681 -97 q 656 -181 656 -156 q 684 -247 656 -225 q 756 -269 713 -269 q 802 -261 779 -269 q 842 -237 825 -253 l 857 -258 q 809 -287 835 -278 q 754 -296 783 -296 z "},"Ẽ":{"ha":928,"x_min":185,"x_max":832,"o":"m 206 507 l 749 507 l 749 481 l 206 481 l 206 507 m 213 26 l 832 26 l 832 0 l 185 0 l 185 972 l 811 972 l 811 946 l 213 946 l 213 26 z "},"Ʒ":{"ha":832,"x_min":47,"x_max":740,"o":"m 401 -4 q 188 35 283 -4 q 47 133 93 74 l 65 151 q 198 60 110 97 q 403 22 286 22 q 633 89 554 22 q 713 267 713 156 q 631 444 713 378 q 381 511 550 511 l 329 511 l 329 532 l 671 956 l 674 946 l 79 946 l 79 972 l 701 972 l 701 951 l 360 528 l 357 538 l 379 538 q 581 503 501 538 q 701 408 661 469 q 740 267 740 347 q 701 125 740 186 q 587 30 663 64 q 401 -4 511 -4 z "},"Ǯ":{"ha":832,"x_min":47,"x_max":740,"o":"m 401 -4 q 188 35 283 -4 q 47 133 93 74 l 65 151 q 198 60 110 97 q 403 22 286 22 q 633 89 554 22 q 713 267 713 156 q 631 444 713 378 q 381 511 550 511 l 329 511 l 329 532 l 671 956 l 674 946 l 79 946 l 79 972 l 701 972 l 701 951 l 360 528 l 357 538 l 379 538 q 581 503 501 538 q 701 408 661 469 q 740 267 740 347 q 701 125 740 186 q 587 30 663 64 q 401 -4 511 -4 z "},"F":{"ha":874,"x_min":185,"x_max":811,"o":"m 206 479 l 749 479 l 749 453 l 206 453 l 206 479 m 213 0 l 185 0 l 185 972 l 811 972 l 811 946 l 213 946 l 213 0 z "},"G":{"ha":1075,"x_min":82,"x_max":919,"o":"m 585 -4 q 385 33 476 -4 q 225 136 293 69 q 119 292 157 203 q 82 486 82 381 q 119 681 82 592 q 225 836 157 769 q 385 940 293 903 q 585 976 476 976 q 770 946 683 976 q 919 853 857 915 l 903 833 q 756 924 836 897 q 585 950 676 950 q 397 915 483 950 q 245 816 310 879 q 145 669 181 753 q 110 486 110 585 q 145 303 110 388 q 245 156 181 219 q 397 58 310 93 q 585 22 483 22 q 758 50 676 22 q 903 142 839 78 l 919 121 q 770 27 857 58 q 585 -4 683 -4 m 893 121 l 893 476 l 919 476 l 919 121 l 893 121 z "},"Ğ":{"ha":1075,"x_min":82,"x_max":919,"o":"m 585 -4 q 385 33 476 -4 q 225 136 293 69 q 119 292 157 203 q 82 486 82 381 q 119 681 82 592 q 225 836 157 769 q 385 940 293 903 q 585 976 476 976 q 770 946 683 976 q 919 853 857 915 l 903 833 q 756 924 836 897 q 585 950 676 950 q 397 915 483 950 q 245 816 310 879 q 145 669 181 753 q 110 486 110 585 q 145 303 110 388 q 245 156 181 219 q 397 58 310 93 q 585 22 483 22 q 758 50 676 22 q 903 142 839 78 l 919 121 q 770 27 857 58 q 585 -4 683 -4 m 893 121 l 893 476 l 919 476 l 919 121 l 893 121 z "},"Ǧ":{"ha":1075,"x_min":82,"x_max":919,"o":"m 585 -4 q 385 33 476 -4 q 225 136 293 69 q 119 292 157 203 q 82 486 82 381 q 119 681 82 592 q 225 836 157 769 q 385 940 293 903 q 585 976 476 976 q 770 946 683 976 q 919 853 857 915 l 903 833 q 756 924 836 897 q 585 950 676 950 q 397 915 483 950 q 245 816 310 879 q 145 669 181 753 q 110 486 110 585 q 145 303 110 388 q 245 156 181 219 q 397 58 310 93 q 585 22 483 22 q 758 50 676 22 q 903 142 839 78 l 919 121 q 770 27 857 58 q 585 -4 683 -4 m 893 121 l 893 476 l 919 476 l 919 121 l 893 121 z "},"Ĝ":{"ha":1075,"x_min":82,"x_max":919,"o":"m 585 -4 q 385 33 476 -4 q 225 136 293 69 q 119 292 157 203 q 82 486 82 381 q 119 681 82 592 q 225 836 157 769 q 385 940 293 903 q 585 976 476 976 q 770 946 683 976 q 919 853 857 915 l 903 833 q 756 924 836 897 q 585 950 676 950 q 397 915 483 950 q 245 816 310 879 q 145 669 181 753 q 110 486 110 585 q 145 303 110 388 q 245 156 181 219 q 397 58 310 93 q 585 22 483 22 q 758 50 676 22 q 903 142 839 78 l 919 121 q 770 27 857 58 q 585 -4 683 -4 m 893 121 l 893 476 l 919 476 l 919 121 l 893 121 z "},"Ģ":{"ha":1075,"x_min":82,"x_max":919,"o":"m 585 -4 q 385 33 476 -4 q 225 136 293 69 q 119 292 157 203 q 82 486 82 381 q 119 681 82 592 q 225 836 157 769 q 385 940 293 903 q 585 976 476 976 q 770 946 683 976 q 919 853 857 915 l 903 833 q 756 924 836 897 q 585 950 676 950 q 397 915 483 950 q 245 816 310 879 q 145 669 181 753 q 110 486 110 585 q 145 303 110 388 q 245 156 181 219 q 397 58 310 93 q 585 22 483 22 q 758 50 676 22 q 903 142 839 78 l 919 121 q 770 27 857 58 q 585 -4 683 -4 m 893 121 l 893 476 l 919 476 l 919 121 l 893 121 m 529 -360 l 557 -229 l 558 -244 q 533 -233 544 -244 q 522 -208 522 -222 q 533 -183 522 -193 q 558 -172 543 -172 q 585 -184 575 -172 q 594 -208 594 -196 q 592 -231 594 -219 q 586 -253 589 -242 l 554 -360 l 529 -360 z "},"Ġ":{"ha":1075,"x_min":82,"x_max":919,"o":"m 585 -4 q 385 33 476 -4 q 225 136 293 69 q 119 292 157 203 q 82 486 82 381 q 119 681 82 592 q 225 836 157 769 q 385 940 293 903 q 585 976 476 976 q 770 946 683 976 q 919 853 857 915 l 903 833 q 756 924 836 897 q 585 950 676 950 q 397 915 483 950 q 245 816 310 879 q 145 669 181 753 q 110 486 110 585 q 145 303 110 388 q 245 156 181 219 q 397 58 310 93 q 585 22 483 22 q 758 50 676 22 q 903 142 839 78 l 919 121 q 770 27 857 58 q 585 -4 683 -4 m 893 121 l 893 476 l 919 476 l 919 121 l 893 121 z "},"Ḡ":{"ha":1075,"x_min":82,"x_max":919,"o":"m 585 -4 q 385 33 476 -4 q 225 136 293 69 q 119 292 157 203 q 82 486 82 381 q 119 681 82 592 q 225 836 157 769 q 385 940 293 903 q 585 976 476 976 q 770 946 683 976 q 919 853 857 915 l 903 833 q 756 924 836 897 q 585 950 676 950 q 397 915 483 950 q 245 816 310 879 q 145 669 181 753 q 110 486 110 585 q 145 303 110 388 q 245 156 181 219 q 397 58 310 93 q 585 22 483 22 q 758 50 676 22 q 903 142 839 78 l 919 121 q 770 27 857 58 q 585 -4 683 -4 m 893 121 l 893 476 l 919 476 l 919 121 l 893 121 z "},"Ǥ":{"ha":1117,"x_min":82,"x_max":1083,"o":"m 583 311 l 583 338 l 1083 338 l 1083 311 l 583 311 m 585 -4 q 385 33 476 -4 q 225 136 293 69 q 119 292 157 203 q 82 486 82 381 q 119 681 82 592 q 225 836 157 769 q 385 940 293 903 q 585 976 476 976 q 770 946 683 976 q 919 853 857 915 l 903 833 q 756 924 836 897 q 585 950 676 950 q 397 915 483 950 q 245 816 310 879 q 145 669 181 753 q 110 486 110 585 q 145 303 110 388 q 245 156 181 219 q 397 58 310 93 q 585 22 483 22 q 758 50 676 22 q 903 142 839 78 l 919 121 q 770 27 857 58 q 585 -4 683 -4 m 893 121 l 893 476 l 919 476 l 919 121 l 893 121 z "},"H":{"ha":1133,"x_min":185,"x_max":949,"o":"m 921 972 l 949 972 l 949 0 l 921 0 l 921 972 m 213 0 l 185 0 l 185 972 l 213 972 l 213 0 m 928 481 l 206 481 l 206 507 l 928 507 l 928 481 z "},"Ħ":{"ha":1133,"x_min":28,"x_max":1106,"o":"m 921 972 l 949 972 l 949 0 l 921 0 l 921 972 m 213 0 l 185 0 l 185 972 l 213 972 l 213 0 m 928 481 l 206 481 l 206 507 l 928 507 l 928 481 m 28 735 l 28 761 l 1106 761 l 1106 735 l 28 735 z "},"Ḫ":{"ha":1133,"x_min":185,"x_max":949,"o":"m 921 972 l 949 972 l 949 0 l 921 0 l 921 972 m 213 0 l 185 0 l 185 972 l 213 972 l 213 0 m 928 481 l 206 481 l 206 507 l 928 507 l 928 481 m 567 -275 q 439 -235 492 -275 q 383 -125 386 -194 l 410 -125 q 458 -215 413 -182 q 567 -249 503 -249 q 677 -215 632 -249 q 724 -125 722 -182 l 750 -125 q 695 -235 749 -194 q 567 -275 642 -275 z "},"Ȟ":{"ha":1133,"x_min":185,"x_max":949,"o":"m 921 972 l 949 972 l 949 0 l 921 0 l 921 972 m 213 0 l 185 0 l 185 972 l 213 972 l 213 0 m 928 481 l 206 481 l 206 507 l 928 507 l 928 481 z "},"Ĥ":{"ha":1133,"x_min":185,"x_max":949,"o":"m 921 972 l 949 972 l 949 0 l 921 0 l 921 972 m 213 0 l 185 0 l 185 972 l 213 972 l 213 0 m 928 481 l 206 481 l 206 507 l 928 507 l 928 481 z "},"Ḥ":{"ha":1133,"x_min":185,"x_max":949,"o":"m 921 972 l 949 972 l 949 0 l 921 0 l 921 972 m 213 0 l 185 0 l 185 972 l 213 972 l 213 0 m 928 481 l 206 481 l 206 507 l 928 507 l 928 481 m 567 -244 q 542 -233 553 -244 q 531 -208 531 -222 q 542 -183 531 -193 q 567 -172 553 -172 q 592 -183 582 -172 q 603 -208 603 -193 q 592 -233 603 -222 q 567 -244 582 -244 z "},"I":{"ha":397,"x_min":185,"x_max":213,"o":"m 185 0 l 185 972 l 213 972 l 213 0 l 185 0 z "},"Ĳ":{"ha":992,"x_min":167,"x_max":815,"o":"m 454 -4 q 297 22 371 -4 q 167 86 224 47 l 183 108 q 308 45 239 68 q 456 22 378 22 q 699 118 610 22 q 788 408 788 214 l 788 972 l 815 972 l 815 407 q 770 178 815 269 q 644 42 725 88 q 454 -4 564 -4 m 176 403 l 176 972 l 204 972 l 204 403 l 176 403 z "},"Í":{"ha":397,"x_min":136,"x_max":386,"o":"m 185 0 l 185 972 l 213 972 l 213 0 l 185 0 z "},"Ĭ":{"ha":397,"x_min":15,"x_max":382,"o":"m 185 0 l 185 972 l 213 972 l 213 0 l 185 0 z "},"Î":{"ha":397,"x_min":7,"x_max":390,"o":"m 185 0 l 185 972 l 213 972 l 213 0 l 185 0 z "},"Ȉ":{"ha":397,"x_min":-81,"x_max":314,"o":"m 185 0 l 185 972 l 213 972 l 213 0 l 185 0 z "},"Ï":{"ha":397,"x_min":49,"x_max":349,"o":"m 185 0 l 185 972 l 213 972 l 213 0 l 185 0 z "},"Ḯ":{"ha":397,"x_min":49,"x_max":368,"o":"m 185 0 l 185 972 l 213 972 l 213 0 l 185 0 z "},"İ":{"ha":397,"x_min":163,"x_max":235,"o":"m 185 0 l 185 972 l 213 972 l 213 0 l 185 0 z "},"Ị":{"ha":397,"x_min":163,"x_max":235,"o":"m 185 0 l 185 972 l 213 972 l 213 0 l 185 0 m 199 -244 q 174 -233 185 -244 q 163 -208 163 -222 q 174 -183 163 -193 q 199 -172 185 -172 q 224 -183 214 -172 q 235 -208 235 -193 q 224 -233 235 -222 q 199 -244 214 -244 z "},"Ì":{"ha":397,"x_min":11,"x_max":261,"o":"m 185 0 l 185 972 l 213 972 l 213 0 l 185 0 z "},"Ỉ":{"ha":397,"x_min":97,"x_max":303,"o":"m 185 0 l 185 972 l 213 972 l 213 0 l 185 0 z "},"Ȋ":{"ha":397,"x_min":15,"x_max":382,"o":"m 185 0 l 185 972 l 213 972 l 213 0 l 185 0 z "},"Ī":{"ha":397,"x_min":44,"x_max":353,"o":"m 185 0 l 185 972 l 213 972 l 213 0 l 185 0 z "},"Į":{"ha":397,"x_min":108,"x_max":272,"o":"m 185 0 l 185 972 l 213 972 l 213 0 l 185 0 m 201 -296 q 134 -265 160 -296 q 108 -187 108 -235 q 125 -93 108 -149 q 201 24 142 -37 l 213 0 q 147 -106 158 -61 q 136 -186 136 -151 q 156 -249 136 -228 q 201 -271 175 -271 q 233 -263 219 -271 q 257 -243 247 -256 l 272 -262 q 201 -296 246 -296 z "},"Ĩ":{"ha":397,"x_min":10,"x_max":388,"o":"m 185 0 l 185 972 l 213 972 l 213 0 l 185 0 z "},"J":{"ha":663,"x_min":6,"x_max":486,"o":"m 247 -4 q 109 33 174 -4 q 6 133 44 69 l 25 150 q 123 56 65 89 q 249 22 181 22 q 458 272 458 22 l 458 946 l 94 946 l 94 972 l 486 972 l 486 269 q 426 65 486 133 q 247 -4 367 -4 z "},"Ĵ":{"ha":663,"x_min":6,"x_max":486,"o":"m 247 -4 q 109 33 174 -4 q 6 133 44 69 l 25 150 q 123 56 65 89 q 249 22 181 22 q 458 272 458 22 l 458 946 l 94 946 l 94 972 l 486 972 l 486 269 q 426 65 486 133 q 247 -4 367 -4 z "},"K":{"ha":963,"x_min":185,"x_max":940,"o":"m 207 253 l 207 290 l 871 972 l 908 972 l 472 524 l 456 508 l 207 253 m 185 0 l 185 972 l 213 972 l 213 0 l 185 0 m 903 0 l 440 524 l 461 542 l 940 0 l 903 0 z "},"Ǩ":{"ha":963,"x_min":185,"x_max":940,"o":"m 207 253 l 207 290 l 871 972 l 908 972 l 472 524 l 456 508 l 207 253 m 185 0 l 185 972 l 213 972 l 213 0 l 185 0 m 903 0 l 440 524 l 461 542 l 940 0 l 903 0 z "},"Ķ":{"ha":963,"x_min":185,"x_max":940,"o":"m 207 253 l 207 290 l 871 972 l 908 972 l 472 524 l 456 508 l 207 253 m 185 0 l 185 972 l 213 972 l 213 0 l 185 0 m 903 0 l 440 524 l 461 542 l 940 0 l 903 0 m 485 -360 l 513 -229 l 514 -244 q 489 -233 500 -244 q 478 -208 478 -222 q 488 -183 478 -193 q 514 -172 499 -172 q 540 -184 531 -172 q 550 -208 550 -196 q 547 -231 550 -219 q 542 -253 544 -242 l 510 -360 l 485 -360 z "},"L":{"ha":806,"x_min":185,"x_max":792,"o":"m 185 0 l 185 972 l 213 972 l 213 26 l 792 26 l 792 0 l 185 0 z "},"Ǉ":{"ha":1468,"x_min":185,"x_max":1292,"o":"m 185 0 l 185 972 l 213 972 l 213 26 l 792 26 l 792 0 l 185 0 m 1053 -4 q 915 33 979 -4 q 811 133 850 69 l 831 150 q 928 56 871 89 q 1054 22 986 22 q 1264 272 1264 22 l 1264 946 l 900 946 l 900 972 l 1292 972 l 1292 269 q 1232 65 1292 133 q 1053 -4 1172 -4 z "},"Ĺ":{"ha":806,"x_min":136,"x_max":792,"o":"m 185 0 l 185 972 l 213 972 l 213 26 l 792 26 l 792 0 l 185 0 z "},"Ľ":{"ha":806,"x_min":185,"x_max":792,"o":"m 185 0 l 185 972 l 213 972 l 213 26 l 792 26 l 792 0 l 185 0 m 619 750 l 619 1000 l 647 1000 l 644 750 l 619 750 z "},"Ļ":{"ha":806,"x_min":185,"x_max":792,"o":"m 185 0 l 185 972 l 213 972 l 213 26 l 792 26 l 792 0 l 185 0 m 474 -360 l 501 -229 l 503 -244 q 478 -233 489 -244 q 467 -208 467 -222 q 477 -183 467 -193 q 503 -172 488 -172 q 529 -184 519 -172 q 539 -208 539 -196 q 536 -231 539 -219 q 531 -253 533 -242 l 499 -360 l 474 -360 z "},"Ŀ":{"ha":806,"x_min":185,"x_max":792,"o":"m 185 0 l 185 972 l 213 972 l 213 26 l 792 26 l 792 0 l 185 0 m 601 464 q 576 475 588 464 q 565 500 565 486 q 576 526 565 515 q 601 536 588 536 q 627 526 617 536 q 638 500 638 515 q 627 475 638 486 q 601 464 617 464 z "},"Ḷ":{"ha":806,"x_min":185,"x_max":792,"o":"m 185 0 l 185 972 l 213 972 l 213 26 l 792 26 l 792 0 l 185 0 m 503 -244 q 478 -233 489 -244 q 467 -208 467 -222 q 478 -183 467 -193 q 503 -172 489 -172 q 528 -183 518 -172 q 539 -208 539 -193 q 528 -233 539 -222 q 503 -244 518 -244 z "},"ǈ":{"ha":1160,"x_min":185,"x_max":1022,"o":"m 185 0 l 185 972 l 213 972 l 213 26 l 792 26 l 792 0 l 185 0 z "},"Ḻ":{"ha":806,"x_min":185,"x_max":792,"o":"m 185 0 l 185 972 l 213 972 l 213 26 l 792 26 l 792 0 l 185 0 m 314 -222 l 314 -194 l 692 -194 l 692 -222 l 314 -222 z "},"Ł":{"ha":806,"x_min":57,"x_max":792,"o":"m 185 0 l 185 972 l 213 972 l 213 26 l 792 26 l 792 0 l 185 0 m 72 392 l 57 411 l 394 660 l 410 640 l 72 392 z "},"M":{"ha":1328,"x_min":185,"x_max":1143,"o":"m 185 0 l 185 972 l 208 972 l 671 164 l 658 164 l 1119 972 l 1143 972 l 1143 0 l 1115 0 l 1115 932 l 1126 932 l 672 138 l 656 138 l 200 932 l 213 932 l 213 0 l 185 0 z "},"Ṃ":{"ha":1328,"x_min":185,"x_max":1143,"o":"m 185 0 l 185 972 l 208 972 l 671 164 l 658 164 l 1119 972 l 1143 972 l 1143 0 l 1115 0 l 1115 932 l 1126 932 l 672 138 l 656 138 l 200 932 l 213 932 l 213 0 l 185 0 m 664 -244 q 639 -233 650 -244 q 628 -208 628 -222 q 639 -183 628 -193 q 664 -172 650 -172 q 690 -183 679 -172 q 700 -208 700 -193 q 690 -233 700 -222 q 664 -244 679 -244 z "},"N":{"ha":1133,"x_min":185,"x_max":949,"o":"m 185 0 l 185 972 l 208 972 l 936 32 l 921 32 l 921 972 l 949 972 l 949 0 l 925 0 l 197 940 l 213 940 l 213 0 l 185 0 z "},"Ǌ":{"ha":1796,"x_min":185,"x_max":1619,"o":"m 185 0 l 185 972 l 208 972 l 936 32 l 921 32 l 921 972 l 949 972 l 949 0 l 925 0 l 197 940 l 213 940 l 213 0 l 185 0 m 1381 -4 q 1242 33 1307 -4 q 1139 133 1178 69 l 1158 150 q 1256 56 1199 89 q 1382 22 1314 22 q 1592 272 1592 22 l 1592 946 l 1228 946 l 1228 972 l 1619 972 l 1619 269 q 1560 65 1619 133 q 1381 -4 1500 -4 z "},"Ń":{"ha":1133,"x_min":185,"x_max":949,"o":"m 185 0 l 185 972 l 208 972 l 936 32 l 921 32 l 921 972 l 949 972 l 949 0 l 925 0 l 197 940 l 213 940 l 213 0 l 185 0 z "},"Ň":{"ha":1133,"x_min":185,"x_max":949,"o":"m 185 0 l 185 972 l 208 972 l 936 32 l 921 32 l 921 972 l 949 972 l 949 0 l 925 0 l 197 940 l 213 940 l 213 0 l 185 0 z "},"Ņ":{"ha":1133,"x_min":185,"x_max":949,"o":"m 185 0 l 185 972 l 208 972 l 936 32 l 921 32 l 921 972 l 949 972 l 949 0 l 925 0 l 197 940 l 213 940 l 213 0 l 185 0 m 538 -360 l 565 -229 l 567 -244 q 542 -233 553 -244 q 531 -208 531 -222 q 541 -183 531 -193 q 567 -172 551 -172 q 593 -184 583 -172 q 603 -208 603 -196 q 600 -231 603 -219 q 594 -253 597 -242 l 563 -360 l 538 -360 z "},"Ṅ":{"ha":1133,"x_min":185,"x_max":949,"o":"m 185 0 l 185 972 l 208 972 l 936 32 l 921 32 l 921 972 l 949 972 l 949 0 l 925 0 l 197 940 l 213 940 l 213 0 l 185 0 z "},"Ṇ":{"ha":1133,"x_min":185,"x_max":949,"o":"m 185 0 l 185 972 l 208 972 l 936 32 l 921 32 l 921 972 l 949 972 l 949 0 l 925 0 l 197 940 l 213 940 l 213 0 l 185 0 m 567 -244 q 542 -233 553 -244 q 531 -208 531 -222 q 542 -183 531 -193 q 567 -172 553 -172 q 592 -183 582 -172 q 603 -208 603 -193 q 592 -233 603 -222 q 567 -244 582 -244 z "},"Ŋ":{"ha":1133,"x_min":185,"x_max":949,"o":"m 185 0 l 185 972 l 208 972 l 936 32 l 925 0 l 197 940 l 213 940 l 213 0 l 185 0 m 710 -274 q 572 -237 636 -274 q 468 -136 507 -200 l 488 -119 q 585 -214 528 -181 q 711 -247 643 -247 q 921 3 921 -247 l 921 972 l 949 972 l 949 0 q 889 -205 949 -136 q 710 -274 829 -274 z "},"ǋ":{"ha":1488,"x_min":185,"x_max":1350,"o":"m 185 0 l 185 972 l 208 972 l 936 32 l 921 32 l 921 972 l 949 972 l 949 0 l 925 0 l 197 940 l 213 940 l 213 0 l 185 0 z "},"Ṉ":{"ha":1133,"x_min":185,"x_max":949,"o":"m 185 0 l 185 972 l 208 972 l 936 32 l 921 32 l 921 972 l 949 972 l 949 0 l 925 0 l 197 940 l 213 940 l 213 0 l 185 0 m 378 -222 l 378 -194 l 756 -194 l 756 -222 l 378 -222 z "},"Ñ":{"ha":1133,"x_min":185,"x_max":949,"o":"m 185 0 l 185 972 l 208 972 l 936 32 l 921 32 l 921 972 l 949 972 l 949 0 l 925 0 l 197 940 l 213 940 l 213 0 l 185 0 z "},"O":{"ha":1161,"x_min":82,"x_max":1079,"o":"m 581 -4 q 383 33 474 -4 q 224 136 292 69 q 119 292 157 203 q 82 486 82 381 q 119 681 82 592 q 224 836 157 769 q 383 940 292 903 q 581 976 474 976 q 778 940 688 976 q 937 836 869 903 q 1042 681 1004 769 q 1079 486 1079 592 q 1042 292 1079 381 q 937 136 1004 203 q 778 33 869 69 q 581 -4 688 -4 m 581 22 q 767 57 681 22 q 917 155 853 92 q 1016 302 981 218 q 1051 486 1051 386 q 1016 670 1051 586 q 917 817 981 754 q 767 915 853 881 q 581 950 681 950 q 394 915 481 950 q 244 817 308 881 q 145 670 181 754 q 110 486 110 586 q 145 302 110 386 q 244 155 181 218 q 394 57 308 92 q 581 22 481 22 z "},"Ó":{"ha":1161,"x_min":82,"x_max":1079,"o":"m 581 -4 q 383 33 474 -4 q 224 136 292 69 q 119 292 157 203 q 82 486 82 381 q 119 681 82 592 q 224 836 157 769 q 383 940 292 903 q 581 976 474 976 q 778 940 688 976 q 937 836 869 903 q 1042 681 1004 769 q 1079 486 1079 592 q 1042 292 1079 381 q 937 136 1004 203 q 778 33 869 69 q 581 -4 688 -4 m 581 22 q 767 57 681 22 q 917 155 853 92 q 1016 302 981 218 q 1051 486 1051 386 q 1016 670 1051 586 q 917 817 981 754 q 767 915 853 881 q 581 950 681 950 q 394 915 481 950 q 244 817 308 881 q 145 670 181 754 q 110 486 110 586 q 145 302 110 386 q 244 155 181 218 q 394 57 308 92 q 581 22 481 22 z "},"Ŏ":{"ha":1161,"x_min":82,"x_max":1079,"o":"m 581 -4 q 383 33 474 -4 q 224 136 292 69 q 119 292 157 203 q 82 486 82 381 q 119 681 82 592 q 224 836 157 769 q 383 940 292 903 q 581 976 474 976 q 778 940 688 976 q 937 836 869 903 q 1042 681 1004 769 q 1079 486 1079 592 q 1042 292 1079 381 q 937 136 1004 203 q 778 33 869 69 q 581 -4 688 -4 m 581 22 q 767 57 681 22 q 917 155 853 92 q 1016 302 981 218 q 1051 486 1051 386 q 1016 670 1051 586 q 917 817 981 754 q 767 915 853 881 q 581 950 681 950 q 394 915 481 950 q 244 817 308 881 q 145 670 181 754 q 110 486 110 586 q 145 302 110 386 q 244 155 181 218 q 394 57 308 92 q 581 22 481 22 z "},"Ô":{"ha":1161,"x_min":82,"x_max":1079,"o":"m 581 -4 q 383 33 474 -4 q 224 136 292 69 q 119 292 157 203 q 82 486 82 381 q 119 681 82 592 q 224 836 157 769 q 383 940 292 903 q 581 976 474 976 q 778 940 688 976 q 937 836 869 903 q 1042 681 1004 769 q 1079 486 1079 592 q 1042 292 1079 381 q 937 136 1004 203 q 778 33 869 69 q 581 -4 688 -4 m 581 22 q 767 57 681 22 q 917 155 853 92 q 1016 302 981 218 q 1051 486 1051 386 q 1016 670 1051 586 q 917 817 981 754 q 767 915 853 881 q 581 950 681 950 q 394 915 481 950 q 244 817 308 881 q 145 670 181 754 q 110 486 110 586 q 145 302 110 386 q 244 155 181 218 q 394 57 308 92 q 581 22 481 22 z "},"Ố":{"ha":1161,"x_min":82,"x_max":1079,"o":"m 581 -4 q 383 33 474 -4 q 224 136 292 69 q 119 292 157 203 q 82 486 82 381 q 119 681 82 592 q 224 836 157 769 q 383 940 292 903 q 581 976 474 976 q 778 940 688 976 q 937 836 869 903 q 1042 681 1004 769 q 1079 486 1079 592 q 1042 292 1079 381 q 937 136 1004 203 q 778 33 869 69 q 581 -4 688 -4 m 581 22 q 767 57 681 22 q 917 155 853 92 q 1016 302 981 218 q 1051 486 1051 386 q 1016 670 1051 586 q 917 817 981 754 q 767 915 853 881 q 581 950 681 950 q 394 915 481 950 q 244 817 308 881 q 145 670 181 754 q 110 486 110 586 q 145 302 110 386 q 244 155 181 218 q 394 57 308 92 q 581 22 481 22 z "},"Ộ":{"ha":1161,"x_min":82,"x_max":1079,"o":"m 581 -4 q 383 33 474 -4 q 224 136 292 69 q 119 292 157 203 q 82 486 82 381 q 119 681 82 592 q 224 836 157 769 q 383 940 292 903 q 581 976 474 976 q 778 940 688 976 q 937 836 869 903 q 1042 681 1004 769 q 1079 486 1079 592 q 1042 292 1079 381 q 937 136 1004 203 q 778 33 869 69 q 581 -4 688 -4 m 581 22 q 767 57 681 22 q 917 155 853 92 q 1016 302 981 218 q 1051 486 1051 386 q 1016 670 1051 586 q 917 817 981 754 q 767 915 853 881 q 581 950 681 950 q 394 915 481 950 q 244 817 308 881 q 145 670 181 754 q 110 486 110 586 q 145 302 110 386 q 244 155 181 218 q 394 57 308 92 q 581 22 481 22 m 581 -244 q 556 -233 567 -244 q 544 -208 544 -222 q 556 -183 544 -193 q 581 -172 567 -172 q 606 -183 596 -172 q 617 -208 617 -193 q 606 -233 617 -222 q 581 -244 596 -244 z "},"Ồ":{"ha":1161,"x_min":82,"x_max":1079,"o":"m 581 -4 q 383 33 474 -4 q 224 136 292 69 q 119 292 157 203 q 82 486 82 381 q 119 681 82 592 q 224 836 157 769 q 383 940 292 903 q 581 976 474 976 q 778 940 688 976 q 937 836 869 903 q 1042 681 1004 769 q 1079 486 1079 592 q 1042 292 1079 381 q 937 136 1004 203 q 778 33 869 69 q 581 -4 688 -4 m 581 22 q 767 57 681 22 q 917 155 853 92 q 1016 302 981 218 q 1051 486 1051 386 q 1016 670 1051 586 q 917 817 981 754 q 767 915 853 881 q 581 950 681 950 q 394 915 481 950 q 244 817 308 881 q 145 670 181 754 q 110 486 110 586 q 145 302 110 386 q 244 155 181 218 q 394 57 308 92 q 581 22 481 22 z "},"Ổ":{"ha":1161,"x_min":82,"x_max":1079,"o":"m 581 -4 q 383 33 474 -4 q 224 136 292 69 q 119 292 157 203 q 82 486 82 381 q 119 681 82 592 q 224 836 157 769 q 383 940 292 903 q 581 976 474 976 q 778 940 688 976 q 937 836 869 903 q 1042 681 1004 769 q 1079 486 1079 592 q 1042 292 1079 381 q 937 136 1004 203 q 778 33 869 69 q 581 -4 688 -4 m 581 22 q 767 57 681 22 q 917 155 853 92 q 1016 302 981 218 q 1051 486 1051 386 q 1016 670 1051 586 q 917 817 981 754 q 767 915 853 881 q 581 950 681 950 q 394 915 481 950 q 244 817 308 881 q 145 670 181 754 q 110 486 110 586 q 145 302 110 386 q 244 155 181 218 q 394 57 308 92 q 581 22 481 22 z "},"Ỗ":{"ha":1161,"x_min":82,"x_max":1079,"o":"m 581 -4 q 383 33 474 -4 q 224 136 292 69 q 119 292 157 203 q 82 486 82 381 q 119 681 82 592 q 224 836 157 769 q 383 940 292 903 q 581 976 474 976 q 778 940 688 976 q 937 836 869 903 q 1042 681 1004 769 q 1079 486 1079 592 q 1042 292 1079 381 q 937 136 1004 203 q 778 33 869 69 q 581 -4 688 -4 m 581 22 q 767 57 681 22 q 917 155 853 92 q 1016 302 981 218 q 1051 486 1051 386 q 1016 670 1051 586 q 917 817 981 754 q 767 915 853 881 q 581 950 681 950 q 394 915 481 950 q 244 817 308 881 q 145 670 181 754 q 110 486 110 586 q 145 302 110 386 q 244 155 181 218 q 394 57 308 92 q 581 22 481 22 z "},"Ȍ":{"ha":1161,"x_min":82,"x_max":1079,"o":"m 581 -4 q 383 33 474 -4 q 224 136 292 69 q 119 292 157 203 q 82 486 82 381 q 119 681 82 592 q 224 836 157 769 q 383 940 292 903 q 581 976 474 976 q 778 940 688 976 q 937 836 869 903 q 1042 681 1004 769 q 1079 486 1079 592 q 1042 292 1079 381 q 937 136 1004 203 q 778 33 869 69 q 581 -4 688 -4 m 581 22 q 767 57 681 22 q 917 155 853 92 q 1016 302 981 218 q 1051 486 1051 386 q 1016 670 1051 586 q 917 817 981 754 q 767 915 853 881 q 581 950 681 950 q 394 915 481 950 q 244 817 308 881 q 145 670 181 754 q 110 486 110 586 q 145 302 110 386 q 244 155 181 218 q 394 57 308 92 q 581 22 481 22 z "},"Ö":{"ha":1161,"x_min":82,"x_max":1079,"o":"m 581 -4 q 383 33 474 -4 q 224 136 292 69 q 119 292 157 203 q 82 486 82 381 q 119 681 82 592 q 224 836 157 769 q 383 940 292 903 q 581 976 474 976 q 778 940 688 976 q 937 836 869 903 q 1042 681 1004 769 q 1079 486 1079 592 q 1042 292 1079 381 q 937 136 1004 203 q 778 33 869 69 q 581 -4 688 -4 m 581 22 q 767 57 681 22 q 917 155 853 92 q 1016 302 981 218 q 1051 486 1051 386 q 1016 670 1051 586 q 917 817 981 754 q 767 915 853 881 q 581 950 681 950 q 394 915 481 950 q 244 817 308 881 q 145 670 181 754 q 110 486 110 586 q 145 302 110 386 q 244 155 181 218 q 394 57 308 92 q 581 22 481 22 z "},"Ȫ":{"ha":1161,"x_min":82,"x_max":1079,"o":"m 581 -4 q 383 33 474 -4 q 224 136 292 69 q 119 292 157 203 q 82 486 82 381 q 119 681 82 592 q 224 836 157 769 q 383 940 292 903 q 581 976 474 976 q 778 940 688 976 q 937 836 869 903 q 1042 681 1004 769 q 1079 486 1079 592 q 1042 292 1079 381 q 937 136 1004 203 q 778 33 869 69 q 581 -4 688 -4 m 581 22 q 767 57 681 22 q 917 155 853 92 q 1016 302 981 218 q 1051 486 1051 386 q 1016 670 1051 586 q 917 817 981 754 q 767 915 853 881 q 581 950 681 950 q 394 915 481 950 q 244 817 308 881 q 145 670 181 754 q 110 486 110 586 q 145 302 110 386 q 244 155 181 218 q 394 57 308 92 q 581 22 481 22 z "},"Ȱ":{"ha":1161,"x_min":82,"x_max":1079,"o":"m 581 -4 q 383 33 474 -4 q 224 136 292 69 q 119 292 157 203 q 82 486 82 381 q 119 681 82 592 q 224 836 157 769 q 383 940 292 903 q 581 976 474 976 q 778 940 688 976 q 937 836 869 903 q 1042 681 1004 769 q 1079 486 1079 592 q 1042 292 1079 381 q 937 136 1004 203 q 778 33 869 69 q 581 -4 688 -4 m 581 22 q 767 57 681 22 q 917 155 853 92 q 1016 302 981 218 q 1051 486 1051 386 q 1016 670 1051 586 q 917 817 981 754 q 767 915 853 881 q 581 950 681 950 q 394 915 481 950 q 244 817 308 881 q 145 670 181 754 q 110 486 110 586 q 145 302 110 386 q 244 155 181 218 q 394 57 308 92 q 581 22 481 22 z "},"Ọ":{"ha":1161,"x_min":82,"x_max":1079,"o":"m 581 -4 q 383 33 474 -4 q 224 136 292 69 q 119 292 157 203 q 82 486 82 381 q 119 681 82 592 q 224 836 157 769 q 383 940 292 903 q 581 976 474 976 q 778 940 688 976 q 937 836 869 903 q 1042 681 1004 769 q 1079 486 1079 592 q 1042 292 1079 381 q 937 136 1004 203 q 778 33 869 69 q 581 -4 688 -4 m 581 22 q 767 57 681 22 q 917 155 853 92 q 1016 302 981 218 q 1051 486 1051 386 q 1016 670 1051 586 q 917 817 981 754 q 767 915 853 881 q 581 950 681 950 q 394 915 481 950 q 244 817 308 881 q 145 670 181 754 q 110 486 110 586 q 145 302 110 386 q 244 155 181 218 q 394 57 308 92 q 581 22 481 22 m 581 -244 q 556 -233 567 -244 q 544 -208 544 -222 q 556 -183 544 -193 q 581 -172 567 -172 q 606 -183 596 -172 q 617 -208 617 -193 q 606 -233 617 -222 q 581 -244 596 -244 z "},"Ò":{"ha":1161,"x_min":82,"x_max":1079,"o":"m 581 -4 q 383 33 474 -4 q 224 136 292 69 q 119 292 157 203 q 82 486 82 381 q 119 681 82 592 q 224 836 157 769 q 383 940 292 903 q 581 976 474 976 q 778 940 688 976 q 937 836 869 903 q 1042 681 1004 769 q 1079 486 1079 592 q 1042 292 1079 381 q 937 136 1004 203 q 778 33 869 69 q 581 -4 688 -4 m 581 22 q 767 57 681 22 q 917 155 853 92 q 1016 302 981 218 q 1051 486 1051 386 q 1016 670 1051 586 q 917 817 981 754 q 767 915 853 881 q 581 950 681 950 q 394 915 481 950 q 244 817 308 881 q 145 670 181 754 q 110 486 110 586 q 145 302 110 386 q 244 155 181 218 q 394 57 308 92 q 581 22 481 22 z "},"Ỏ":{"ha":1161,"x_min":82,"x_max":1079,"o":"m 581 -4 q 383 33 474 -4 q 224 136 292 69 q 119 292 157 203 q 82 486 82 381 q 119 681 82 592 q 224 836 157 769 q 383 940 292 903 q 581 976 474 976 q 778 940 688 976 q 937 836 869 903 q 1042 681 1004 769 q 1079 486 1079 592 q 1042 292 1079 381 q 937 136 1004 203 q 778 33 869 69 q 581 -4 688 -4 m 581 22 q 767 57 681 22 q 917 155 853 92 q 1016 302 981 218 q 1051 486 1051 386 q 1016 670 1051 586 q 917 817 981 754 q 767 915 853 881 q 581 950 681 950 q 394 915 481 950 q 244 817 308 881 q 145 670 181 754 q 110 486 110 586 q 145 302 110 386 q 244 155 181 218 q 394 57 308 92 q 581 22 481 22 z "},"Ơ":{"ha":1161,"x_min":82,"x_max":1079,"o":"m 581 -4 q 383 33 474 -4 q 224 136 292 69 q 119 292 157 203 q 82 486 82 381 q 119 681 82 592 q 224 836 157 769 q 383 940 292 903 q 581 976 474 976 q 737 966 671 976 q 871 956 803 956 q 986 984 949 956 q 1024 1069 1024 1013 q 1015 1120 1024 1097 q 996 1163 1007 1143 l 1021 1174 q 1043 1126 1035 1153 q 1051 1071 1051 1099 q 1006 965 1051 1000 q 871 929 961 929 q 811 932 849 929 q 743 940 774 935 l 761 944 q 930 843 858 911 q 1040 683 1001 775 q 1079 486 1079 592 q 1042 292 1079 381 q 937 136 1004 203 q 778 33 869 69 q 581 -4 688 -4 m 581 22 q 767 58 681 22 q 917 156 853 93 q 1016 303 981 219 q 1051 486 1051 388 q 1016 669 1051 585 q 917 816 981 753 q 767 915 853 879 q 581 950 681 950 q 394 915 481 950 q 244 816 308 879 q 145 669 181 753 q 110 486 110 585 q 145 303 110 388 q 244 156 181 219 q 394 58 308 93 q 581 22 481 22 z "},"Ớ":{"ha":1161,"x_min":82,"x_max":1079,"o":"m 581 -4 q 383 33 474 -4 q 224 136 292 69 q 119 292 157 203 q 82 486 82 381 q 119 681 82 592 q 224 836 157 769 q 383 940 292 903 q 581 976 474 976 q 737 966 671 976 q 871 956 803 956 q 986 984 949 956 q 1024 1069 1024 1013 q 1015 1120 1024 1097 q 996 1163 1007 1143 l 1021 1174 q 1043 1126 1035 1153 q 1051 1071 1051 1099 q 1006 965 1051 1000 q 871 929 961 929 q 811 932 849 929 q 743 940 774 935 l 761 944 q 930 843 858 911 q 1040 683 1001 775 q 1079 486 1079 592 q 1042 292 1079 381 q 937 136 1004 203 q 778 33 869 69 q 581 -4 688 -4 m 581 22 q 767 58 681 22 q 917 156 853 93 q 1016 303 981 219 q 1051 486 1051 388 q 1016 669 1051 585 q 917 816 981 753 q 767 915 853 879 q 581 950 681 950 q 394 915 481 950 q 244 816 308 879 q 145 669 181 753 q 110 486 110 585 q 145 303 110 388 q 244 156 181 219 q 394 58 308 93 q 581 22 481 22 z "},"Ợ":{"ha":1161,"x_min":82,"x_max":1079,"o":"m 581 -4 q 383 33 474 -4 q 224 136 292 69 q 119 292 157 203 q 82 486 82 381 q 119 681 82 592 q 224 836 157 769 q 383 940 292 903 q 581 976 474 976 q 737 966 671 976 q 871 956 803 956 q 986 984 949 956 q 1024 1069 1024 1013 q 1015 1120 1024 1097 q 996 1163 1007 1143 l 1021 1174 q 1043 1126 1035 1153 q 1051 1071 1051 1099 q 1006 965 1051 1000 q 871 929 961 929 q 811 932 849 929 q 743 940 774 935 l 761 944 q 930 843 858 911 q 1040 683 1001 775 q 1079 486 1079 592 q 1042 292 1079 381 q 937 136 1004 203 q 778 33 869 69 q 581 -4 688 -4 m 581 22 q 767 58 681 22 q 917 156 853 93 q 1016 303 981 219 q 1051 486 1051 388 q 1016 669 1051 585 q 917 816 981 753 q 767 915 853 879 q 581 950 681 950 q 394 915 481 950 q 244 816 308 879 q 145 669 181 753 q 110 486 110 585 q 145 303 110 388 q 244 156 181 219 q 394 58 308 93 q 581 22 481 22 m 581 -244 q 556 -233 567 -244 q 544 -208 544 -222 q 556 -183 544 -193 q 581 -172 567 -172 q 606 -183 596 -172 q 617 -208 617 -193 q 606 -233 617 -222 q 581 -244 596 -244 z "},"Ờ":{"ha":1161,"x_min":82,"x_max":1079,"o":"m 581 -4 q 383 33 474 -4 q 224 136 292 69 q 119 292 157 203 q 82 486 82 381 q 119 681 82 592 q 224 836 157 769 q 383 940 292 903 q 581 976 474 976 q 737 966 671 976 q 871 956 803 956 q 986 984 949 956 q 1024 1069 1024 1013 q 1015 1120 1024 1097 q 996 1163 1007 1143 l 1021 1174 q 1043 1126 1035 1153 q 1051 1071 1051 1099 q 1006 965 1051 1000 q 871 929 961 929 q 811 932 849 929 q 743 940 774 935 l 761 944 q 930 843 858 911 q 1040 683 1001 775 q 1079 486 1079 592 q 1042 292 1079 381 q 937 136 1004 203 q 778 33 869 69 q 581 -4 688 -4 m 581 22 q 767 58 681 22 q 917 156 853 93 q 1016 303 981 219 q 1051 486 1051 388 q 1016 669 1051 585 q 917 816 981 753 q 767 915 853 879 q 581 950 681 950 q 394 915 481 950 q 244 816 308 879 q 145 669 181 753 q 110 486 110 585 q 145 303 110 388 q 244 156 181 219 q 394 58 308 93 q 581 22 481 22 z "},"Ở":{"ha":1161,"x_min":82,"x_max":1079,"o":"m 581 -4 q 383 33 474 -4 q 224 136 292 69 q 119 292 157 203 q 82 486 82 381 q 119 681 82 592 q 224 836 157 769 q 383 940 292 903 q 581 976 474 976 q 737 966 671 976 q 871 956 803 956 q 986 984 949 956 q 1024 1069 1024 1013 q 1015 1120 1024 1097 q 996 1163 1007 1143 l 1021 1174 q 1043 1126 1035 1153 q 1051 1071 1051 1099 q 1006 965 1051 1000 q 871 929 961 929 q 811 932 849 929 q 743 940 774 935 l 761 944 q 930 843 858 911 q 1040 683 1001 775 q 1079 486 1079 592 q 1042 292 1079 381 q 937 136 1004 203 q 778 33 869 69 q 581 -4 688 -4 m 581 22 q 767 58 681 22 q 917 156 853 93 q 1016 303 981 219 q 1051 486 1051 388 q 1016 669 1051 585 q 917 816 981 753 q 767 915 853 879 q 581 950 681 950 q 394 915 481 950 q 244 816 308 879 q 145 669 181 753 q 110 486 110 585 q 145 303 110 388 q 244 156 181 219 q 394 58 308 93 q 581 22 481 22 z "},"Ỡ":{"ha":1161,"x_min":82,"x_max":1079,"o":"m 581 -4 q 383 33 474 -4 q 224 136 292 69 q 119 292 157 203 q 82 486 82 381 q 119 681 82 592 q 224 836 157 769 q 383 940 292 903 q 581 976 474 976 q 737 966 671 976 q 871 956 803 956 q 986 984 949 956 q 1024 1069 1024 1013 q 1015 1120 1024 1097 q 996 1163 1007 1143 l 1021 1174 q 1043 1126 1035 1153 q 1051 1071 1051 1099 q 1006 965 1051 1000 q 871 929 961 929 q 811 932 849 929 q 743 940 774 935 l 761 944 q 930 843 858 911 q 1040 683 1001 775 q 1079 486 1079 592 q 1042 292 1079 381 q 937 136 1004 203 q 778 33 869 69 q 581 -4 688 -4 m 581 22 q 767 58 681 22 q 917 156 853 93 q 1016 303 981 219 q 1051 486 1051 388 q 1016 669 1051 585 q 917 816 981 753 q 767 915 853 879 q 581 950 681 950 q 394 915 481 950 q 244 816 308 879 q 145 669 181 753 q 110 486 110 585 q 145 303 110 388 q 244 156 181 219 q 394 58 308 93 q 581 22 481 22 z "},"Ő":{"ha":1161,"x_min":82,"x_max":1079,"o":"m 581 -4 q 383 33 474 -4 q 224 136 292 69 q 119 292 157 203 q 82 486 82 381 q 119 681 82 592 q 224 836 157 769 q 383 940 292 903 q 581 976 474 976 q 778 940 688 976 q 937 836 869 903 q 1042 681 1004 769 q 1079 486 1079 592 q 1042 292 1079 381 q 937 136 1004 203 q 778 33 869 69 q 581 -4 688 -4 m 581 22 q 767 57 681 22 q 917 155 853 92 q 1016 302 981 218 q 1051 486 1051 386 q 1016 670 1051 586 q 917 817 981 754 q 767 915 853 881 q 581 950 681 950 q 394 915 481 950 q 244 817 308 881 q 145 670 181 754 q 110 486 110 586 q 145 302 110 386 q 244 155 181 218 q 394 57 308 92 q 581 22 481 22 z "},"Ȏ":{"ha":1161,"x_min":82,"x_max":1079,"o":"m 581 -4 q 383 33 474 -4 q 224 136 292 69 q 119 292 157 203 q 82 486 82 381 q 119 681 82 592 q 224 836 157 769 q 383 940 292 903 q 581 976 474 976 q 778 940 688 976 q 937 836 869 903 q 1042 681 1004 769 q 1079 486 1079 592 q 1042 292 1079 381 q 937 136 1004 203 q 778 33 869 69 q 581 -4 688 -4 m 581 22 q 767 57 681 22 q 917 155 853 92 q 1016 302 981 218 q 1051 486 1051 386 q 1016 670 1051 586 q 917 817 981 754 q 767 915 853 881 q 581 950 681 950 q 394 915 481 950 q 244 817 308 881 q 145 670 181 754 q 110 486 110 586 q 145 302 110 386 q 244 155 181 218 q 394 57 308 92 q 581 22 481 22 z "},"Ō":{"ha":1161,"x_min":82,"x_max":1079,"o":"m 581 -4 q 383 33 474 -4 q 224 136 292 69 q 119 292 157 203 q 82 486 82 381 q 119 681 82 592 q 224 836 157 769 q 383 940 292 903 q 581 976 474 976 q 778 940 688 976 q 937 836 869 903 q 1042 681 1004 769 q 1079 486 1079 592 q 1042 292 1079 381 q 937 136 1004 203 q 778 33 869 69 q 581 -4 688 -4 m 581 22 q 767 57 681 22 q 917 155 853 92 q 1016 302 981 218 q 1051 486 1051 386 q 1016 670 1051 586 q 917 817 981 754 q 767 915 853 881 q 581 950 681 950 q 394 915 481 950 q 244 817 308 881 q 145 670 181 754 q 110 486 110 586 q 145 302 110 386 q 244 155 181 218 q 394 57 308 92 q 581 22 481 22 z "},"Ṓ":{"ha":1161,"x_min":82,"x_max":1079,"o":"m 581 -4 q 383 33 474 -4 q 224 136 292 69 q 119 292 157 203 q 82 486 82 381 q 119 681 82 592 q 224 836 157 769 q 383 940 292 903 q 581 976 474 976 q 778 940 688 976 q 937 836 869 903 q 1042 681 1004 769 q 1079 486 1079 592 q 1042 292 1079 381 q 937 136 1004 203 q 778 33 869 69 q 581 -4 688 -4 m 581 22 q 767 57 681 22 q 917 155 853 92 q 1016 302 981 218 q 1051 486 1051 386 q 1016 670 1051 586 q 917 817 981 754 q 767 915 853 881 q 581 950 681 950 q 394 915 481 950 q 244 817 308 881 q 145 670 181 754 q 110 486 110 586 q 145 302 110 386 q 244 155 181 218 q 394 57 308 92 q 581 22 481 22 z "},"Ṑ":{"ha":1161,"x_min":82,"x_max":1079,"o":"m 581 -4 q 383 33 474 -4 q 224 136 292 69 q 119 292 157 203 q 82 486 82 381 q 119 681 82 592 q 224 836 157 769 q 383 940 292 903 q 581 976 474 976 q 778 940 688 976 q 937 836 869 903 q 1042 681 1004 769 q 1079 486 1079 592 q 1042 292 1079 381 q 937 136 1004 203 q 778 33 869 69 q 581 -4 688 -4 m 581 22 q 767 57 681 22 q 917 155 853 92 q 1016 302 981 218 q 1051 486 1051 386 q 1016 670 1051 586 q 917 817 981 754 q 767 915 853 881 q 581 950 681 950 q 394 915 481 950 q 244 817 308 881 q 145 670 181 754 q 110 486 110 586 q 145 302 110 386 q 244 155 181 218 q 394 57 308 92 q 581 22 481 22 z "},"Ǫ":{"ha":1161,"x_min":82,"x_max":1079,"o":"m 574 -296 q 483 -265 519 -296 q 447 -181 447 -235 q 463 -117 447 -151 q 519 -47 478 -83 q 638 22 561 -11 l 613 -1 q 597 -3 604 -3 q 581 -4 589 -4 q 383 33 474 -4 q 224 136 292 69 q 119 292 157 203 q 82 486 82 381 q 119 681 82 592 q 224 836 157 769 q 383 940 292 903 q 581 976 474 976 q 778 940 688 976 q 937 836 869 903 q 1042 681 1004 769 q 1079 486 1079 592 q 1026 258 1079 358 q 887 93 974 157 q 694 8 800 29 q 588 -31 638 -3 q 506 -97 538 -58 q 475 -181 475 -135 q 503 -247 475 -225 q 575 -269 532 -269 q 622 -261 599 -269 q 661 -237 644 -253 l 676 -258 q 628 -287 654 -278 q 574 -296 603 -296 m 581 22 q 767 57 681 22 q 917 155 853 92 q 1016 302 981 218 q 1051 486 1051 386 q 1016 670 1051 586 q 917 817 981 754 q 767 915 853 881 q 581 950 681 950 q 394 915 481 950 q 244 817 308 881 q 145 670 181 754 q 110 486 110 586 q 145 302 110 386 q 244 155 181 218 q 394 57 308 92 q 581 22 481 22 z "},"Ø":{"ha":1161,"x_min":82,"x_max":1079,"o":"m 581 -4 q 383 33 474 -4 q 224 136 292 69 q 119 292 157 203 q 82 486 82 381 q 119 681 82 592 q 224 836 157 769 q 383 940 292 903 q 581 976 474 976 q 778 940 688 976 q 937 836 869 903 q 1042 681 1004 769 q 1079 486 1079 592 q 1042 292 1079 381 q 937 136 1004 203 q 778 33 869 69 q 581 -4 688 -4 m 581 22 q 767 57 681 22 q 917 155 853 92 q 1016 302 981 218 q 1051 486 1051 386 q 1016 670 1051 586 q 917 817 981 754 q 767 915 853 881 q 581 950 681 950 q 394 915 481 950 q 244 817 308 881 q 145 670 181 754 q 110 486 110 586 q 145 302 110 386 q 244 155 181 218 q 394 57 308 92 q 581 22 481 22 m 138 -97 l 992 1069 l 1024 1069 l 169 -97 l 138 -97 z "},"Ǿ":{"ha":1161,"x_min":82,"x_max":1079,"o":"m 581 -4 q 383 33 474 -4 q 224 136 292 69 q 119 292 157 203 q 82 486 82 381 q 119 681 82 592 q 224 836 157 769 q 383 940 292 903 q 581 976 474 976 q 778 940 688 976 q 937 836 869 903 q 1042 681 1004 769 q 1079 486 1079 592 q 1042 292 1079 381 q 937 136 1004 203 q 778 33 869 69 q 581 -4 688 -4 m 581 22 q 767 57 681 22 q 917 155 853 92 q 1016 302 981 218 q 1051 486 1051 386 q 1016 670 1051 586 q 917 817 981 754 q 767 915 853 881 q 581 950 681 950 q 394 915 481 950 q 244 817 308 881 q 145 670 181 754 q 110 486 110 586 q 145 302 110 386 q 244 155 181 218 q 394 57 308 92 q 581 22 481 22 m 138 -97 l 992 1069 l 1024 1069 l 169 -97 l 138 -97 z "},"Õ":{"ha":1161,"x_min":82,"x_max":1079,"o":"m 581 -4 q 383 33 474 -4 q 224 136 292 69 q 119 292 157 203 q 82 486 82 381 q 119 681 82 592 q 224 836 157 769 q 383 940 292 903 q 581 976 474 976 q 778 940 688 976 q 937 836 869 903 q 1042 681 1004 769 q 1079 486 1079 592 q 1042 292 1079 381 q 937 136 1004 203 q 778 33 869 69 q 581 -4 688 -4 m 581 22 q 767 57 681 22 q 917 155 853 92 q 1016 302 981 218 q 1051 486 1051 386 q 1016 670 1051 586 q 917 817 981 754 q 767 915 853 881 q 581 950 681 950 q 394 915 481 950 q 244 817 308 881 q 145 670 181 754 q 110 486 110 586 q 145 302 110 386 q 244 155 181 218 q 394 57 308 92 q 581 22 481 22 z "},"Ṍ":{"ha":1161,"x_min":82,"x_max":1079,"o":"m 581 -4 q 383 33 474 -4 q 224 136 292 69 q 119 292 157 203 q 82 486 82 381 q 119 681 82 592 q 224 836 157 769 q 383 940 292 903 q 581 976 474 976 q 778 940 688 976 q 937 836 869 903 q 1042 681 1004 769 q 1079 486 1079 592 q 1042 292 1079 381 q 937 136 1004 203 q 778 33 869 69 q 581 -4 688 -4 m 581 22 q 767 57 681 22 q 917 155 853 92 q 1016 302 981 218 q 1051 486 1051 386 q 1016 670 1051 586 q 917 817 981 754 q 767 915 853 881 q 581 950 681 950 q 394 915 481 950 q 244 817 308 881 q 145 670 181 754 q 110 486 110 586 q 145 302 110 386 q 244 155 181 218 q 394 57 308 92 q 581 22 481 22 z "},"Ṏ":{"ha":1161,"x_min":82,"x_max":1079,"o":"m 581 -4 q 383 33 474 -4 q 224 136 292 69 q 119 292 157 203 q 82 486 82 381 q 119 681 82 592 q 224 836 157 769 q 383 940 292 903 q 581 976 474 976 q 778 940 688 976 q 937 836 869 903 q 1042 681 1004 769 q 1079 486 1079 592 q 1042 292 1079 381 q 937 136 1004 203 q 778 33 869 69 q 581 -4 688 -4 m 581 22 q 767 57 681 22 q 917 155 853 92 q 1016 302 981 218 q 1051 486 1051 386 q 1016 670 1051 586 q 917 817 981 754 q 767 915 853 881 q 581 950 681 950 q 394 915 481 950 q 244 817 308 881 q 145 670 181 754 q 110 486 110 586 q 145 302 110 386 q 244 155 181 218 q 394 57 308 92 q 581 22 481 22 z "},"Ȭ":{"ha":1161,"x_min":82,"x_max":1079,"o":"m 581 -4 q 383 33 474 -4 q 224 136 292 69 q 119 292 157 203 q 82 486 82 381 q 119 681 82 592 q 224 836 157 769 q 383 940 292 903 q 581 976 474 976 q 778 940 688 976 q 937 836 869 903 q 1042 681 1004 769 q 1079 486 1079 592 q 1042 292 1079 381 q 937 136 1004 203 q 778 33 869 69 q 581 -4 688 -4 m 581 22 q 767 57 681 22 q 917 155 853 92 q 1016 302 981 218 q 1051 486 1051 386 q 1016 670 1051 586 q 917 817 981 754 q 767 915 853 881 q 581 950 681 950 q 394 915 481 950 q 244 817 308 881 q 145 670 181 754 q 110 486 110 586 q 145 302 110 386 q 244 155 181 218 q 394 57 308 92 q 581 22 481 22 z "},"Œ":{"ha":1544,"x_min":82,"x_max":1449,"o":"m 594 0 q 326 63 442 0 q 147 235 211 125 q 82 485 82 344 q 147 735 82 625 q 326 909 211 846 q 594 972 442 972 l 810 972 l 810 946 l 594 946 q 340 886 449 946 q 170 722 231 826 q 110 485 110 618 q 170 248 110 351 q 340 85 231 144 q 594 26 449 26 l 810 26 l 810 0 l 594 0 m 822 507 l 1365 507 l 1365 481 l 822 481 l 822 507 m 829 26 l 1449 26 l 1449 0 l 801 0 l 801 972 l 1428 972 l 1428 946 l 829 946 l 829 26 z "},"P":{"ha":986,"x_min":185,"x_max":896,"o":"m 185 0 l 185 972 l 514 972 q 719 934 633 972 q 850 825 804 896 q 896 653 896 754 q 850 481 896 553 q 719 372 804 410 q 514 333 633 333 l 200 333 l 213 346 l 213 0 l 185 0 m 213 349 l 200 360 l 517 360 q 778 437 688 360 q 868 653 868 514 q 778 869 868 793 q 517 946 688 946 l 200 946 l 213 957 l 213 349 z "},"Þ":{"ha":986,"x_min":185,"x_max":896,"o":"m 200 193 l 200 219 l 517 219 q 778 297 688 219 q 868 514 868 374 q 778 731 868 654 q 517 807 688 807 l 200 807 l 200 833 l 514 833 q 719 795 633 833 q 850 686 804 757 q 896 514 896 615 q 850 341 896 413 q 719 231 804 269 q 514 193 633 193 l 200 193 m 185 0 l 185 972 l 213 972 l 213 0 l 185 0 z "},"Q":{"ha":1161,"x_min":82,"x_max":1121,"o":"m 581 -4 q 383 33 474 -4 q 224 136 292 69 q 119 292 157 203 q 82 486 82 381 q 119 681 82 592 q 224 836 157 769 q 383 940 292 903 q 581 976 474 976 q 778 940 688 976 q 937 836 869 903 q 1042 681 1004 769 q 1079 486 1079 592 q 1042 292 1079 381 q 937 136 1004 203 q 778 33 869 69 q 581 -4 688 -4 m 900 -172 q 826 -162 863 -172 q 752 -130 790 -151 q 674 -75 714 -108 q 590 4 635 -42 l 626 11 q 720 -76 674 -40 q 812 -128 767 -111 q 900 -146 857 -146 q 1101 -47 1019 -146 l 1121 -67 q 900 -172 1035 -172 m 581 22 q 767 58 681 22 q 917 156 853 93 q 1016 303 981 219 q 1051 486 1051 388 q 1016 669 1051 585 q 917 816 981 753 q 767 915 853 879 q 581 950 681 950 q 394 915 481 950 q 244 816 308 879 q 145 669 181 753 q 110 486 110 585 q 145 303 110 388 q 244 156 181 219 q 394 58 308 93 q 581 22 481 22 z "},"R":{"ha":994,"x_min":185,"x_max":910,"o":"m 185 0 l 185 972 l 514 972 q 719 934 633 972 q 850 825 804 896 q 896 653 896 754 q 850 481 896 553 q 719 372 804 410 q 514 333 633 333 l 200 333 l 213 346 l 213 0 l 185 0 m 875 0 l 621 353 l 656 353 l 910 0 l 875 0 m 213 349 l 200 360 l 517 360 q 778 437 688 360 q 868 653 868 514 q 778 869 868 793 q 517 946 688 946 l 200 946 l 213 957 l 213 349 z "},"Ŕ":{"ha":994,"x_min":185,"x_max":910,"o":"m 185 0 l 185 972 l 514 972 q 719 934 633 972 q 850 825 804 896 q 896 653 896 754 q 850 481 896 553 q 719 372 804 410 q 514 333 633 333 l 200 333 l 213 346 l 213 0 l 185 0 m 875 0 l 621 353 l 656 353 l 910 0 l 875 0 m 213 349 l 200 360 l 517 360 q 778 437 688 360 q 868 653 868 514 q 778 869 868 793 q 517 946 688 946 l 200 946 l 213 957 l 213 349 z "},"Ř":{"ha":994,"x_min":185,"x_max":910,"o":"m 185 0 l 185 972 l 514 972 q 719 934 633 972 q 850 825 804 896 q 896 653 896 754 q 850 481 896 553 q 719 372 804 410 q 514 333 633 333 l 200 333 l 213 346 l 213 0 l 185 0 m 875 0 l 621 353 l 656 353 l 910 0 l 875 0 m 213 349 l 200 360 l 517 360 q 778 437 688 360 q 868 653 868 514 q 778 869 868 793 q 517 946 688 946 l 200 946 l 213 957 l 213 349 z "},"Ŗ":{"ha":994,"x_min":185,"x_max":910,"o":"m 185 0 l 185 972 l 514 972 q 719 934 633 972 q 850 825 804 896 q 896 653 896 754 q 850 481 896 553 q 719 372 804 410 q 514 333 633 333 l 200 333 l 213 346 l 213 0 l 185 0 m 875 0 l 621 353 l 656 353 l 910 0 l 875 0 m 213 349 l 200 360 l 517 360 q 778 437 688 360 q 868 653 868 514 q 778 869 868 793 q 517 946 688 946 l 200 946 l 213 957 l 213 349 m 479 -360 l 507 -229 l 508 -244 q 483 -233 494 -244 q 472 -208 472 -222 q 483 -183 472 -193 q 508 -172 493 -172 q 535 -184 525 -172 q 544 -208 544 -196 q 542 -231 544 -219 q 536 -253 539 -242 l 504 -360 l 479 -360 z "},"Ȑ":{"ha":994,"x_min":185,"x_max":910,"o":"m 185 0 l 185 972 l 514 972 q 719 934 633 972 q 850 825 804 896 q 896 653 896 754 q 850 481 896 553 q 719 372 804 410 q 514 333 633 333 l 200 333 l 213 346 l 213 0 l 185 0 m 875 0 l 621 353 l 656 353 l 910 0 l 875 0 m 213 349 l 200 360 l 517 360 q 778 437 688 360 q 868 653 868 514 q 778 869 868 793 q 517 946 688 946 l 200 946 l 213 957 l 213 349 z "},"Ṛ":{"ha":994,"x_min":185,"x_max":910,"o":"m 185 0 l 185 972 l 514 972 q 719 934 633 972 q 850 825 804 896 q 896 653 896 754 q 850 481 896 553 q 719 372 804 410 q 514 333 633 333 l 200 333 l 213 346 l 213 0 l 185 0 m 875 0 l 621 353 l 656 353 l 910 0 l 875 0 m 213 349 l 200 360 l 517 360 q 778 437 688 360 q 868 653 868 514 q 778 869 868 793 q 517 946 688 946 l 200 946 l 213 957 l 213 349 m 508 -244 q 483 -233 494 -244 q 472 -208 472 -222 q 483 -183 472 -193 q 508 -172 494 -172 q 534 -183 524 -172 q 544 -208 544 -193 q 534 -233 544 -222 q 508 -244 524 -244 z "},"Ȓ":{"ha":994,"x_min":185,"x_max":910,"o":"m 185 0 l 185 972 l 514 972 q 719 934 633 972 q 850 825 804 896 q 896 653 896 754 q 850 481 896 553 q 719 372 804 410 q 514 333 633 333 l 200 333 l 213 346 l 213 0 l 185 0 m 875 0 l 621 353 l 656 353 l 910 0 l 875 0 m 213 349 l 200 360 l 517 360 q 778 437 688 360 q 868 653 868 514 q 778 869 868 793 q 517 946 688 946 l 200 946 l 213 957 l 213 349 z "},"Ṟ":{"ha":994,"x_min":185,"x_max":910,"o":"m 185 0 l 185 972 l 514 972 q 719 934 633 972 q 850 825 804 896 q 896 653 896 754 q 850 481 896 553 q 719 372 804 410 q 514 333 633 333 l 200 333 l 213 346 l 213 0 l 185 0 m 875 0 l 621 353 l 656 353 l 910 0 l 875 0 m 213 349 l 200 360 l 517 360 q 778 437 688 360 q 868 653 868 514 q 778 869 868 793 q 517 946 688 946 l 200 946 l 213 957 l 213 349 m 319 -222 l 319 -194 l 697 -194 l 697 -222 l 319 -222 z "},"S":{"ha":835,"x_min":81,"x_max":754,"o":"m 422 -4 q 223 35 317 -4 q 81 133 129 74 l 100 151 q 233 60 146 97 q 421 22 319 22 q 594 51 526 22 q 694 130 661 81 q 726 239 726 179 q 693 351 726 308 q 604 417 660 393 q 483 458 549 442 q 352 490 418 474 q 231 534 286 507 q 142 608 175 561 q 108 732 108 656 q 142 851 108 796 q 248 942 176 907 q 433 976 319 976 q 587 952 511 976 q 715 888 663 928 l 700 865 q 571 929 642 908 q 435 950 500 950 q 267 920 333 950 q 168 841 200 890 q 136 731 136 792 q 169 617 136 660 q 258 551 203 575 q 380 510 314 526 q 511 477 446 494 q 632 433 576 460 q 721 360 688 406 q 754 239 754 314 q 719 119 754 175 q 611 30 685 64 q 422 -4 538 -4 z "},"Ś":{"ha":835,"x_min":81,"x_max":754,"o":"m 422 -4 q 223 35 317 -4 q 81 133 129 74 l 100 151 q 233 60 146 97 q 421 22 319 22 q 594 51 526 22 q 694 130 661 81 q 726 239 726 179 q 693 351 726 308 q 604 417 660 393 q 483 458 549 442 q 352 490 418 474 q 231 534 286 507 q 142 608 175 561 q 108 732 108 656 q 142 851 108 796 q 248 942 176 907 q 433 976 319 976 q 587 952 511 976 q 715 888 663 928 l 700 865 q 571 929 642 908 q 435 950 500 950 q 267 920 333 950 q 168 841 200 890 q 136 731 136 792 q 169 617 136 660 q 258 551 203 575 q 380 510 314 526 q 511 477 446 494 q 632 433 576 460 q 721 360 688 406 q 754 239 754 314 q 719 119 754 175 q 611 30 685 64 q 422 -4 538 -4 z "},"Ṥ":{"ha":835,"x_min":81,"x_max":754,"o":"m 422 -4 q 223 35 317 -4 q 81 133 129 74 l 100 151 q 233 60 146 97 q 421 22 319 22 q 594 51 526 22 q 694 130 661 81 q 726 239 726 179 q 693 351 726 308 q 604 417 660 393 q 483 458 549 442 q 352 490 418 474 q 231 534 286 507 q 142 608 175 561 q 108 732 108 656 q 142 851 108 796 q 248 942 176 907 q 433 976 319 976 q 587 952 511 976 q 715 888 663 928 l 700 865 q 571 929 642 908 q 435 950 500 950 q 267 920 333 950 q 168 841 200 890 q 136 731 136 792 q 169 617 136 660 q 258 551 203 575 q 380 510 314 526 q 511 477 446 494 q 632 433 576 460 q 721 360 688 406 q 754 239 754 314 q 719 119 754 175 q 611 30 685 64 q 422 -4 538 -4 z "},"Ꞌ":{"ha":289,"x_min":131,"x_max":158,"o":"m 131 415 l 131 972 l 158 972 l 158 415 l 131 415 z "},"Š":{"ha":835,"x_min":81,"x_max":754,"o":"m 422 -4 q 223 35 317 -4 q 81 133 129 74 l 100 151 q 233 60 146 97 q 421 22 319 22 q 594 51 526 22 q 694 130 661 81 q 726 239 726 179 q 693 351 726 308 q 604 417 660 393 q 483 458 549 442 q 352 490 418 474 q 231 534 286 507 q 142 608 175 561 q 108 732 108 656 q 142 851 108 796 q 248 942 176 907 q 433 976 319 976 q 587 952 511 976 q 715 888 663 928 l 700 865 q 571 929 642 908 q 435 950 500 950 q 267 920 333 950 q 168 841 200 890 q 136 731 136 792 q 169 617 136 660 q 258 551 203 575 q 380 510 314 526 q 511 477 446 494 q 632 433 576 460 q 721 360 688 406 q 754 239 754 314 q 719 119 754 175 q 611 30 685 64 q 422 -4 538 -4 z "},"Ṧ":{"ha":835,"x_min":81,"x_max":754,"o":"m 422 -4 q 223 35 317 -4 q 81 133 129 74 l 100 151 q 233 60 146 97 q 421 22 319 22 q 594 51 526 22 q 694 130 661 81 q 726 239 726 179 q 693 351 726 308 q 604 417 660 393 q 483 458 549 442 q 352 490 418 474 q 231 534 286 507 q 142 608 175 561 q 108 732 108 656 q 142 851 108 796 q 248 942 176 907 q 433 976 319 976 q 587 952 511 976 q 715 888 663 928 l 700 865 q 571 929 642 908 q 435 950 500 950 q 267 920 333 950 q 168 841 200 890 q 136 731 136 792 q 169 617 136 660 q 258 551 203 575 q 380 510 314 526 q 511 477 446 494 q 632 433 576 460 q 721 360 688 406 q 754 239 754 314 q 719 119 754 175 q 611 30 685 64 q 422 -4 538 -4 z "},"Ş":{"ha":835,"x_min":81,"x_max":754,"o":"m 422 -4 q 223 35 317 -4 q 81 133 129 74 l 100 151 q 233 60 146 97 q 421 22 319 22 q 594 51 526 22 q 694 130 661 81 q 726 239 726 179 q 693 351 726 308 q 604 417 660 393 q 483 458 549 442 q 352 490 418 474 q 231 534 286 507 q 142 608 175 561 q 108 732 108 656 q 142 851 108 796 q 248 942 176 907 q 433 976 319 976 q 587 952 511 976 q 715 888 663 928 l 700 865 q 571 929 642 908 q 435 950 500 950 q 267 920 333 950 q 168 841 200 890 q 136 731 136 792 q 169 617 136 660 q 258 551 203 575 q 380 510 314 526 q 511 477 446 494 q 632 433 576 460 q 721 360 688 406 q 754 239 754 314 q 719 119 754 175 q 611 30 685 64 q 422 -4 538 -4 m 419 -296 q 365 -287 390 -296 q 317 -258 340 -278 l 332 -237 q 372 -261 349 -253 q 418 -269 394 -269 q 490 -248 461 -269 q 518 -186 518 -226 q 492 -126 518 -150 q 419 -103 467 -103 l 397 -103 l 428 7 l 454 7 l 431 -78 q 515 -110 483 -81 q 546 -186 546 -139 q 510 -266 546 -236 q 419 -296 474 -296 z "},"Ŝ":{"ha":835,"x_min":81,"x_max":754,"o":"m 422 -4 q 223 35 317 -4 q 81 133 129 74 l 100 151 q 233 60 146 97 q 421 22 319 22 q 594 51 526 22 q 694 130 661 81 q 726 239 726 179 q 693 351 726 308 q 604 417 660 393 q 483 458 549 442 q 352 490 418 474 q 231 534 286 507 q 142 608 175 561 q 108 732 108 656 q 142 851 108 796 q 248 942 176 907 q 433 976 319 976 q 587 952 511 976 q 715 888 663 928 l 700 865 q 571 929 642 908 q 435 950 500 950 q 267 920 333 950 q 168 841 200 890 q 136 731 136 792 q 169 617 136 660 q 258 551 203 575 q 380 510 314 526 q 511 477 446 494 q 632 433 576 460 q 721 360 688 406 q 754 239 754 314 q 719 119 754 175 q 611 30 685 64 q 422 -4 538 -4 z "},"Ș":{"ha":835,"x_min":81,"x_max":754,"o":"m 422 -4 q 223 35 317 -4 q 81 133 129 74 l 100 151 q 233 60 146 97 q 421 22 319 22 q 594 51 526 22 q 694 130 661 81 q 726 239 726 179 q 693 351 726 308 q 604 417 660 393 q 483 458 549 442 q 352 490 418 474 q 231 534 286 507 q 142 608 175 561 q 108 732 108 656 q 142 851 108 796 q 248 942 176 907 q 433 976 319 976 q 587 952 511 976 q 715 888 663 928 l 700 865 q 571 929 642 908 q 435 950 500 950 q 267 920 333 950 q 168 841 200 890 q 136 731 136 792 q 169 617 136 660 q 258 551 203 575 q 380 510 314 526 q 511 477 446 494 q 632 433 576 460 q 721 360 688 406 q 754 239 754 314 q 719 119 754 175 q 611 30 685 64 q 422 -4 538 -4 m 413 -360 l 440 -229 l 442 -244 q 417 -233 428 -244 q 406 -208 406 -222 q 416 -183 406 -193 q 442 -172 426 -172 q 468 -184 458 -172 q 478 -208 478 -196 q 475 -231 478 -219 q 469 -253 472 -242 l 438 -360 l 413 -360 z "},"Ṡ":{"ha":835,"x_min":81,"x_max":754,"o":"m 422 -4 q 223 35 317 -4 q 81 133 129 74 l 100 151 q 233 60 146 97 q 421 22 319 22 q 594 51 526 22 q 694 130 661 81 q 726 239 726 179 q 693 351 726 308 q 604 417 660 393 q 483 458 549 442 q 352 490 418 474 q 231 534 286 507 q 142 608 175 561 q 108 732 108 656 q 142 851 108 796 q 248 942 176 907 q 433 976 319 976 q 587 952 511 976 q 715 888 663 928 l 700 865 q 571 929 642 908 q 435 950 500 950 q 267 920 333 950 q 168 841 200 890 q 136 731 136 792 q 169 617 136 660 q 258 551 203 575 q 380 510 314 526 q 511 477 446 494 q 632 433 576 460 q 721 360 688 406 q 754 239 754 314 q 719 119 754 175 q 611 30 685 64 q 422 -4 538 -4 z "},"Ṣ":{"ha":835,"x_min":81,"x_max":754,"o":"m 422 -4 q 223 35 317 -4 q 81 133 129 74 l 100 151 q 233 60 146 97 q 421 22 319 22 q 594 51 526 22 q 694 130 661 81 q 726 239 726 179 q 693 351 726 308 q 604 417 660 393 q 483 458 549 442 q 352 490 418 474 q 231 534 286 507 q 142 608 175 561 q 108 732 108 656 q 142 851 108 796 q 248 942 176 907 q 433 976 319 976 q 587 952 511 976 q 715 888 663 928 l 700 865 q 571 929 642 908 q 435 950 500 950 q 267 920 333 950 q 168 841 200 890 q 136 731 136 792 q 169 617 136 660 q 258 551 203 575 q 380 510 314 526 q 511 477 446 494 q 632 433 576 460 q 721 360 688 406 q 754 239 754 314 q 719 119 754 175 q 611 30 685 64 q 422 -4 538 -4 m 442 -244 q 417 -233 428 -244 q 406 -208 406 -222 q 417 -183 406 -193 q 442 -172 428 -172 q 467 -183 457 -172 q 478 -208 478 -193 q 467 -233 478 -222 q 442 -244 457 -244 z "},"Ṩ":{"ha":835,"x_min":81,"x_max":754,"o":"m 422 -4 q 223 35 317 -4 q 81 133 129 74 l 100 151 q 233 60 146 97 q 421 22 319 22 q 594 51 526 22 q 694 130 661 81 q 726 239 726 179 q 693 351 726 308 q 604 417 660 393 q 483 458 549 442 q 352 490 418 474 q 231 534 286 507 q 142 608 175 561 q 108 732 108 656 q 142 851 108 796 q 248 942 176 907 q 433 976 319 976 q 587 952 511 976 q 715 888 663 928 l 700 865 q 571 929 642 908 q 435 950 500 950 q 267 920 333 950 q 168 841 200 890 q 136 731 136 792 q 169 617 136 660 q 258 551 203 575 q 380 510 314 526 q 511 477 446 494 q 632 433 576 460 q 721 360 688 406 q 754 239 754 314 q 719 119 754 175 q 611 30 685 64 q 422 -4 538 -4 m 442 -244 q 417 -233 428 -244 q 406 -208 406 -222 q 417 -183 406 -193 q 442 -172 428 -172 q 467 -183 457 -172 q 478 -208 478 -193 q 467 -233 478 -222 q 442 -244 457 -244 z "},"ẞ":{"ha":1031,"x_min":176,"x_max":940,"o":"m 628 -4 q 531 6 575 -4 q 443 35 488 15 l 454 61 q 540 32 494 42 q 636 22 585 22 q 837 85 761 22 q 913 268 913 147 q 835 451 913 390 q 631 513 758 513 q 565 508 597 513 q 504 496 532 504 l 494 518 l 842 875 l 838 858 q 711 928 783 907 q 561 950 639 950 q 296 856 388 950 q 204 586 204 763 l 204 0 l 176 0 l 176 589 q 222 797 176 710 q 352 930 267 883 q 558 976 438 976 q 669 965 615 976 q 769 933 722 954 q 856 876 817 911 l 856 854 l 521 510 l 519 524 q 573 535 544 532 q 631 539 601 539 q 793 508 724 539 q 901 417 863 478 q 940 268 940 357 q 902 119 940 179 q 794 27 864 58 q 628 -4 724 -4 z "},"Ə":{"ha":1133,"x_min":82,"x_max":1051,"o":"m 567 -4 q 374 33 463 -4 q 219 136 285 69 q 118 292 154 203 q 82 486 82 381 l 82 500 l 1031 500 l 1031 474 l 99 474 l 110 486 q 144 303 110 388 q 240 156 178 219 q 385 58 301 93 q 567 22 468 22 q 742 58 660 22 q 888 156 825 93 q 988 303 951 219 q 1024 485 1024 388 l 1024 488 q 988 670 1024 586 q 888 817 953 754 q 738 915 824 879 q 553 950 653 950 q 437 939 493 950 q 330 903 381 928 q 232 838 279 878 l 217 858 q 314 924 261 899 q 427 963 367 950 q 553 976 488 976 q 751 940 660 976 q 909 837 842 903 q 1014 681 976 771 q 1051 488 1051 592 q 1014 297 1051 386 q 910 140 976 208 q 756 34 843 72 q 567 -4 668 -4 z "},"T":{"ha":761,"x_min":6,"x_max":756,"o":"m 367 0 l 367 946 l 6 946 l 6 972 l 756 972 l 756 946 l 394 946 l 394 0 l 367 0 z "},"Ŧ":{"ha":761,"x_min":6,"x_max":756,"o":"m 367 0 l 367 946 l 6 946 l 6 972 l 756 972 l 756 946 l 394 946 l 394 0 l 367 0 m 131 481 l 131 507 l 631 507 l 631 481 l 131 481 z "},"Ť":{"ha":761,"x_min":6,"x_max":756,"o":"m 367 0 l 367 946 l 6 946 l 6 972 l 756 972 l 756 946 l 394 946 l 394 0 l 367 0 z "},"Ţ":{"ha":761,"x_min":6,"x_max":756,"o":"m 367 0 l 367 946 l 6 946 l 6 972 l 756 972 l 756 946 l 394 946 l 394 0 l 367 0 m 358 -296 q 304 -287 329 -296 q 256 -258 279 -278 l 271 -237 q 310 -261 288 -253 q 357 -269 333 -269 q 428 -248 400 -269 q 457 -186 457 -226 q 431 -126 457 -150 q 358 -103 406 -103 l 336 -103 l 367 7 l 393 7 l 369 -78 q 453 -110 422 -81 q 485 -186 485 -139 q 449 -266 485 -236 q 358 -296 413 -296 z "},"Ț":{"ha":761,"x_min":6,"x_max":756,"o":"m 367 0 l 367 946 l 6 946 l 6 972 l 756 972 l 756 946 l 394 946 l 394 0 l 367 0 m 351 -360 l 379 -229 l 381 -244 q 356 -233 367 -244 q 344 -208 344 -222 q 355 -183 344 -193 q 381 -172 365 -172 q 407 -184 397 -172 q 417 -208 417 -196 q 414 -231 417 -219 q 408 -253 411 -242 l 376 -360 l 351 -360 z "},"Ṭ":{"ha":761,"x_min":6,"x_max":756,"o":"m 367 0 l 367 946 l 6 946 l 6 972 l 756 972 l 756 946 l 394 946 l 394 0 l 367 0 m 381 -244 q 356 -233 367 -244 q 344 -208 344 -222 q 356 -183 344 -193 q 381 -172 367 -172 q 406 -183 396 -172 q 417 -208 417 -193 q 406 -233 417 -222 q 381 -244 396 -244 z "},"Ṯ":{"ha":761,"x_min":6,"x_max":756,"o":"m 367 0 l 367 946 l 6 946 l 6 972 l 756 972 l 756 946 l 394 946 l 394 0 l 367 0 m 192 -222 l 192 -194 l 569 -194 l 569 -222 l 192 -222 z "},"U":{"ha":1103,"x_min":176,"x_max":926,"o":"m 551 -4 q 277 99 378 -4 q 176 407 176 201 l 176 972 l 204 972 l 204 408 q 295 118 204 214 q 551 22 386 22 q 808 118 717 22 q 899 408 899 214 l 899 972 l 926 972 l 926 407 q 826 99 926 201 q 551 -4 725 -4 z "},"Ú":{"ha":1103,"x_min":176,"x_max":926,"o":"m 551 -4 q 277 99 378 -4 q 176 407 176 201 l 176 972 l 204 972 l 204 408 q 295 118 204 214 q 551 22 386 22 q 808 118 717 22 q 899 408 899 214 l 899 972 l 926 972 l 926 407 q 826 99 926 201 q 551 -4 725 -4 z "},"Ŭ":{"ha":1103,"x_min":176,"x_max":926,"o":"m 551 -4 q 277 99 378 -4 q 176 407 176 201 l 176 972 l 204 972 l 204 408 q 295 118 204 214 q 551 22 386 22 q 808 118 717 22 q 899 408 899 214 l 899 972 l 926 972 l 926 407 q 826 99 926 201 q 551 -4 725 -4 z "},"Ǔ":{"ha":1103,"x_min":176,"x_max":926,"o":"m 551 -4 q 277 99 378 -4 q 176 407 176 201 l 176 972 l 204 972 l 204 408 q 295 118 204 214 q 551 22 386 22 q 808 118 717 22 q 899 408 899 214 l 899 972 l 926 972 l 926 407 q 826 99 926 201 q 551 -4 725 -4 z "},"Û":{"ha":1103,"x_min":176,"x_max":926,"o":"m 551 -4 q 277 99 378 -4 q 176 407 176 201 l 176 972 l 204 972 l 204 408 q 295 118 204 214 q 551 22 386 22 q 808 118 717 22 q 899 408 899 214 l 899 972 l 926 972 l 926 407 q 826 99 926 201 q 551 -4 725 -4 z "},"Ȕ":{"ha":1103,"x_min":176,"x_max":926,"o":"m 551 -4 q 277 99 378 -4 q 176 407 176 201 l 176 972 l 204 972 l 204 408 q 295 118 204 214 q 551 22 386 22 q 808 118 717 22 q 899 408 899 214 l 899 972 l 926 972 l 926 407 q 826 99 926 201 q 551 -4 725 -4 z "},"Ü":{"ha":1103,"x_min":176,"x_max":926,"o":"m 551 -4 q 277 99 378 -4 q 176 407 176 201 l 176 972 l 204 972 l 204 408 q 295 118 204 214 q 551 22 386 22 q 808 118 717 22 q 899 408 899 214 l 899 972 l 926 972 l 926 407 q 826 99 926 201 q 551 -4 725 -4 z "},"Ụ":{"ha":1103,"x_min":176,"x_max":926,"o":"m 551 -4 q 277 99 378 -4 q 176 407 176 201 l 176 972 l 204 972 l 204 408 q 295 118 204 214 q 551 22 386 22 q 808 118 717 22 q 899 408 899 214 l 899 972 l 926 972 l 926 407 q 826 99 926 201 q 551 -4 725 -4 m 551 -244 q 526 -233 538 -244 q 515 -208 515 -222 q 526 -183 515 -193 q 551 -172 538 -172 q 577 -183 567 -172 q 588 -208 588 -193 q 577 -233 588 -222 q 551 -244 567 -244 z "},"Ù":{"ha":1103,"x_min":176,"x_max":926,"o":"m 551 -4 q 277 99 378 -4 q 176 407 176 201 l 176 972 l 204 972 l 204 408 q 295 118 204 214 q 551 22 386 22 q 808 118 717 22 q 899 408 899 214 l 899 972 l 926 972 l 926 407 q 826 99 926 201 q 551 -4 725 -4 z "},"Ủ":{"ha":1103,"x_min":176,"x_max":926,"o":"m 551 -4 q 277 99 378 -4 q 176 407 176 201 l 176 972 l 204 972 l 204 408 q 295 118 204 214 q 551 22 386 22 q 808 118 717 22 q 899 408 899 214 l 899 972 l 926 972 l 926 407 q 826 99 926 201 q 551 -4 725 -4 z "},"Ư":{"ha":1103,"x_min":176,"x_max":1058,"o":"m 551 -4 q 277 99 378 -4 q 176 407 176 201 l 176 972 l 204 972 l 204 408 q 295 118 204 214 q 551 22 386 22 q 808 118 717 22 q 899 408 899 214 l 899 972 l 926 972 l 926 407 q 826 99 926 201 q 551 -4 725 -4 m 919 946 l 919 972 l 933 972 q 1009 1001 988 972 q 1031 1069 1031 1031 q 1022 1120 1031 1097 q 1003 1163 1014 1143 l 1028 1174 q 1050 1126 1042 1153 q 1058 1071 1058 1099 q 1030 983 1058 1019 q 933 946 1001 946 l 919 946 z "},"Ứ":{"ha":1103,"x_min":176,"x_max":1058,"o":"m 551 -4 q 277 99 378 -4 q 176 407 176 201 l 176 972 l 204 972 l 204 408 q 295 118 204 214 q 551 22 386 22 q 808 118 717 22 q 899 408 899 214 l 899 972 l 926 972 l 926 407 q 826 99 926 201 q 551 -4 725 -4 m 919 946 l 919 972 l 933 972 q 1009 1001 988 972 q 1031 1069 1031 1031 q 1022 1120 1031 1097 q 1003 1163 1014 1143 l 1028 1174 q 1050 1126 1042 1153 q 1058 1071 1058 1099 q 1030 983 1058 1019 q 933 946 1001 946 l 919 946 z "},"Ự":{"ha":1103,"x_min":176,"x_max":1058,"o":"m 551 -4 q 277 99 378 -4 q 176 407 176 201 l 176 972 l 204 972 l 204 408 q 295 118 204 214 q 551 22 386 22 q 808 118 717 22 q 899 408 899 214 l 899 972 l 926 972 l 926 407 q 826 99 926 201 q 551 -4 725 -4 m 919 946 l 919 972 l 933 972 q 1009 1001 988 972 q 1031 1069 1031 1031 q 1022 1120 1031 1097 q 1003 1163 1014 1143 l 1028 1174 q 1050 1126 1042 1153 q 1058 1071 1058 1099 q 1030 983 1058 1019 q 933 946 1001 946 l 919 946 m 551 -244 q 526 -233 538 -244 q 515 -208 515 -222 q 526 -183 515 -193 q 551 -172 538 -172 q 577 -183 567 -172 q 588 -208 588 -193 q 577 -233 588 -222 q 551 -244 567 -244 z "},"Ừ":{"ha":1103,"x_min":176,"x_max":1058,"o":"m 551 -4 q 277 99 378 -4 q 176 407 176 201 l 176 972 l 204 972 l 204 408 q 295 118 204 214 q 551 22 386 22 q 808 118 717 22 q 899 408 899 214 l 899 972 l 926 972 l 926 407 q 826 99 926 201 q 551 -4 725 -4 m 919 946 l 919 972 l 933 972 q 1009 1001 988 972 q 1031 1069 1031 1031 q 1022 1120 1031 1097 q 1003 1163 1014 1143 l 1028 1174 q 1050 1126 1042 1153 q 1058 1071 1058 1099 q 1030 983 1058 1019 q 933 946 1001 946 l 919 946 z "},"Ử":{"ha":1103,"x_min":176,"x_max":1058,"o":"m 551 -4 q 277 99 378 -4 q 176 407 176 201 l 176 972 l 204 972 l 204 408 q 295 118 204 214 q 551 22 386 22 q 808 118 717 22 q 899 408 899 214 l 899 972 l 926 972 l 926 407 q 826 99 926 201 q 551 -4 725 -4 m 919 946 l 919 972 l 933 972 q 1009 1001 988 972 q 1031 1069 1031 1031 q 1022 1120 1031 1097 q 1003 1163 1014 1143 l 1028 1174 q 1050 1126 1042 1153 q 1058 1071 1058 1099 q 1030 983 1058 1019 q 933 946 1001 946 l 919 946 z "},"Ữ":{"ha":1103,"x_min":176,"x_max":1058,"o":"m 551 -4 q 277 99 378 -4 q 176 407 176 201 l 176 972 l 204 972 l 204 408 q 295 118 204 214 q 551 22 386 22 q 808 118 717 22 q 899 408 899 214 l 899 972 l 926 972 l 926 407 q 826 99 926 201 q 551 -4 725 -4 m 919 946 l 919 972 l 933 972 q 1009 1001 988 972 q 1031 1069 1031 1031 q 1022 1120 1031 1097 q 1003 1163 1014 1143 l 1028 1174 q 1050 1126 1042 1153 q 1058 1071 1058 1099 q 1030 983 1058 1019 q 933 946 1001 946 l 919 946 z "},"Ű":{"ha":1103,"x_min":176,"x_max":926,"o":"m 551 -4 q 277 99 378 -4 q 176 407 176 201 l 176 972 l 204 972 l 204 408 q 295 118 204 214 q 551 22 386 22 q 808 118 717 22 q 899 408 899 214 l 899 972 l 926 972 l 926 407 q 826 99 926 201 q 551 -4 725 -4 z "},"Ȗ":{"ha":1103,"x_min":176,"x_max":926,"o":"m 551 -4 q 277 99 378 -4 q 176 407 176 201 l 176 972 l 204 972 l 204 408 q 295 118 204 214 q 551 22 386 22 q 808 118 717 22 q 899 408 899 214 l 899 972 l 926 972 l 926 407 q 826 99 926 201 q 551 -4 725 -4 z "},"Ū":{"ha":1103,"x_min":176,"x_max":926,"o":"m 551 -4 q 277 99 378 -4 q 176 407 176 201 l 176 972 l 204 972 l 204 408 q 295 118 204 214 q 551 22 386 22 q 808 118 717 22 q 899 408 899 214 l 899 972 l 926 972 l 926 407 q 826 99 926 201 q 551 -4 725 -4 z "},"Ṻ":{"ha":1103,"x_min":176,"x_max":926,"o":"m 551 -4 q 277 99 378 -4 q 176 407 176 201 l 176 972 l 204 972 l 204 408 q 295 118 204 214 q 551 22 386 22 q 808 118 717 22 q 899 408 899 214 l 899 972 l 926 972 l 926 407 q 826 99 926 201 q 551 -4 725 -4 z "},"Ų":{"ha":1103,"x_min":176,"x_max":926,"o":"m 899 972 l 926 972 l 926 407 q 862 144 926 239 q 681 11 797 49 q 541 -54 588 -19 q 479 -122 494 -89 q 464 -181 464 -154 q 492 -247 464 -225 q 564 -269 521 -269 q 610 -261 588 -269 q 650 -237 633 -253 l 665 -258 q 617 -287 643 -278 q 563 -296 592 -296 q 472 -265 508 -296 q 436 -181 436 -235 q 451 -117 436 -151 q 506 -47 465 -83 q 626 19 547 -11 l 604 -1 q 578 -3 592 -3 q 551 -4 564 -4 q 277 99 378 -4 q 176 407 176 201 l 176 972 l 204 972 l 204 408 q 295 118 204 214 q 551 22 386 22 q 808 118 717 22 q 899 408 899 214 l 899 972 z "},"Ů":{"ha":1103,"x_min":176,"x_max":926,"o":"m 551 -4 q 277 99 378 -4 q 176 407 176 201 l 176 972 l 204 972 l 204 408 q 295 118 204 214 q 551 22 386 22 q 808 118 717 22 q 899 408 899 214 l 899 972 l 926 972 l 926 407 q 826 99 926 201 q 551 -4 725 -4 m 550 1083 q 484 1101 513 1083 q 439 1147 456 1118 q 422 1208 422 1175 q 439 1272 422 1243 q 485 1319 456 1301 q 550 1338 514 1338 q 617 1319 588 1338 q 663 1272 646 1301 q 679 1208 679 1243 q 663 1147 679 1175 q 617 1101 646 1118 q 550 1083 588 1083 m 550 1110 q 623 1139 594 1110 q 651 1208 651 1168 q 623 1281 651 1250 q 550 1311 594 1311 q 478 1281 507 1311 q 450 1208 450 1251 q 478 1138 450 1167 q 550 1110 506 1110 z "},"Ũ":{"ha":1103,"x_min":176,"x_max":926,"o":"m 551 -4 q 277 99 378 -4 q 176 407 176 201 l 176 972 l 204 972 l 204 408 q 295 118 204 214 q 551 22 386 22 q 808 118 717 22 q 899 408 899 214 l 899 972 l 926 972 l 926 407 q 826 99 926 201 q 551 -4 725 -4 z "},"Ṹ":{"ha":1103,"x_min":176,"x_max":926,"o":"m 551 -4 q 277 99 378 -4 q 176 407 176 201 l 176 972 l 204 972 l 204 408 q 295 118 204 214 q 551 22 386 22 q 808 118 717 22 q 899 408 899 214 l 899 972 l 926 972 l 926 407 q 826 99 926 201 q 551 -4 725 -4 z "},"V":{"ha":931,"x_min":14,"x_max":917,"o":"m 451 0 l 14 972 l 46 972 l 472 22 l 458 22 l 885 972 l 917 972 l 479 0 l 451 0 z "},"W":{"ha":1500,"x_min":63,"x_max":1438,"o":"m 396 0 l 63 972 l 93 972 l 418 22 l 403 22 l 736 972 l 764 972 l 1097 22 l 1083 22 l 1408 972 l 1438 972 l 1104 0 l 1076 0 l 747 942 l 753 942 l 424 0 l 396 0 z "},"Ẃ":{"ha":1500,"x_min":63,"x_max":1438,"o":"m 396 0 l 63 972 l 93 972 l 418 22 l 403 22 l 736 972 l 764 972 l 1097 22 l 1083 22 l 1408 972 l 1438 972 l 1104 0 l 1076 0 l 747 942 l 753 942 l 424 0 l 396 0 z "},"Ŵ":{"ha":1500,"x_min":63,"x_max":1438,"o":"m 396 0 l 63 972 l 93 972 l 418 22 l 403 22 l 736 972 l 764 972 l 1097 22 l 1083 22 l 1408 972 l 1438 972 l 1104 0 l 1076 0 l 747 942 l 753 942 l 424 0 l 396 0 z "},"Ẅ":{"ha":1500,"x_min":63,"x_max":1438,"o":"m 396 0 l 63 972 l 93 972 l 418 22 l 403 22 l 736 972 l 764 972 l 1097 22 l 1083 22 l 1408 972 l 1438 972 l 1104 0 l 1076 0 l 747 942 l 753 942 l 424 0 l 396 0 z "},"Ẁ":{"ha":1500,"x_min":63,"x_max":1438,"o":"m 396 0 l 63 972 l 93 972 l 418 22 l 403 22 l 736 972 l 764 972 l 1097 22 l 1083 22 l 1408 972 l 1438 972 l 1104 0 l 1076 0 l 747 942 l 753 942 l 424 0 l 396 0 z "},"X":{"ha":863,"x_min":35,"x_max":828,"o":"m 35 0 l 422 514 l 422 492 l 63 972 l 97 972 l 436 518 l 428 518 l 767 972 l 800 972 l 444 497 l 444 508 l 828 0 l 793 0 l 426 488 l 435 488 l 68 0 l 35 0 z "},"Y":{"ha":847,"x_min":14,"x_max":833,"o":"m 410 0 l 410 340 l 417 319 l 14 972 l 46 972 l 429 351 l 418 351 l 801 972 l 833 972 l 431 319 l 438 340 l 438 0 l 410 0 z "},"Ý":{"ha":847,"x_min":14,"x_max":833,"o":"m 410 0 l 410 340 l 417 319 l 14 972 l 46 972 l 429 351 l 418 351 l 801 972 l 833 972 l 431 319 l 438 340 l 438 0 l 410 0 z "},"Ŷ":{"ha":847,"x_min":14,"x_max":833,"o":"m 410 0 l 410 340 l 417 319 l 14 972 l 46 972 l 429 351 l 418 351 l 801 972 l 833 972 l 431 319 l 438 340 l 438 0 l 410 0 z "},"Ÿ":{"ha":847,"x_min":14,"x_max":833,"o":"m 410 0 l 410 340 l 417 319 l 14 972 l 46 972 l 429 351 l 418 351 l 801 972 l 833 972 l 431 319 l 438 340 l 438 0 l 410 0 z "},"Ẏ":{"ha":847,"x_min":14,"x_max":833,"o":"m 410 0 l 410 340 l 417 319 l 14 972 l 46 972 l 429 351 l 418 351 l 801 972 l 833 972 l 431 319 l 438 340 l 438 0 l 410 0 z "},"Ỵ":{"ha":847,"x_min":14,"x_max":833,"o":"m 410 0 l 410 340 l 417 319 l 14 972 l 46 972 l 429 351 l 418 351 l 801 972 l 833 972 l 431 319 l 438 340 l 438 0 l 410 0 m 424 -244 q 399 -233 410 -244 q 388 -208 388 -222 q 399 -183 388 -193 q 424 -172 410 -172 q 449 -183 439 -172 q 460 -208 460 -193 q 449 -233 460 -222 q 424 -244 439 -244 z "},"Ỳ":{"ha":847,"x_min":14,"x_max":833,"o":"m 410 0 l 410 340 l 417 319 l 14 972 l 46 972 l 429 351 l 418 351 l 801 972 l 833 972 l 431 319 l 438 340 l 438 0 l 410 0 z "},"Ỷ":{"ha":847,"x_min":14,"x_max":833,"o":"m 410 0 l 410 340 l 417 319 l 14 972 l 46 972 l 429 351 l 418 351 l 801 972 l 833 972 l 431 319 l 438 340 l 438 0 l 410 0 z "},"Ȳ":{"ha":847,"x_min":14,"x_max":833,"o":"m 410 0 l 410 340 l 417 319 l 14 972 l 46 972 l 429 351 l 418 351 l 801 972 l 833 972 l 431 319 l 438 340 l 438 0 l 410 0 z "},"Ỹ":{"ha":847,"x_min":14,"x_max":833,"o":"m 410 0 l 410 340 l 417 319 l 14 972 l 46 972 l 429 351 l 418 351 l 801 972 l 833 972 l 431 319 l 438 340 l 438 0 l 410 0 z "},"Z":{"ha":888,"x_min":69,"x_max":833,"o":"m 69 0 l 69 21 l 788 956 l 789 946 l 76 946 l 76 972 l 819 972 l 819 951 l 101 17 l 100 26 l 833 26 l 833 0 l 69 0 z "},"Ź":{"ha":888,"x_min":69,"x_max":833,"o":"m 69 0 l 69 21 l 788 956 l 789 946 l 76 946 l 76 972 l 819 972 l 819 951 l 101 17 l 100 26 l 833 26 l 833 0 l 69 0 z "},"Ž":{"ha":888,"x_min":69,"x_max":833,"o":"m 69 0 l 69 21 l 788 956 l 789 946 l 76 946 l 76 972 l 819 972 l 819 951 l 101 17 l 100 26 l 833 26 l 833 0 l 69 0 z "},"Ż":{"ha":888,"x_min":69,"x_max":833,"o":"m 69 0 l 69 21 l 788 956 l 789 946 l 76 946 l 76 972 l 819 972 l 819 951 l 101 17 l 100 26 l 833 26 l 833 0 l 69 0 z "},"Ẓ":{"ha":888,"x_min":69,"x_max":833,"o":"m 69 0 l 69 21 l 788 956 l 789 946 l 76 946 l 76 972 l 819 972 l 819 951 l 101 17 l 100 26 l 833 26 l 833 0 l 69 0 m 465 -244 q 440 -233 451 -244 q 429 -208 429 -222 q 440 -183 429 -193 q 465 -172 451 -172 q 491 -183 481 -172 q 501 -208 501 -193 q 491 -233 501 -222 q 465 -244 481 -244 z "},"a":{"ha":797,"x_min":90,"x_max":646,"o":"m 618 0 l 618 171 l 618 194 l 618 469 q 560 639 618 582 q 390 696 501 696 q 243 668 310 696 q 129 596 176 640 l 110 615 q 235 693 161 664 q 389 722 308 722 q 580 658 514 722 q 646 471 646 594 l 646 0 l 618 0 m 344 -4 q 207 21 264 -4 q 120 92 150 46 q 90 197 90 138 q 115 292 90 249 q 194 363 139 336 q 346 390 250 390 l 633 390 l 633 364 l 344 364 q 170 317 222 364 q 118 199 118 271 q 178 70 118 118 q 344 22 238 22 q 516 70 449 22 q 618 206 583 118 l 632 188 q 530 49 603 101 q 344 -4 457 -4 z "},"á":{"ha":797,"x_min":90,"x_max":646,"o":"m 618 0 l 618 171 l 618 194 l 618 469 q 560 639 618 582 q 390 696 501 696 q 243 668 310 696 q 129 596 176 640 l 110 615 q 235 693 161 664 q 389 722 308 722 q 580 658 514 722 q 646 471 646 594 l 646 0 l 618 0 m 344 -4 q 207 21 264 -4 q 120 92 150 46 q 90 197 90 138 q 115 292 90 249 q 194 363 139 336 q 346 390 250 390 l 633 390 l 633 364 l 344 364 q 170 317 222 364 q 118 199 118 271 q 178 70 118 118 q 344 22 238 22 q 516 70 449 22 q 618 206 583 118 l 632 188 q 530 49 603 101 q 344 -4 457 -4 m 317 843 l 511 996 l 567 996 l 358 843 l 317 843 z "},"ă":{"ha":797,"x_min":90,"x_max":646,"o":"m 618 0 l 618 171 l 618 194 l 618 469 q 560 639 618 582 q 390 696 501 696 q 243 668 310 696 q 129 596 176 640 l 110 615 q 235 693 161 664 q 389 722 308 722 q 580 658 514 722 q 646 471 646 594 l 646 0 l 618 0 m 344 -4 q 207 21 264 -4 q 120 92 150 46 q 90 197 90 138 q 115 292 90 249 q 194 363 139 336 q 346 390 250 390 l 633 390 l 633 364 l 344 364 q 170 317 222 364 q 118 199 118 271 q 178 70 118 118 q 344 22 238 22 q 516 70 449 22 q 618 206 583 118 l 632 188 q 530 49 603 101 q 344 -4 457 -4 m 379 839 q 251 881 304 839 q 196 996 199 924 l 222 996 q 270 901 225 936 q 379 865 315 865 q 490 901 444 865 q 536 996 535 936 l 563 996 q 508 881 561 924 q 379 839 454 839 z "},"ắ":{"ha":797,"x_min":90,"x_max":646,"o":"m 618 0 l 618 171 l 618 194 l 618 469 q 560 639 618 582 q 390 696 501 696 q 243 668 310 696 q 129 596 176 640 l 110 615 q 235 693 161 664 q 389 722 308 722 q 580 658 514 722 q 646 471 646 594 l 646 0 l 618 0 m 344 -4 q 207 21 264 -4 q 120 92 150 46 q 90 197 90 138 q 115 292 90 249 q 194 363 139 336 q 346 390 250 390 l 633 390 l 633 364 l 344 364 q 170 317 222 364 q 118 199 118 271 q 178 70 118 118 q 344 22 238 22 q 516 70 449 22 q 618 206 583 118 l 632 188 q 530 49 603 101 q 344 -4 457 -4 z "},"ặ":{"ha":797,"x_min":90,"x_max":646,"o":"m 618 0 l 618 171 l 618 194 l 618 469 q 560 639 618 582 q 390 696 501 696 q 243 668 310 696 q 129 596 176 640 l 110 615 q 235 693 161 664 q 389 722 308 722 q 580 658 514 722 q 646 471 646 594 l 646 0 l 618 0 m 344 -4 q 207 21 264 -4 q 120 92 150 46 q 90 197 90 138 q 115 292 90 249 q 194 363 139 336 q 346 390 250 390 l 633 390 l 633 364 l 344 364 q 170 317 222 364 q 118 199 118 271 q 178 70 118 118 q 344 22 238 22 q 516 70 449 22 q 618 206 583 118 l 632 188 q 530 49 603 101 q 344 -4 457 -4 m 393 -244 q 368 -233 379 -244 q 357 -208 357 -222 q 368 -183 357 -193 q 393 -172 379 -172 q 419 -183 408 -172 q 429 -208 429 -193 q 419 -233 429 -222 q 393 -244 408 -244 m 379 839 q 251 881 304 839 q 196 996 199 924 l 222 996 q 270 901 225 936 q 379 865 315 865 q 490 901 444 865 q 536 996 535 936 l 563 996 q 508 881 561 924 q 379 839 454 839 z "},"ằ":{"ha":797,"x_min":90,"x_max":646,"o":"m 618 0 l 618 171 l 618 194 l 618 469 q 560 639 618 582 q 390 696 501 696 q 243 668 310 696 q 129 596 176 640 l 110 615 q 235 693 161 664 q 389 722 308 722 q 580 658 514 722 q 646 471 646 594 l 646 0 l 618 0 m 344 -4 q 207 21 264 -4 q 120 92 150 46 q 90 197 90 138 q 115 292 90 249 q 194 363 139 336 q 346 390 250 390 l 633 390 l 633 364 l 344 364 q 170 317 222 364 q 118 199 118 271 q 178 70 118 118 q 344 22 238 22 q 516 70 449 22 q 618 206 583 118 l 632 188 q 530 49 603 101 q 344 -4 457 -4 z "},"ẳ":{"ha":797,"x_min":90,"x_max":646,"o":"m 618 0 l 618 171 l 618 194 l 618 469 q 560 639 618 582 q 390 696 501 696 q 243 668 310 696 q 129 596 176 640 l 110 615 q 235 693 161 664 q 389 722 308 722 q 580 658 514 722 q 646 471 646 594 l 646 0 l 618 0 m 344 -4 q 207 21 264 -4 q 120 92 150 46 q 90 197 90 138 q 115 292 90 249 q 194 363 139 336 q 346 390 250 390 l 633 390 l 633 364 l 344 364 q 170 317 222 364 q 118 199 118 271 q 178 70 118 118 q 344 22 238 22 q 516 70 449 22 q 618 206 583 118 l 632 188 q 530 49 603 101 q 344 -4 457 -4 z "},"ẵ":{"ha":797,"x_min":90,"x_max":646,"o":"m 618 0 l 618 171 l 618 194 l 618 469 q 560 639 618 582 q 390 696 501 696 q 243 668 310 696 q 129 596 176 640 l 110 615 q 235 693 161 664 q 389 722 308 722 q 580 658 514 722 q 646 471 646 594 l 646 0 l 618 0 m 344 -4 q 207 21 264 -4 q 120 92 150 46 q 90 197 90 138 q 115 292 90 249 q 194 363 139 336 q 346 390 250 390 l 633 390 l 633 364 l 344 364 q 170 317 222 364 q 118 199 118 271 q 178 70 118 118 q 344 22 238 22 q 516 70 449 22 q 618 206 583 118 l 632 188 q 530 49 603 101 q 344 -4 457 -4 z "},"ǎ":{"ha":797,"x_min":90,"x_max":646,"o":"m 618 0 l 618 171 l 618 194 l 618 469 q 560 639 618 582 q 390 696 501 696 q 243 668 310 696 q 129 596 176 640 l 110 615 q 235 693 161 664 q 389 722 308 722 q 580 658 514 722 q 646 471 646 594 l 646 0 l 618 0 m 344 -4 q 207 21 264 -4 q 120 92 150 46 q 90 197 90 138 q 115 292 90 249 q 194 363 139 336 q 346 390 250 390 l 633 390 l 633 364 l 344 364 q 170 317 222 364 q 118 199 118 271 q 178 70 118 118 q 344 22 238 22 q 516 70 449 22 q 618 206 583 118 l 632 188 q 530 49 603 101 q 344 -4 457 -4 m 357 843 l 188 996 l 225 996 l 383 863 l 375 863 l 533 996 l 571 996 l 401 843 l 357 843 z "},"â":{"ha":797,"x_min":90,"x_max":646,"o":"m 618 0 l 618 171 l 618 194 l 618 469 q 560 639 618 582 q 390 696 501 696 q 243 668 310 696 q 129 596 176 640 l 110 615 q 235 693 161 664 q 389 722 308 722 q 580 658 514 722 q 646 471 646 594 l 646 0 l 618 0 m 344 -4 q 207 21 264 -4 q 120 92 150 46 q 90 197 90 138 q 115 292 90 249 q 194 363 139 336 q 346 390 250 390 l 633 390 l 633 364 l 344 364 q 170 317 222 364 q 118 199 118 271 q 178 70 118 118 q 344 22 238 22 q 516 70 449 22 q 618 206 583 118 l 632 188 q 530 49 603 101 q 344 -4 457 -4 m 188 843 l 357 996 l 401 996 l 571 843 l 533 843 l 375 976 l 383 976 l 225 843 l 188 843 z "},"ấ":{"ha":797,"x_min":90,"x_max":715,"o":"m 618 0 l 618 171 l 618 194 l 618 469 q 560 639 618 582 q 390 696 501 696 q 243 668 310 696 q 129 596 176 640 l 110 615 q 235 693 161 664 q 389 722 308 722 q 580 658 514 722 q 646 471 646 594 l 646 0 l 618 0 m 344 -4 q 207 21 264 -4 q 120 92 150 46 q 90 197 90 138 q 115 292 90 249 q 194 363 139 336 q 346 390 250 390 l 633 390 l 633 364 l 344 364 q 170 317 222 364 q 118 199 118 271 q 178 70 118 118 q 344 22 238 22 q 516 70 449 22 q 618 206 583 118 l 632 188 q 530 49 603 101 q 344 -4 457 -4 z "},"ậ":{"ha":797,"x_min":90,"x_max":646,"o":"m 618 0 l 618 171 l 618 194 l 618 469 q 560 639 618 582 q 390 696 501 696 q 243 668 310 696 q 129 596 176 640 l 110 615 q 235 693 161 664 q 389 722 308 722 q 580 658 514 722 q 646 471 646 594 l 646 0 l 618 0 m 344 -4 q 207 21 264 -4 q 120 92 150 46 q 90 197 90 138 q 115 292 90 249 q 194 363 139 336 q 346 390 250 390 l 633 390 l 633 364 l 344 364 q 170 317 222 364 q 118 199 118 271 q 178 70 118 118 q 344 22 238 22 q 516 70 449 22 q 618 206 583 118 l 632 188 q 530 49 603 101 q 344 -4 457 -4 m 393 -244 q 368 -233 379 -244 q 357 -208 357 -222 q 368 -183 357 -193 q 393 -172 379 -172 q 419 -183 408 -172 q 429 -208 429 -193 q 419 -233 429 -222 q 393 -244 408 -244 m 188 843 l 357 996 l 401 996 l 571 843 l 533 843 l 375 976 l 383 976 l 225 843 l 188 843 z "},"ầ":{"ha":797,"x_min":90,"x_max":646,"o":"m 618 0 l 618 171 l 618 194 l 618 469 q 560 639 618 582 q 390 696 501 696 q 243 668 310 696 q 129 596 176 640 l 110 615 q 235 693 161 664 q 389 722 308 722 q 580 658 514 722 q 646 471 646 594 l 646 0 l 618 0 m 344 -4 q 207 21 264 -4 q 120 92 150 46 q 90 197 90 138 q 115 292 90 249 q 194 363 139 336 q 346 390 250 390 l 633 390 l 633 364 l 344 364 q 170 317 222 364 q 118 199 118 271 q 178 70 118 118 q 344 22 238 22 q 516 70 449 22 q 618 206 583 118 l 632 188 q 530 49 603 101 q 344 -4 457 -4 z "},"ẩ":{"ha":797,"x_min":90,"x_max":646,"o":"m 618 0 l 618 171 l 618 194 l 618 469 q 560 639 618 582 q 390 696 501 696 q 243 668 310 696 q 129 596 176 640 l 110 615 q 235 693 161 664 q 389 722 308 722 q 580 658 514 722 q 646 471 646 594 l 646 0 l 618 0 m 344 -4 q 207 21 264 -4 q 120 92 150 46 q 90 197 90 138 q 115 292 90 249 q 194 363 139 336 q 346 390 250 390 l 633 390 l 633 364 l 344 364 q 170 317 222 364 q 118 199 118 271 q 178 70 118 118 q 344 22 238 22 q 516 70 449 22 q 618 206 583 118 l 632 188 q 530 49 603 101 q 344 -4 457 -4 z "},"ẫ":{"ha":797,"x_min":90,"x_max":646,"o":"m 618 0 l 618 171 l 618 194 l 618 469 q 560 639 618 582 q 390 696 501 696 q 243 668 310 696 q 129 596 176 640 l 110 615 q 235 693 161 664 q 389 722 308 722 q 580 658 514 722 q 646 471 646 594 l 646 0 l 618 0 m 344 -4 q 207 21 264 -4 q 120 92 150 46 q 90 197 90 138 q 115 292 90 249 q 194 363 139 336 q 346 390 250 390 l 633 390 l 633 364 l 344 364 q 170 317 222 364 q 118 199 118 271 q 178 70 118 118 q 344 22 238 22 q 516 70 449 22 q 618 206 583 118 l 632 188 q 530 49 603 101 q 344 -4 457 -4 z "},"ȁ":{"ha":797,"x_min":90,"x_max":646,"o":"m 618 0 l 618 171 l 618 194 l 618 469 q 560 639 618 582 q 390 696 501 696 q 243 668 310 696 q 129 596 176 640 l 110 615 q 235 693 161 664 q 389 722 308 722 q 580 658 514 722 q 646 471 646 594 l 646 0 l 618 0 m 344 -4 q 207 21 264 -4 q 120 92 150 46 q 90 197 90 138 q 115 292 90 249 q 194 363 139 336 q 346 390 250 390 l 633 390 l 633 364 l 344 364 q 170 317 222 364 q 118 199 118 271 q 178 70 118 118 q 344 22 238 22 q 516 70 449 22 q 618 206 583 118 l 632 188 q 530 49 603 101 q 344 -4 457 -4 m 457 843 l 293 996 l 340 996 l 494 843 l 457 843 m 264 843 l 100 996 l 147 996 l 301 843 l 264 843 z "},"ä":{"ha":797,"x_min":90,"x_max":646,"o":"m 618 0 l 618 171 l 618 194 l 618 469 q 560 639 618 582 q 390 696 501 696 q 243 668 310 696 q 129 596 176 640 l 110 615 q 235 693 161 664 q 389 722 308 722 q 580 658 514 722 q 646 471 646 594 l 646 0 l 618 0 m 344 -4 q 207 21 264 -4 q 120 92 150 46 q 90 197 90 138 q 115 292 90 249 q 194 363 139 336 q 346 390 250 390 l 633 390 l 633 364 l 344 364 q 170 317 222 364 q 118 199 118 271 q 178 70 118 118 q 344 22 238 22 q 516 70 449 22 q 618 206 583 118 l 632 188 q 530 49 603 101 q 344 -4 457 -4 m 493 890 q 468 901 479 890 q 457 926 457 913 q 468 952 457 942 q 493 963 479 963 q 519 952 508 963 q 529 926 529 942 q 519 901 529 913 q 493 890 508 890 m 265 890 q 240 901 251 890 q 229 926 229 913 q 240 952 229 942 q 265 963 251 963 q 291 952 281 963 q 301 926 301 942 q 291 901 301 913 q 265 890 281 890 z "},"ạ":{"ha":797,"x_min":90,"x_max":646,"o":"m 618 0 l 618 171 l 618 194 l 618 469 q 560 639 618 582 q 390 696 501 696 q 243 668 310 696 q 129 596 176 640 l 110 615 q 235 693 161 664 q 389 722 308 722 q 580 658 514 722 q 646 471 646 594 l 646 0 l 618 0 m 344 -4 q 207 21 264 -4 q 120 92 150 46 q 90 197 90 138 q 115 292 90 249 q 194 363 139 336 q 346 390 250 390 l 633 390 l 633 364 l 344 364 q 170 317 222 364 q 118 199 118 271 q 178 70 118 118 q 344 22 238 22 q 516 70 449 22 q 618 206 583 118 l 632 188 q 530 49 603 101 q 344 -4 457 -4 m 393 -244 q 368 -233 379 -244 q 357 -208 357 -222 q 368 -183 357 -193 q 393 -172 379 -172 q 419 -183 408 -172 q 429 -208 429 -193 q 419 -233 429 -222 q 393 -244 408 -244 z "},"à":{"ha":797,"x_min":90,"x_max":646,"o":"m 618 0 l 618 171 l 618 194 l 618 469 q 560 639 618 582 q 390 696 501 696 q 243 668 310 696 q 129 596 176 640 l 110 615 q 235 693 161 664 q 389 722 308 722 q 580 658 514 722 q 646 471 646 594 l 646 0 l 618 0 m 344 -4 q 207 21 264 -4 q 120 92 150 46 q 90 197 90 138 q 115 292 90 249 q 194 363 139 336 q 346 390 250 390 l 633 390 l 633 364 l 344 364 q 170 317 222 364 q 118 199 118 271 q 178 70 118 118 q 344 22 238 22 q 516 70 449 22 q 618 206 583 118 l 632 188 q 530 49 603 101 q 344 -4 457 -4 m 400 843 l 192 996 l 247 996 l 442 843 l 400 843 z "},"ả":{"ha":797,"x_min":90,"x_max":646,"o":"m 618 0 l 618 171 l 618 194 l 618 469 q 560 639 618 582 q 390 696 501 696 q 243 668 310 696 q 129 596 176 640 l 110 615 q 235 693 161 664 q 389 722 308 722 q 580 658 514 722 q 646 471 646 594 l 646 0 l 618 0 m 344 -4 q 207 21 264 -4 q 120 92 150 46 q 90 197 90 138 q 115 292 90 249 q 194 363 139 336 q 346 390 250 390 l 633 390 l 633 364 l 344 364 q 170 317 222 364 q 118 199 118 271 q 178 70 118 118 q 344 22 238 22 q 516 70 449 22 q 618 206 583 118 l 632 188 q 530 49 603 101 q 344 -4 457 -4 m 382 838 l 368 860 q 433 906 411 879 q 456 967 456 932 q 433 1020 456 999 q 375 1042 411 1042 q 289 1015 329 1042 l 278 1039 q 324 1060 297 1053 q 374 1068 350 1068 q 453 1041 424 1068 q 483 968 483 1014 q 459 894 483 926 q 382 838 435 863 z "},"ȃ":{"ha":797,"x_min":90,"x_max":646,"o":"m 618 0 l 618 171 l 618 194 l 618 469 q 560 639 618 582 q 390 696 501 696 q 243 668 310 696 q 129 596 176 640 l 110 615 q 235 693 161 664 q 389 722 308 722 q 580 658 514 722 q 646 471 646 594 l 646 0 l 618 0 m 344 -4 q 207 21 264 -4 q 120 92 150 46 q 90 197 90 138 q 115 292 90 249 q 194 363 139 336 q 346 390 250 390 l 633 390 l 633 364 l 344 364 q 170 317 222 364 q 118 199 118 271 q 178 70 118 118 q 344 22 238 22 q 516 70 449 22 q 618 206 583 118 l 632 188 q 530 49 603 101 q 344 -4 457 -4 m 196 843 q 251 958 199 917 q 379 1000 304 1000 q 508 958 454 1000 q 563 843 561 917 l 536 843 q 490 939 535 904 q 379 974 444 974 q 270 939 315 974 q 222 843 225 904 l 196 843 z "},"ā":{"ha":797,"x_min":90,"x_max":646,"o":"m 618 0 l 618 171 l 618 194 l 618 469 q 560 639 618 582 q 390 696 501 696 q 243 668 310 696 q 129 596 176 640 l 110 615 q 235 693 161 664 q 389 722 308 722 q 580 658 514 722 q 646 471 646 594 l 646 0 l 618 0 m 344 -4 q 207 21 264 -4 q 120 92 150 46 q 90 197 90 138 q 115 292 90 249 q 194 363 139 336 q 346 390 250 390 l 633 390 l 633 364 l 344 364 q 170 317 222 364 q 118 199 118 271 q 178 70 118 118 q 344 22 238 22 q 516 70 449 22 q 618 206 583 118 l 632 188 q 530 49 603 101 q 344 -4 457 -4 m 190 906 l 190 933 l 568 933 l 568 906 l 190 906 z "},"ą":{"ha":797,"x_min":90,"x_max":671,"o":"m 618 0 l 618 171 l 618 194 l 618 469 q 560 639 618 582 q 390 696 501 696 q 243 668 310 696 q 129 596 176 640 l 110 615 q 235 693 161 664 q 389 722 308 722 q 580 658 514 722 q 646 471 646 594 l 646 0 l 618 0 m 344 -4 q 207 21 264 -4 q 120 92 150 46 q 90 197 90 138 q 115 292 90 249 q 194 363 139 336 q 346 390 250 390 l 633 390 l 633 364 l 344 364 q 170 317 222 364 q 118 199 118 271 q 178 70 118 118 q 344 22 238 22 q 516 70 449 22 q 618 206 583 118 l 632 188 q 530 49 603 101 q 344 -4 457 -4 m 568 -296 q 478 -265 514 -296 q 442 -181 442 -235 q 456 -118 442 -151 q 512 -49 471 -85 q 632 22 553 -12 l 646 0 q 532 -65 569 -32 q 482 -126 494 -97 q 469 -181 469 -156 q 498 -247 469 -225 q 569 -269 526 -269 q 616 -261 593 -269 q 656 -237 639 -253 l 671 -258 q 623 -287 649 -278 q 568 -296 597 -296 z "},"å":{"ha":797,"x_min":90,"x_max":646,"o":"m 618 0 l 618 171 l 618 194 l 618 469 q 560 639 618 582 q 390 696 501 696 q 243 668 310 696 q 129 596 176 640 l 110 615 q 235 693 161 664 q 389 722 308 722 q 580 658 514 722 q 646 471 646 594 l 646 0 l 618 0 m 344 -4 q 207 21 264 -4 q 120 92 150 46 q 90 197 90 138 q 115 292 90 249 q 194 363 139 336 q 346 390 250 390 l 633 390 l 633 364 l 344 364 q 170 317 222 364 q 118 199 118 271 q 178 70 118 118 q 344 22 238 22 q 516 70 449 22 q 618 206 583 118 l 632 188 q 530 49 603 101 q 344 -4 457 -4 m 378 829 q 312 847 340 829 q 267 892 283 864 q 250 954 250 921 q 267 1018 250 989 q 313 1065 283 1047 q 378 1083 342 1083 q 444 1065 415 1083 q 490 1018 474 1047 q 507 954 507 989 q 490 892 507 921 q 444 847 474 864 q 378 829 415 829 m 378 856 q 451 885 422 856 q 479 954 479 914 q 451 1026 479 996 q 378 1057 422 1057 q 306 1027 335 1057 q 278 954 278 997 q 306 884 278 913 q 378 856 333 856 z "},"ǻ":{"ha":797,"x_min":90,"x_max":646,"o":"m 618 0 l 618 171 l 618 194 l 618 469 q 560 639 618 582 q 390 696 501 696 q 243 668 310 696 q 129 596 176 640 l 110 615 q 235 693 161 664 q 389 722 308 722 q 580 658 514 722 q 646 471 646 594 l 646 0 l 618 0 m 344 -4 q 207 21 264 -4 q 120 92 150 46 q 90 197 90 138 q 115 292 90 249 q 194 363 139 336 q 346 390 250 390 l 633 390 l 633 364 l 344 364 q 170 317 222 364 q 118 199 118 271 q 178 70 118 118 q 344 22 238 22 q 516 70 449 22 q 618 206 583 118 l 632 188 q 530 49 603 101 q 344 -4 457 -4 m 378 829 q 312 847 340 829 q 267 892 283 864 q 250 954 250 921 q 267 1018 250 989 q 313 1065 283 1047 q 378 1083 342 1083 q 444 1065 415 1083 q 490 1018 474 1047 q 507 954 507 989 q 490 892 507 921 q 444 847 474 864 q 378 829 415 829 m 378 856 q 451 885 422 856 q 479 954 479 914 q 451 1026 479 996 q 378 1057 422 1057 q 306 1027 335 1057 q 278 954 278 997 q 306 884 278 913 q 378 856 333 856 m 472 1035 l 443 1047 l 567 1164 l 590 1146 l 472 1035 z "},"ã":{"ha":797,"x_min":90,"x_max":646,"o":"m 618 0 l 618 171 l 618 194 l 618 469 q 560 639 618 582 q 390 696 501 696 q 243 668 310 696 q 129 596 176 640 l 110 615 q 235 693 161 664 q 389 722 308 722 q 580 658 514 722 q 646 471 646 594 l 646 0 l 618 0 m 344 -4 q 207 21 264 -4 q 120 92 150 46 q 90 197 90 138 q 115 292 90 249 q 194 363 139 336 q 346 390 250 390 l 633 390 l 633 364 l 344 364 q 170 317 222 364 q 118 199 118 271 q 178 70 118 118 q 344 22 238 22 q 516 70 449 22 q 618 206 583 118 l 632 188 q 530 49 603 101 q 344 -4 457 -4 m 467 860 q 415 874 438 860 q 373 908 392 889 q 335 941 354 926 q 292 956 315 956 q 239 931 258 956 q 217 863 219 906 l 190 863 q 220 949 193 917 q 292 982 247 982 q 344 967 321 982 q 385 934 367 953 q 424 901 404 915 q 467 886 443 886 q 520 911 500 886 q 542 976 540 936 l 568 976 q 539 892 567 925 q 467 860 511 860 z "},"æ":{"ha":1360,"x_min":90,"x_max":1285,"o":"m 344 -4 q 157 51 224 -4 q 90 197 90 107 q 115 292 90 249 q 194 362 139 335 q 346 389 250 389 l 626 389 l 626 363 l 344 363 q 170 316 222 363 q 118 199 118 269 q 178 70 118 118 q 344 22 238 22 q 542 89 465 22 q 618 281 618 156 l 618 469 q 560 639 618 582 q 390 696 501 696 q 243 668 310 696 q 129 596 176 640 l 110 615 q 235 693 161 664 q 389 722 308 722 q 574 664 510 722 q 646 486 639 606 l 642 499 q 760 661 678 600 q 951 722 842 722 q 1083 697 1022 722 q 1189 623 1143 671 q 1260 511 1235 575 q 1285 369 1285 447 q 1285 367 1285 368 q 1285 363 1285 365 l 640 363 l 640 389 l 1269 389 l 1258 365 q 1218 535 1258 460 q 1109 653 1178 610 q 951 696 1040 696 q 794 653 863 696 q 685 535 725 610 q 646 365 646 460 l 646 360 q 689 185 646 261 q 807 65 732 108 q 978 22 882 22 q 1115 50 1050 22 q 1222 133 1179 78 l 1242 114 q 1125 26 1194 56 q 978 -4 1056 -4 q 829 26 900 -4 q 706 115 758 56 q 629 263 654 174 l 647 260 q 597 109 640 167 q 488 24 554 51 q 344 -4 422 -4 z "},"ǽ":{"ha":1360,"x_min":90,"x_max":1285,"o":"m 344 -4 q 157 51 224 -4 q 90 197 90 107 q 115 292 90 249 q 194 362 139 335 q 346 389 250 389 l 626 389 l 626 363 l 344 363 q 170 316 222 363 q 118 199 118 269 q 178 70 118 118 q 344 22 238 22 q 542 89 465 22 q 618 281 618 156 l 618 469 q 560 639 618 582 q 390 696 501 696 q 243 668 310 696 q 129 596 176 640 l 110 615 q 235 693 161 664 q 389 722 308 722 q 574 664 510 722 q 646 486 639 606 l 642 499 q 760 661 678 600 q 951 722 842 722 q 1083 697 1022 722 q 1189 623 1143 671 q 1260 511 1235 575 q 1285 369 1285 447 q 1285 367 1285 368 q 1285 363 1285 365 l 640 363 l 640 389 l 1269 389 l 1258 365 q 1218 535 1258 460 q 1109 653 1178 610 q 951 696 1040 696 q 794 653 863 696 q 685 535 725 610 q 646 365 646 460 l 646 360 q 689 185 646 261 q 807 65 732 108 q 978 22 882 22 q 1115 50 1050 22 q 1222 133 1179 78 l 1242 114 q 1125 26 1194 56 q 978 -4 1056 -4 q 829 26 900 -4 q 706 115 758 56 q 629 263 654 174 l 647 260 q 597 109 640 167 q 488 24 554 51 q 344 -4 422 -4 m 569 843 l 764 996 l 819 996 l 611 843 l 569 843 z "},"b":{"ha":932,"x_min":160,"x_max":857,"o":"m 508 -4 q 332 42 410 -4 q 209 172 254 89 q 164 360 164 254 q 209 548 164 467 q 332 676 254 629 q 508 722 410 722 q 686 676 607 722 q 811 548 765 629 q 857 360 857 467 q 811 172 857 254 q 686 42 765 89 q 508 -4 607 -4 m 160 0 l 160 1031 l 188 1031 l 188 458 l 174 361 l 188 264 l 188 0 l 160 0 m 508 22 q 673 65 600 22 q 788 185 746 108 q 829 360 829 261 q 788 535 829 460 q 673 653 746 611 q 508 696 600 696 q 344 653 417 696 q 229 535 271 611 q 188 360 188 460 q 229 185 188 261 q 344 65 271 108 q 508 22 417 22 z "},"c":{"ha":757,"x_min":75,"x_max":686,"o":"m 428 -4 q 247 42 326 -4 q 121 171 167 89 q 75 360 75 253 q 121 549 75 467 q 247 676 167 631 q 428 722 326 722 q 573 693 506 722 q 686 606 640 664 l 667 585 q 563 669 625 642 q 428 696 500 696 q 261 653 335 696 q 145 535 188 611 q 103 360 103 460 q 145 184 103 260 q 261 65 188 108 q 428 22 335 22 q 563 50 500 22 q 667 133 625 78 l 686 113 q 573 25 640 54 q 428 -4 506 -4 z "},"ć":{"ha":757,"x_min":75,"x_max":686,"o":"m 428 -4 q 247 42 326 -4 q 121 171 167 89 q 75 360 75 253 q 121 549 75 467 q 247 676 167 631 q 428 722 326 722 q 573 693 506 722 q 686 606 640 664 l 667 585 q 563 669 625 642 q 428 696 500 696 q 261 653 335 696 q 145 535 188 611 q 103 360 103 460 q 145 184 103 260 q 261 65 188 108 q 428 22 335 22 q 563 50 500 22 q 667 133 625 78 l 686 113 q 573 25 640 54 q 428 -4 506 -4 m 342 843 l 536 996 l 592 996 l 383 843 l 342 843 z "},"č":{"ha":757,"x_min":75,"x_max":686,"o":"m 428 -4 q 247 42 326 -4 q 121 171 167 89 q 75 360 75 253 q 121 549 75 467 q 247 676 167 631 q 428 722 326 722 q 573 693 506 722 q 686 606 640 664 l 667 585 q 563 669 625 642 q 428 696 500 696 q 261 653 335 696 q 145 535 188 611 q 103 360 103 460 q 145 184 103 260 q 261 65 188 108 q 428 22 335 22 q 563 50 500 22 q 667 133 625 78 l 686 113 q 573 25 640 54 q 428 -4 506 -4 m 382 843 l 213 996 l 250 996 l 408 863 l 400 863 l 558 996 l 596 996 l 426 843 l 382 843 z "},"ç":{"ha":757,"x_min":75,"x_max":686,"o":"m 428 -4 q 247 42 326 -4 q 121 171 167 89 q 75 360 75 253 q 121 549 75 467 q 247 676 167 631 q 428 722 326 722 q 573 693 506 722 q 686 606 640 664 l 667 585 q 563 669 625 642 q 428 696 500 696 q 261 653 335 696 q 145 535 188 611 q 103 360 103 460 q 145 184 103 260 q 261 65 188 108 q 428 22 335 22 q 563 50 500 22 q 667 133 625 78 l 686 113 q 573 25 640 54 q 428 -4 506 -4 m 382 -296 q 328 -287 353 -296 q 279 -258 303 -278 l 294 -237 q 334 -261 311 -253 q 381 -269 357 -269 q 452 -248 424 -269 q 481 -186 481 -226 q 455 -126 481 -150 q 382 -103 429 -103 l 360 -103 l 390 7 l 417 7 l 393 -78 q 477 -110 446 -81 q 508 -186 508 -139 q 472 -266 508 -236 q 382 -296 436 -296 z "},"ḉ":{"ha":757,"x_min":75,"x_max":686,"o":"m 428 -4 q 247 42 326 -4 q 121 171 167 89 q 75 360 75 253 q 121 549 75 467 q 247 676 167 631 q 428 722 326 722 q 573 693 506 722 q 686 606 640 664 l 667 585 q 563 669 625 642 q 428 696 500 696 q 261 653 335 696 q 145 535 188 611 q 103 360 103 460 q 145 184 103 260 q 261 65 188 108 q 428 22 335 22 q 563 50 500 22 q 667 133 625 78 l 686 113 q 573 25 640 54 q 428 -4 506 -4 m 382 -296 q 328 -287 353 -296 q 279 -258 303 -278 l 294 -237 q 334 -261 311 -253 q 381 -269 357 -269 q 452 -248 424 -269 q 481 -186 481 -226 q 455 -126 481 -150 q 382 -103 429 -103 l 360 -103 l 390 7 l 417 7 l 393 -78 q 477 -110 446 -81 q 508 -186 508 -139 q 472 -266 508 -236 q 382 -296 436 -296 m 342 843 l 536 996 l 592 996 l 383 843 l 342 843 z "},"ĉ":{"ha":757,"x_min":75,"x_max":686,"o":"m 428 -4 q 247 42 326 -4 q 121 171 167 89 q 75 360 75 253 q 121 549 75 467 q 247 676 167 631 q 428 722 326 722 q 573 693 506 722 q 686 606 640 664 l 667 585 q 563 669 625 642 q 428 696 500 696 q 261 653 335 696 q 145 535 188 611 q 103 360 103 460 q 145 184 103 260 q 261 65 188 108 q 428 22 335 22 q 563 50 500 22 q 667 133 625 78 l 686 113 q 573 25 640 54 q 428 -4 506 -4 m 213 843 l 382 996 l 426 996 l 596 843 l 558 843 l 400 976 l 408 976 l 250 843 l 213 843 z "},"ċ":{"ha":757,"x_min":75,"x_max":686,"o":"m 428 -4 q 247 42 326 -4 q 121 171 167 89 q 75 360 75 253 q 121 549 75 467 q 247 676 167 631 q 428 722 326 722 q 573 693 506 722 q 686 606 640 664 l 667 585 q 563 669 625 642 q 428 696 500 696 q 261 653 335 696 q 145 535 188 611 q 103 360 103 460 q 145 184 103 260 q 261 65 188 108 q 428 22 335 22 q 563 50 500 22 q 667 133 625 78 l 686 113 q 573 25 640 54 q 428 -4 506 -4 m 404 890 q 379 901 390 890 q 368 926 368 913 q 379 952 368 942 q 404 963 390 963 q 430 952 419 963 q 440 926 440 942 q 430 901 440 913 q 404 890 419 890 z "},"d":{"ha":932,"x_min":75,"x_max":772,"o":"m 424 -4 q 246 42 325 -4 q 121 172 167 89 q 75 360 75 254 q 121 548 75 467 q 246 676 167 629 q 424 722 325 722 q 600 676 522 722 q 723 548 678 629 q 768 360 768 467 q 723 172 768 254 q 600 42 678 89 q 424 -4 522 -4 m 424 22 q 588 65 515 22 q 703 185 661 108 q 744 360 744 261 q 703 535 744 460 q 588 653 661 611 q 424 696 515 696 q 260 653 332 696 q 145 535 188 611 q 103 360 103 460 q 145 185 103 261 q 260 65 188 108 q 424 22 332 22 m 744 0 l 744 264 l 758 361 l 744 458 l 744 1031 l 772 1031 l 772 0 l 744 0 z "},"ð":{"ha":858,"x_min":75,"x_max":783,"o":"m 397 -4 q 230 33 303 -4 q 116 139 157 71 q 75 297 75 207 q 116 455 75 388 q 232 560 157 522 q 408 597 307 597 q 573 561 499 597 q 692 457 647 525 q 740 290 738 389 l 729 292 q 751 399 746 344 q 756 489 756 454 q 706 742 756 639 q 567 897 657 844 q 357 950 478 950 q 245 942 299 950 q 149 921 192 933 l 142 947 q 238 967 181 958 q 357 976 294 976 q 581 921 485 976 q 730 756 676 865 q 783 486 783 647 q 740 228 783 339 q 611 57 697 118 q 397 -4 525 -4 m 397 22 q 570 63 500 22 q 676 167 640 104 q 713 297 713 231 q 674 435 713 374 q 567 534 635 497 q 408 571 499 571 q 184 495 265 571 q 103 297 103 419 q 140 154 103 217 q 243 57 176 92 q 397 22 310 22 m 206 724 l 194 750 l 701 976 l 713 950 l 206 724 z "},"ď":{"ha":932,"x_min":75,"x_max":939,"o":"m 424 -4 q 246 42 325 -4 q 121 172 167 89 q 75 360 75 254 q 121 548 75 467 q 246 676 167 629 q 424 722 325 722 q 600 676 522 722 q 723 548 678 629 q 768 360 768 467 q 723 172 768 254 q 600 42 678 89 q 424 -4 522 -4 m 424 22 q 588 65 515 22 q 703 185 661 108 q 744 360 744 261 q 703 535 744 460 q 588 653 661 611 q 424 696 515 696 q 260 653 332 696 q 145 535 188 611 q 103 360 103 460 q 145 185 103 261 q 260 65 188 108 q 424 22 332 22 m 744 0 l 744 264 l 758 361 l 744 458 l 744 1031 l 772 1031 l 772 0 l 744 0 m 911 808 l 911 1058 l 939 1058 l 936 808 l 911 808 z "},"đ":{"ha":932,"x_min":75,"x_max":932,"o":"m 424 -4 q 246 42 325 -4 q 121 172 167 89 q 75 360 75 254 q 121 548 75 467 q 246 676 167 629 q 424 722 325 722 q 600 676 522 722 q 723 548 678 629 q 768 360 768 467 q 723 172 768 254 q 600 42 678 89 q 424 -4 522 -4 m 424 22 q 588 65 515 22 q 703 185 661 108 q 744 360 744 261 q 703 535 744 460 q 588 653 661 611 q 424 696 515 696 q 260 653 332 696 q 145 535 188 611 q 103 360 103 460 q 145 185 103 261 q 260 65 188 108 q 424 22 332 22 m 744 0 l 744 264 l 758 361 l 744 458 l 744 1031 l 772 1031 l 772 0 l 744 0 m 407 863 l 407 889 l 932 889 l 932 863 l 407 863 z "},"ḍ":{"ha":932,"x_min":75,"x_max":772,"o":"m 424 -4 q 246 42 325 -4 q 121 172 167 89 q 75 360 75 254 q 121 548 75 467 q 246 676 167 629 q 424 722 325 722 q 600 676 522 722 q 723 548 678 629 q 768 360 768 467 q 723 172 768 254 q 600 42 678 89 q 424 -4 522 -4 m 424 22 q 588 65 515 22 q 703 185 661 108 q 744 360 744 261 q 703 535 744 460 q 588 653 661 611 q 424 696 515 696 q 260 653 332 696 q 145 535 188 611 q 103 360 103 460 q 145 185 103 261 q 260 65 188 108 q 424 22 332 22 m 744 0 l 744 264 l 758 361 l 744 458 l 744 1031 l 772 1031 l 772 0 l 744 0 m 456 -244 q 431 -233 442 -244 q 419 -208 419 -222 q 431 -183 419 -193 q 456 -172 442 -172 q 481 -183 471 -172 q 492 -208 492 -193 q 481 -233 492 -222 q 456 -244 471 -244 z "},"ḏ":{"ha":932,"x_min":75,"x_max":772,"o":"m 424 -4 q 246 42 325 -4 q 121 172 167 89 q 75 360 75 254 q 121 548 75 467 q 246 676 167 629 q 424 722 325 722 q 600 676 522 722 q 723 548 678 629 q 768 360 768 467 q 723 172 768 254 q 600 42 678 89 q 424 -4 522 -4 m 424 22 q 588 65 515 22 q 703 185 661 108 q 744 360 744 261 q 703 535 744 460 q 588 653 661 611 q 424 696 515 696 q 260 653 332 696 q 145 535 188 611 q 103 360 103 460 q 145 185 103 261 q 260 65 188 108 q 424 22 332 22 m 744 0 l 744 264 l 758 361 l 744 458 l 744 1031 l 772 1031 l 772 0 l 744 0 m 267 -222 l 267 -194 l 644 -194 l 644 -222 l 267 -222 z "},"ǆ":{"ha":1643,"x_min":75,"x_max":1550,"o":"m 424 -4 q 246 42 325 -4 q 121 172 167 89 q 75 360 75 254 q 121 548 75 467 q 246 676 167 629 q 424 722 325 722 q 600 676 522 722 q 723 548 678 629 q 768 360 768 467 q 723 172 768 254 q 600 42 678 89 q 424 -4 522 -4 m 424 22 q 588 65 515 22 q 703 185 661 108 q 744 360 744 261 q 703 535 744 460 q 588 653 661 611 q 424 696 515 696 q 260 653 332 696 q 145 535 188 611 q 103 360 103 460 q 145 185 103 261 q 260 65 188 108 q 424 22 332 22 m 744 0 l 744 264 l 758 361 l 744 458 l 744 1031 l 772 1031 l 772 0 l 744 0 z "},"e":{"ha":815,"x_min":75,"x_max":740,"o":"m 433 -4 q 249 42 329 -4 q 122 172 168 89 q 75 360 75 254 q 118 548 75 467 q 237 676 161 629 q 407 722 313 722 q 577 677 501 722 q 697 551 653 632 q 740 367 740 471 q 740 364 740 365 q 740 360 740 363 l 90 360 l 90 386 l 725 386 l 714 365 q 674 535 714 460 q 565 653 633 610 q 407 696 496 696 q 250 653 319 696 q 141 535 181 610 q 101 365 101 460 l 101 360 q 144 185 101 261 q 263 65 188 108 q 433 22 338 22 q 570 50 506 22 q 678 133 635 78 l 697 114 q 581 26 650 56 q 433 -4 511 -4 z "},"é":{"ha":815,"x_min":75,"x_max":740,"o":"m 433 -4 q 249 42 329 -4 q 122 172 168 89 q 75 360 75 254 q 118 548 75 467 q 237 676 161 629 q 407 722 313 722 q 577 677 501 722 q 697 551 653 632 q 740 367 740 471 q 740 364 740 365 q 740 360 740 363 l 90 360 l 90 386 l 725 386 l 714 365 q 674 535 714 460 q 565 653 633 610 q 407 696 496 696 q 250 653 319 696 q 141 535 181 610 q 101 365 101 460 l 101 360 q 144 185 101 261 q 263 65 188 108 q 433 22 338 22 q 570 50 506 22 q 678 133 635 78 l 697 114 q 581 26 650 56 q 433 -4 511 -4 m 346 843 l 540 996 l 596 996 l 388 843 l 346 843 z "},"ĕ":{"ha":815,"x_min":75,"x_max":740,"o":"m 433 -4 q 249 42 329 -4 q 122 172 168 89 q 75 360 75 254 q 118 548 75 467 q 237 676 161 629 q 407 722 313 722 q 577 677 501 722 q 697 551 653 632 q 740 367 740 471 q 740 364 740 365 q 740 360 740 363 l 90 360 l 90 386 l 725 386 l 714 365 q 674 535 714 460 q 565 653 633 610 q 407 696 496 696 q 250 653 319 696 q 141 535 181 610 q 101 365 101 460 l 101 360 q 144 185 101 261 q 263 65 188 108 q 433 22 338 22 q 570 50 506 22 q 678 133 635 78 l 697 114 q 581 26 650 56 q 433 -4 511 -4 m 408 839 q 281 881 333 839 q 225 996 228 924 l 251 996 q 299 901 254 936 q 408 865 344 865 q 519 901 474 865 q 565 996 564 936 l 592 996 q 537 881 590 924 q 408 839 483 839 z "},"ě":{"ha":815,"x_min":75,"x_max":740,"o":"m 433 -4 q 249 42 329 -4 q 122 172 168 89 q 75 360 75 254 q 118 548 75 467 q 237 676 161 629 q 407 722 313 722 q 577 677 501 722 q 697 551 653 632 q 740 367 740 471 q 740 364 740 365 q 740 360 740 363 l 90 360 l 90 386 l 725 386 l 714 365 q 674 535 714 460 q 565 653 633 610 q 407 696 496 696 q 250 653 319 696 q 141 535 181 610 q 101 365 101 460 l 101 360 q 144 185 101 261 q 263 65 188 108 q 433 22 338 22 q 570 50 506 22 q 678 133 635 78 l 697 114 q 581 26 650 56 q 433 -4 511 -4 m 386 843 l 217 996 l 254 996 l 413 863 l 404 863 l 563 996 l 600 996 l 431 843 l 386 843 z "},"ḝ":{"ha":815,"x_min":75,"x_max":740,"o":"m 433 -4 q 249 42 329 -4 q 122 172 168 89 q 75 360 75 254 q 118 548 75 467 q 237 676 161 629 q 407 722 313 722 q 577 677 501 722 q 697 551 653 632 q 740 367 740 471 q 740 364 740 365 q 740 360 740 363 l 90 360 l 90 386 l 725 386 l 714 365 q 674 535 714 460 q 565 653 633 610 q 407 696 496 696 q 250 653 319 696 q 141 535 181 610 q 101 365 101 460 l 101 360 q 144 185 101 261 q 263 65 188 108 q 433 22 338 22 q 570 50 506 22 q 678 133 635 78 l 697 114 q 581 26 650 56 q 433 -4 511 -4 m 386 -296 q 332 -287 357 -296 q 283 -258 307 -278 l 299 -237 q 338 -261 315 -253 q 385 -269 361 -269 q 456 -248 428 -269 q 485 -186 485 -226 q 459 -126 485 -150 q 386 -103 433 -103 l 364 -103 l 394 7 l 421 7 l 397 -78 q 481 -110 450 -81 q 513 -186 513 -139 q 476 -266 513 -236 q 386 -296 440 -296 m 408 839 q 281 881 333 839 q 225 996 228 924 l 251 996 q 299 901 254 936 q 408 865 344 865 q 519 901 474 865 q 565 996 564 936 l 592 996 q 537 881 590 924 q 408 839 483 839 z "},"ê":{"ha":815,"x_min":75,"x_max":740,"o":"m 433 -4 q 249 42 329 -4 q 122 172 168 89 q 75 360 75 254 q 118 548 75 467 q 237 676 161 629 q 407 722 313 722 q 577 677 501 722 q 697 551 653 632 q 740 367 740 471 q 740 364 740 365 q 740 360 740 363 l 90 360 l 90 386 l 725 386 l 714 365 q 674 535 714 460 q 565 653 633 610 q 407 696 496 696 q 250 653 319 696 q 141 535 181 610 q 101 365 101 460 l 101 360 q 144 185 101 261 q 263 65 188 108 q 433 22 338 22 q 570 50 506 22 q 678 133 635 78 l 697 114 q 581 26 650 56 q 433 -4 511 -4 m 217 843 l 386 996 l 431 996 l 600 843 l 563 843 l 404 976 l 413 976 l 254 843 l 217 843 z "},"ế":{"ha":815,"x_min":75,"x_max":744,"o":"m 433 -4 q 249 42 329 -4 q 122 172 168 89 q 75 360 75 254 q 118 548 75 467 q 237 676 161 629 q 407 722 313 722 q 577 677 501 722 q 697 551 653 632 q 740 367 740 471 q 740 364 740 365 q 740 360 740 363 l 90 360 l 90 386 l 725 386 l 714 365 q 674 535 714 460 q 565 653 633 610 q 407 696 496 696 q 250 653 319 696 q 141 535 181 610 q 101 365 101 460 l 101 360 q 144 185 101 261 q 263 65 188 108 q 433 22 338 22 q 570 50 506 22 q 678 133 635 78 l 697 114 q 581 26 650 56 q 433 -4 511 -4 z "},"ệ":{"ha":815,"x_min":75,"x_max":740,"o":"m 433 -4 q 249 42 329 -4 q 122 172 168 89 q 75 360 75 254 q 118 548 75 467 q 237 676 161 629 q 407 722 313 722 q 577 677 501 722 q 697 551 653 632 q 740 367 740 471 q 740 364 740 365 q 740 360 740 363 l 90 360 l 90 386 l 725 386 l 714 365 q 674 535 714 460 q 565 653 633 610 q 407 696 496 696 q 250 653 319 696 q 141 535 181 610 q 101 365 101 460 l 101 360 q 144 185 101 261 q 263 65 188 108 q 433 22 338 22 q 570 50 506 22 q 678 133 635 78 l 697 114 q 581 26 650 56 q 433 -4 511 -4 m 408 -244 q 383 -233 394 -244 q 372 -208 372 -222 q 383 -183 372 -193 q 408 -172 394 -172 q 434 -183 424 -172 q 444 -208 444 -193 q 434 -233 444 -222 q 408 -244 424 -244 m 217 843 l 386 996 l 431 996 l 600 843 l 563 843 l 404 976 l 413 976 l 254 843 l 217 843 z "},"ề":{"ha":815,"x_min":75,"x_max":740,"o":"m 433 -4 q 249 42 329 -4 q 122 172 168 89 q 75 360 75 254 q 118 548 75 467 q 237 676 161 629 q 407 722 313 722 q 577 677 501 722 q 697 551 653 632 q 740 367 740 471 q 740 364 740 365 q 740 360 740 363 l 90 360 l 90 386 l 725 386 l 714 365 q 674 535 714 460 q 565 653 633 610 q 407 696 496 696 q 250 653 319 696 q 141 535 181 610 q 101 365 101 460 l 101 360 q 144 185 101 261 q 263 65 188 108 q 433 22 338 22 q 570 50 506 22 q 678 133 635 78 l 697 114 q 581 26 650 56 q 433 -4 511 -4 z "},"ể":{"ha":815,"x_min":75,"x_max":740,"o":"m 433 -4 q 249 42 329 -4 q 122 172 168 89 q 75 360 75 254 q 118 548 75 467 q 237 676 161 629 q 407 722 313 722 q 577 677 501 722 q 697 551 653 632 q 740 367 740 471 q 740 364 740 365 q 740 360 740 363 l 90 360 l 90 386 l 725 386 l 714 365 q 674 535 714 460 q 565 653 633 610 q 407 696 496 696 q 250 653 319 696 q 141 535 181 610 q 101 365 101 460 l 101 360 q 144 185 101 261 q 263 65 188 108 q 433 22 338 22 q 570 50 506 22 q 678 133 635 78 l 697 114 q 581 26 650 56 q 433 -4 511 -4 z "},"ễ":{"ha":815,"x_min":75,"x_max":740,"o":"m 433 -4 q 249 42 329 -4 q 122 172 168 89 q 75 360 75 254 q 118 548 75 467 q 237 676 161 629 q 407 722 313 722 q 577 677 501 722 q 697 551 653 632 q 740 367 740 471 q 740 364 740 365 q 740 360 740 363 l 90 360 l 90 386 l 725 386 l 714 365 q 674 535 714 460 q 565 653 633 610 q 407 696 496 696 q 250 653 319 696 q 141 535 181 610 q 101 365 101 460 l 101 360 q 144 185 101 261 q 263 65 188 108 q 433 22 338 22 q 570 50 506 22 q 678 133 635 78 l 697 114 q 581 26 650 56 q 433 -4 511 -4 z "},"ȅ":{"ha":815,"x_min":75,"x_max":740,"o":"m 433 -4 q 249 42 329 -4 q 122 172 168 89 q 75 360 75 254 q 118 548 75 467 q 237 676 161 629 q 407 722 313 722 q 577 677 501 722 q 697 551 653 632 q 740 367 740 471 q 740 364 740 365 q 740 360 740 363 l 90 360 l 90 386 l 725 386 l 714 365 q 674 535 714 460 q 565 653 633 610 q 407 696 496 696 q 250 653 319 696 q 141 535 181 610 q 101 365 101 460 l 101 360 q 144 185 101 261 q 263 65 188 108 q 433 22 338 22 q 570 50 506 22 q 678 133 635 78 l 697 114 q 581 26 650 56 q 433 -4 511 -4 m 486 843 l 322 996 l 369 996 l 524 843 l 486 843 m 293 843 l 129 996 l 176 996 l 331 843 l 293 843 z "},"ë":{"ha":815,"x_min":75,"x_max":740,"o":"m 433 -4 q 249 42 329 -4 q 122 172 168 89 q 75 360 75 254 q 118 548 75 467 q 237 676 161 629 q 407 722 313 722 q 577 677 501 722 q 697 551 653 632 q 740 367 740 471 q 740 364 740 365 q 740 360 740 363 l 90 360 l 90 386 l 725 386 l 714 365 q 674 535 714 460 q 565 653 633 610 q 407 696 496 696 q 250 653 319 696 q 141 535 181 610 q 101 365 101 460 l 101 360 q 144 185 101 261 q 263 65 188 108 q 433 22 338 22 q 570 50 506 22 q 678 133 635 78 l 697 114 q 581 26 650 56 q 433 -4 511 -4 m 522 890 q 497 901 508 890 q 486 926 486 913 q 497 952 486 942 q 522 963 508 963 q 548 952 538 963 q 558 926 558 942 q 548 901 558 913 q 522 890 538 890 m 294 890 q 269 901 281 890 q 258 926 258 913 q 269 952 258 942 q 294 963 281 963 q 320 952 310 963 q 331 926 331 942 q 320 901 331 913 q 294 890 310 890 z "},"ė":{"ha":815,"x_min":75,"x_max":740,"o":"m 433 -4 q 249 42 329 -4 q 122 172 168 89 q 75 360 75 254 q 118 548 75 467 q 237 676 161 629 q 407 722 313 722 q 577 677 501 722 q 697 551 653 632 q 740 367 740 471 q 740 364 740 365 q 740 360 740 363 l 90 360 l 90 386 l 725 386 l 714 365 q 674 535 714 460 q 565 653 633 610 q 407 696 496 696 q 250 653 319 696 q 141 535 181 610 q 101 365 101 460 l 101 360 q 144 185 101 261 q 263 65 188 108 q 433 22 338 22 q 570 50 506 22 q 678 133 635 78 l 697 114 q 581 26 650 56 q 433 -4 511 -4 m 408 890 q 383 901 394 890 q 372 926 372 913 q 383 952 372 942 q 408 963 394 963 q 434 952 424 963 q 444 926 444 942 q 434 901 444 913 q 408 890 424 890 z "},"ẹ":{"ha":815,"x_min":75,"x_max":740,"o":"m 433 -4 q 249 42 329 -4 q 122 172 168 89 q 75 360 75 254 q 118 548 75 467 q 237 676 161 629 q 407 722 313 722 q 577 677 501 722 q 697 551 653 632 q 740 367 740 471 q 740 364 740 365 q 740 360 740 363 l 90 360 l 90 386 l 725 386 l 714 365 q 674 535 714 460 q 565 653 633 610 q 407 696 496 696 q 250 653 319 696 q 141 535 181 610 q 101 365 101 460 l 101 360 q 144 185 101 261 q 263 65 188 108 q 433 22 338 22 q 570 50 506 22 q 678 133 635 78 l 697 114 q 581 26 650 56 q 433 -4 511 -4 m 408 -244 q 383 -233 394 -244 q 372 -208 372 -222 q 383 -183 372 -193 q 408 -172 394 -172 q 434 -183 424 -172 q 444 -208 444 -193 q 434 -233 444 -222 q 408 -244 424 -244 z "},"è":{"ha":815,"x_min":75,"x_max":740,"o":"m 433 -4 q 249 42 329 -4 q 122 172 168 89 q 75 360 75 254 q 118 548 75 467 q 237 676 161 629 q 407 722 313 722 q 577 677 501 722 q 697 551 653 632 q 740 367 740 471 q 740 364 740 365 q 740 360 740 363 l 90 360 l 90 386 l 725 386 l 714 365 q 674 535 714 460 q 565 653 633 610 q 407 696 496 696 q 250 653 319 696 q 141 535 181 610 q 101 365 101 460 l 101 360 q 144 185 101 261 q 263 65 188 108 q 433 22 338 22 q 570 50 506 22 q 678 133 635 78 l 697 114 q 581 26 650 56 q 433 -4 511 -4 m 429 843 l 221 996 l 276 996 l 471 843 l 429 843 z "},"ẻ":{"ha":815,"x_min":75,"x_max":740,"o":"m 433 -4 q 249 42 329 -4 q 122 172 168 89 q 75 360 75 254 q 118 548 75 467 q 237 676 161 629 q 407 722 313 722 q 577 677 501 722 q 697 551 653 632 q 740 367 740 471 q 740 364 740 365 q 740 360 740 363 l 90 360 l 90 386 l 725 386 l 714 365 q 674 535 714 460 q 565 653 633 610 q 407 696 496 696 q 250 653 319 696 q 141 535 181 610 q 101 365 101 460 l 101 360 q 144 185 101 261 q 263 65 188 108 q 433 22 338 22 q 570 50 506 22 q 678 133 635 78 l 697 114 q 581 26 650 56 q 433 -4 511 -4 m 411 838 l 397 860 q 463 906 440 879 q 485 967 485 932 q 463 1020 485 999 q 404 1042 440 1042 q 318 1015 358 1042 l 307 1039 q 353 1060 326 1053 q 403 1068 379 1068 q 483 1041 453 1068 q 513 968 513 1014 q 488 894 513 926 q 411 838 464 863 z "},"ȇ":{"ha":815,"x_min":75,"x_max":740,"o":"m 433 -4 q 249 42 329 -4 q 122 172 168 89 q 75 360 75 254 q 118 548 75 467 q 237 676 161 629 q 407 722 313 722 q 577 677 501 722 q 697 551 653 632 q 740 367 740 471 q 740 364 740 365 q 740 360 740 363 l 90 360 l 90 386 l 725 386 l 714 365 q 674 535 714 460 q 565 653 633 610 q 407 696 496 696 q 250 653 319 696 q 141 535 181 610 q 101 365 101 460 l 101 360 q 144 185 101 261 q 263 65 188 108 q 433 22 338 22 q 570 50 506 22 q 678 133 635 78 l 697 114 q 581 26 650 56 q 433 -4 511 -4 m 225 843 q 281 958 228 917 q 408 1000 333 1000 q 537 958 483 1000 q 592 843 590 917 l 565 843 q 519 939 564 904 q 408 974 474 974 q 299 939 344 974 q 251 843 254 904 l 225 843 z "},"ē":{"ha":815,"x_min":75,"x_max":740,"o":"m 433 -4 q 249 42 329 -4 q 122 172 168 89 q 75 360 75 254 q 118 548 75 467 q 237 676 161 629 q 407 722 313 722 q 577 677 501 722 q 697 551 653 632 q 740 367 740 471 q 740 364 740 365 q 740 360 740 363 l 90 360 l 90 386 l 725 386 l 714 365 q 674 535 714 460 q 565 653 633 610 q 407 696 496 696 q 250 653 319 696 q 141 535 181 610 q 101 365 101 460 l 101 360 q 144 185 101 261 q 263 65 188 108 q 433 22 338 22 q 570 50 506 22 q 678 133 635 78 l 697 114 q 581 26 650 56 q 433 -4 511 -4 m 219 906 l 219 933 l 597 933 l 597 906 l 219 906 z "},"ḗ":{"ha":815,"x_min":75,"x_max":740,"o":"m 433 -4 q 249 42 329 -4 q 122 172 168 89 q 75 360 75 254 q 118 548 75 467 q 237 676 161 629 q 407 722 313 722 q 577 677 501 722 q 697 551 653 632 q 740 367 740 471 q 740 364 740 365 q 740 360 740 363 l 90 360 l 90 386 l 725 386 l 714 365 q 674 535 714 460 q 565 653 633 610 q 407 696 496 696 q 250 653 319 696 q 141 535 181 610 q 101 365 101 460 l 101 360 q 144 185 101 261 q 263 65 188 108 q 433 22 338 22 q 570 50 506 22 q 678 133 635 78 l 697 114 q 581 26 650 56 q 433 -4 511 -4 z "},"ḕ":{"ha":815,"x_min":75,"x_max":740,"o":"m 433 -4 q 249 42 329 -4 q 122 172 168 89 q 75 360 75 254 q 118 548 75 467 q 237 676 161 629 q 407 722 313 722 q 577 677 501 722 q 697 551 653 632 q 740 367 740 471 q 740 364 740 365 q 740 360 740 363 l 90 360 l 90 386 l 725 386 l 714 365 q 674 535 714 460 q 565 653 633 610 q 407 696 496 696 q 250 653 319 696 q 141 535 181 610 q 101 365 101 460 l 101 360 q 144 185 101 261 q 263 65 188 108 q 433 22 338 22 q 570 50 506 22 q 678 133 635 78 l 697 114 q 581 26 650 56 q 433 -4 511 -4 z "},"ę":{"ha":815,"x_min":75,"x_max":740,"o":"m 582 -296 q 492 -265 528 -296 q 456 -179 456 -235 q 480 -86 456 -139 q 585 35 504 -33 l 585 28 q 512 4 550 13 q 433 -4 474 -4 q 249 42 329 -4 q 122 172 168 89 q 75 360 75 254 q 118 548 75 467 q 237 676 161 629 q 407 722 313 722 q 577 677 501 722 q 697 551 653 632 q 740 367 740 471 q 740 364 740 365 q 740 360 740 363 l 90 360 l 90 386 l 725 386 l 714 365 q 674 535 714 460 q 565 653 633 610 q 407 696 496 696 q 250 653 319 696 q 141 535 181 610 q 101 365 101 460 l 101 360 q 144 185 101 261 q 263 65 188 108 q 433 22 338 22 q 570 50 506 22 q 678 133 635 78 l 697 114 q 675 90 688 101 q 647 65 663 79 q 540 -45 575 -1 q 494 -119 506 -89 q 483 -179 483 -150 q 512 -247 483 -225 q 583 -269 540 -269 q 630 -261 607 -269 q 669 -237 653 -253 l 685 -258 q 637 -287 663 -278 q 582 -296 611 -296 z "},"ẽ":{"ha":815,"x_min":75,"x_max":740,"o":"m 433 -4 q 249 42 329 -4 q 122 172 168 89 q 75 360 75 254 q 118 548 75 467 q 237 676 161 629 q 407 722 313 722 q 577 677 501 722 q 697 551 653 632 q 740 367 740 471 q 740 364 740 365 q 740 360 740 363 l 90 360 l 90 386 l 725 386 l 714 365 q 674 535 714 460 q 565 653 633 610 q 407 696 496 696 q 250 653 319 696 q 141 535 181 610 q 101 365 101 460 l 101 360 q 144 185 101 261 q 263 65 188 108 q 433 22 338 22 q 570 50 506 22 q 678 133 635 78 l 697 114 q 581 26 650 56 q 433 -4 511 -4 m 496 860 q 444 874 467 860 q 402 908 421 889 q 364 941 383 926 q 321 956 344 956 q 268 931 288 956 q 246 863 249 906 l 219 863 q 249 949 222 917 q 321 982 276 982 q 373 967 350 982 q 415 934 396 953 q 453 901 433 915 q 496 886 472 886 q 549 911 529 886 q 571 976 569 936 l 597 976 q 568 892 596 925 q 496 860 540 860 z "},"ə":{"ha":815,"x_min":75,"x_max":740,"o":"m 382 722 q 567 676 486 722 q 694 547 647 629 q 740 358 740 465 q 697 171 740 253 q 579 42 654 89 q 408 -4 504 -4 q 238 42 314 -4 q 119 167 163 88 q 75 351 75 247 q 75 356 75 354 q 75 358 75 357 l 725 358 l 725 332 l 90 332 l 101 353 q 142 183 101 258 q 251 65 182 108 q 408 22 321 22 q 566 65 497 22 q 674 183 635 108 q 714 353 714 258 l 714 358 q 671 534 714 458 q 553 653 628 610 q 382 696 478 696 q 245 669 310 696 q 138 585 181 642 l 118 604 q 236 692 167 663 q 382 722 306 722 z "},"ʒ":{"ha":676,"x_min":-36,"x_max":618,"o":"m 297 -275 q 98 -235 188 -275 q -36 -135 8 -196 l -18 -117 q 106 -210 22 -172 q 297 -249 190 -249 q 516 -181 442 -249 q 590 0 590 -114 q 515 181 590 114 q 279 249 439 249 l 229 249 l 229 269 l 551 701 l 554 692 l -6 692 l -6 718 l 582 718 l 582 697 l 260 265 l 257 275 l 278 275 q 534 199 450 275 q 618 0 618 124 q 581 -144 618 -82 q 473 -240 544 -206 q 297 -275 401 -275 z "},"ǯ":{"ha":676,"x_min":-36,"x_max":618,"o":"m 297 -275 q 98 -235 188 -275 q -36 -135 8 -196 l -18 -117 q 106 -210 22 -172 q 297 -249 190 -249 q 516 -181 442 -249 q 590 0 590 -114 q 515 181 590 114 q 279 249 439 249 l 229 249 l 229 269 l 551 701 l 554 692 l -6 692 l -6 718 l 582 718 l 582 697 l 260 265 l 257 275 l 278 275 q 534 199 450 275 q 618 0 618 124 q 581 -144 618 -82 q 473 -240 544 -206 q 297 -275 401 -275 m 274 843 l 104 996 l 142 996 l 300 863 l 292 863 l 450 996 l 488 996 l 318 843 l 274 843 z "},"f":{"ha":432,"x_min":32,"x_max":485,"o":"m 171 0 l 171 858 q 216 986 171 938 q 344 1035 261 1035 q 422 1022 383 1035 q 485 983 460 1010 l 465 964 q 412 997 443 986 q 346 1008 381 1008 q 236 968 274 1008 q 199 851 199 928 l 199 714 l 199 699 l 199 0 l 171 0 m 32 692 l 32 718 l 442 718 l 442 692 l 32 692 z "},"g":{"ha":940,"x_min":75,"x_max":781,"o":"m 449 -274 q 267 -242 351 -274 q 131 -154 182 -210 l 150 -135 q 282 -218 206 -189 q 449 -247 358 -247 q 678 -174 604 -247 q 753 60 753 -100 l 753 290 l 767 374 l 753 457 l 753 718 l 781 718 l 781 64 q 698 -192 781 -110 q 449 -274 615 -274 m 428 24 q 248 69 328 24 q 122 193 168 114 q 75 374 75 272 q 122 555 75 476 q 248 678 168 633 q 428 722 328 722 q 608 678 529 722 q 731 555 686 633 q 776 374 776 476 q 731 193 776 272 q 608 69 686 114 q 428 24 529 24 m 428 50 q 595 91 522 50 q 710 206 668 132 q 753 374 753 279 q 710 542 753 469 q 595 655 668 614 q 428 696 522 696 q 261 655 335 696 q 145 542 188 614 q 103 374 103 469 q 145 206 103 279 q 261 91 188 132 q 428 50 335 50 z "},"ğ":{"ha":940,"x_min":75,"x_max":781,"o":"m 449 -274 q 267 -242 351 -274 q 131 -154 182 -210 l 150 -135 q 282 -218 206 -189 q 449 -247 358 -247 q 678 -174 604 -247 q 753 60 753 -100 l 753 290 l 767 374 l 753 457 l 753 718 l 781 718 l 781 64 q 698 -192 781 -110 q 449 -274 615 -274 m 428 24 q 248 69 328 24 q 122 193 168 114 q 75 374 75 272 q 122 555 75 476 q 248 678 168 633 q 428 722 328 722 q 608 678 529 722 q 731 555 686 633 q 776 374 776 476 q 731 193 776 272 q 608 69 686 114 q 428 24 529 24 m 428 50 q 595 91 522 50 q 710 206 668 132 q 753 374 753 279 q 710 542 753 469 q 595 655 668 614 q 428 696 522 696 q 261 655 335 696 q 145 542 188 614 q 103 374 103 469 q 145 206 103 279 q 261 91 188 132 q 428 50 335 50 m 438 839 q 310 881 363 839 q 254 996 257 924 l 281 996 q 328 901 283 936 q 438 865 374 865 q 548 901 503 865 q 594 996 593 936 l 621 996 q 566 881 619 924 q 438 839 513 839 z "},"ǧ":{"ha":940,"x_min":75,"x_max":781,"o":"m 449 -274 q 267 -242 351 -274 q 131 -154 182 -210 l 150 -135 q 282 -218 206 -189 q 449 -247 358 -247 q 678 -174 604 -247 q 753 60 753 -100 l 753 290 l 767 374 l 753 457 l 753 718 l 781 718 l 781 64 q 698 -192 781 -110 q 449 -274 615 -274 m 428 24 q 248 69 328 24 q 122 193 168 114 q 75 374 75 272 q 122 555 75 476 q 248 678 168 633 q 428 722 328 722 q 608 678 529 722 q 731 555 686 633 q 776 374 776 476 q 731 193 776 272 q 608 69 686 114 q 428 24 529 24 m 428 50 q 595 91 522 50 q 710 206 668 132 q 753 374 753 279 q 710 542 753 469 q 595 655 668 614 q 428 696 522 696 q 261 655 335 696 q 145 542 188 614 q 103 374 103 469 q 145 206 103 279 q 261 91 188 132 q 428 50 335 50 m 415 843 l 246 996 l 283 996 l 442 863 l 433 863 l 592 996 l 629 996 l 460 843 l 415 843 z "},"ĝ":{"ha":940,"x_min":75,"x_max":781,"o":"m 449 -274 q 267 -242 351 -274 q 131 -154 182 -210 l 150 -135 q 282 -218 206 -189 q 449 -247 358 -247 q 678 -174 604 -247 q 753 60 753 -100 l 753 290 l 767 374 l 753 457 l 753 718 l 781 718 l 781 64 q 698 -192 781 -110 q 449 -274 615 -274 m 428 24 q 248 69 328 24 q 122 193 168 114 q 75 374 75 272 q 122 555 75 476 q 248 678 168 633 q 428 722 328 722 q 608 678 529 722 q 731 555 686 633 q 776 374 776 476 q 731 193 776 272 q 608 69 686 114 q 428 24 529 24 m 428 50 q 595 91 522 50 q 710 206 668 132 q 753 374 753 279 q 710 542 753 469 q 595 655 668 614 q 428 696 522 696 q 261 655 335 696 q 145 542 188 614 q 103 374 103 469 q 145 206 103 279 q 261 91 188 132 q 428 50 335 50 m 246 843 l 415 996 l 460 996 l 629 843 l 592 843 l 433 976 l 442 976 l 283 843 l 246 843 z "},"ģ":{"ha":940,"x_min":75,"x_max":781,"o":"m 449 -274 q 267 -242 351 -274 q 131 -154 182 -210 l 150 -135 q 282 -218 206 -189 q 449 -247 358 -247 q 678 -174 604 -247 q 753 60 753 -100 l 753 290 l 767 374 l 753 457 l 753 718 l 781 718 l 781 64 q 698 -192 781 -110 q 449 -274 615 -274 m 428 24 q 248 69 328 24 q 122 193 168 114 q 75 374 75 272 q 122 555 75 476 q 248 678 168 633 q 428 722 328 722 q 608 678 529 722 q 731 555 686 633 q 776 374 776 476 q 731 193 776 272 q 608 69 686 114 q 428 24 529 24 m 428 50 q 595 91 522 50 q 710 206 668 132 q 753 374 753 279 q 710 542 753 469 q 595 655 668 614 q 428 696 522 696 q 261 655 335 696 q 145 542 188 614 q 103 374 103 469 q 145 206 103 279 q 261 91 188 132 q 428 50 335 50 m 438 839 q 411 851 421 839 q 401 875 401 863 q 404 895 401 886 q 408 915 407 904 l 447 1054 l 472 1054 l 439 896 l 438 911 q 463 901 453 911 q 474 875 474 890 q 463 850 474 861 q 438 839 453 839 z "},"ġ":{"ha":940,"x_min":75,"x_max":781,"o":"m 449 -274 q 267 -242 351 -274 q 131 -154 182 -210 l 150 -135 q 282 -218 206 -189 q 449 -247 358 -247 q 678 -174 604 -247 q 753 60 753 -100 l 753 290 l 767 374 l 753 457 l 753 718 l 781 718 l 781 64 q 698 -192 781 -110 q 449 -274 615 -274 m 428 24 q 248 69 328 24 q 122 193 168 114 q 75 374 75 272 q 122 555 75 476 q 248 678 168 633 q 428 722 328 722 q 608 678 529 722 q 731 555 686 633 q 776 374 776 476 q 731 193 776 272 q 608 69 686 114 q 428 24 529 24 m 428 50 q 595 91 522 50 q 710 206 668 132 q 753 374 753 279 q 710 542 753 469 q 595 655 668 614 q 428 696 522 696 q 261 655 335 696 q 145 542 188 614 q 103 374 103 469 q 145 206 103 279 q 261 91 188 132 q 428 50 335 50 m 438 890 q 413 901 424 890 q 401 926 401 913 q 413 952 401 942 q 438 963 424 963 q 463 952 453 963 q 474 926 474 942 q 463 901 474 913 q 438 890 453 890 z "},"ḡ":{"ha":940,"x_min":75,"x_max":781,"o":"m 449 -274 q 267 -242 351 -274 q 131 -154 182 -210 l 150 -135 q 282 -218 206 -189 q 449 -247 358 -247 q 678 -174 604 -247 q 753 60 753 -100 l 753 290 l 767 374 l 753 457 l 753 718 l 781 718 l 781 64 q 698 -192 781 -110 q 449 -274 615 -274 m 428 24 q 248 69 328 24 q 122 193 168 114 q 75 374 75 272 q 122 555 75 476 q 248 678 168 633 q 428 722 328 722 q 608 678 529 722 q 731 555 686 633 q 776 374 776 476 q 731 193 776 272 q 608 69 686 114 q 428 24 529 24 m 428 50 q 595 91 522 50 q 710 206 668 132 q 753 374 753 279 q 710 542 753 469 q 595 655 668 614 q 428 696 522 696 q 261 655 335 696 q 145 542 188 614 q 103 374 103 469 q 145 206 103 279 q 261 91 188 132 q 428 50 335 50 m 249 906 l 249 933 l 626 933 l 626 906 l 249 906 z "},"ǥ":{"ha":943,"x_min":75,"x_max":869,"o":"m 449 -274 q 267 -242 351 -274 q 131 -154 182 -210 l 150 -135 q 282 -218 206 -189 q 449 -247 358 -247 q 678 -174 604 -247 q 753 60 753 -100 l 753 290 l 767 374 l 753 457 l 753 718 l 781 718 l 781 64 q 698 -192 781 -110 q 449 -274 615 -274 m 414 -96 l 414 -69 l 869 -69 l 869 -96 l 414 -96 m 428 24 q 248 69 328 24 q 122 193 168 114 q 75 374 75 272 q 122 555 75 476 q 248 678 168 633 q 428 722 328 722 q 608 678 529 722 q 731 555 686 633 q 776 374 776 476 q 731 193 776 272 q 608 69 686 114 q 428 24 529 24 m 428 50 q 595 91 522 50 q 710 206 668 132 q 753 374 753 279 q 710 542 753 469 q 595 655 668 614 q 428 696 522 696 q 261 655 335 696 q 145 542 188 614 q 103 374 103 469 q 145 206 103 279 q 261 91 188 132 q 428 50 335 50 z "},"h":{"ha":928,"x_min":160,"x_max":776,"o":"m 489 722 q 642 688 578 722 q 741 588 706 654 q 776 424 776 521 l 776 0 l 749 0 l 749 424 q 681 626 749 557 q 490 696 613 696 q 328 658 396 696 q 224 551 260 619 q 188 390 188 482 l 188 0 l 160 0 l 160 1031 l 188 1031 l 188 514 l 185 518 q 294 667 217 613 q 489 722 372 722 z "},"ħ":{"ha":928,"x_min":0,"x_max":776,"o":"m 489 722 q 642 688 578 722 q 741 588 706 654 q 776 424 776 521 l 776 0 l 749 0 l 749 424 q 681 626 749 557 q 490 696 613 696 q 328 658 396 696 q 224 551 260 619 q 188 390 188 482 l 188 0 l 160 0 l 160 1031 l 188 1031 l 188 514 l 185 518 q 294 667 217 613 q 489 722 372 722 m 0 863 l 0 889 l 525 889 l 525 863 l 0 863 z "},"ḫ":{"ha":928,"x_min":160,"x_max":776,"o":"m 489 722 q 642 688 578 722 q 741 588 706 654 q 776 424 776 521 l 776 0 l 749 0 l 749 424 q 681 626 749 557 q 490 696 613 696 q 328 658 396 696 q 224 551 260 619 q 188 390 188 482 l 188 0 l 160 0 l 160 1031 l 188 1031 l 188 514 l 185 518 q 294 667 217 613 q 489 722 372 722 m 465 -275 q 338 -235 390 -275 q 282 -125 285 -194 l 308 -125 q 356 -215 311 -182 q 465 -249 401 -249 q 576 -215 531 -249 q 622 -125 621 -182 l 649 -125 q 594 -235 647 -194 q 465 -275 540 -275 z "},"ȟ":{"ha":928,"x_min":-18,"x_max":776,"o":"m 489 722 q 642 688 578 722 q 741 588 706 654 q 776 424 776 521 l 776 0 l 749 0 l 749 424 q 681 626 749 557 q 490 696 613 696 q 328 658 396 696 q 224 551 260 619 q 188 390 188 482 l 188 0 l 160 0 l 160 1031 l 188 1031 l 188 514 l 185 518 q 294 667 217 613 q 489 722 372 722 m 151 1156 l -18 1308 l 19 1308 l 178 1175 l 169 1175 l 328 1308 l 365 1308 l 196 1156 l 151 1156 z "},"ĥ":{"ha":928,"x_min":-18,"x_max":776,"o":"m 489 722 q 642 688 578 722 q 741 588 706 654 q 776 424 776 521 l 776 0 l 749 0 l 749 424 q 681 626 749 557 q 490 696 613 696 q 328 658 396 696 q 224 551 260 619 q 188 390 188 482 l 188 0 l 160 0 l 160 1031 l 188 1031 l 188 514 l 185 518 q 294 667 217 613 q 489 722 372 722 z "},"ḥ":{"ha":928,"x_min":160,"x_max":776,"o":"m 489 722 q 642 688 578 722 q 741 588 706 654 q 776 424 776 521 l 776 0 l 749 0 l 749 424 q 681 626 749 557 q 490 696 613 696 q 328 658 396 696 q 224 551 260 619 q 188 390 188 482 l 188 0 l 160 0 l 160 1031 l 188 1031 l 188 514 l 185 518 q 294 667 217 613 q 489 722 372 722 m 465 -244 q 440 -233 451 -244 q 429 -208 429 -222 q 440 -183 429 -193 q 465 -172 451 -172 q 491 -183 481 -172 q 501 -208 501 -193 q 491 -233 501 -222 q 465 -244 481 -244 z "},"i":{"ha":347,"x_min":138,"x_max":210,"o":"m 160 0 l 160 718 l 188 718 l 188 0 l 160 0 m 174 917 q 149 928 160 917 q 138 953 138 939 q 149 978 138 968 q 174 989 160 989 q 199 978 189 989 q 210 953 210 968 q 199 928 210 939 q 174 917 189 917 z "},"ı":{"ha":347,"x_min":160,"x_max":188,"o":"m 160 0 l 160 718 l 188 718 l 188 0 l 160 0 z "},"í":{"ha":347,"x_min":111,"x_max":361,"o":"m 160 0 l 160 718 l 188 718 l 188 0 l 160 0 m 111 843 l 306 996 l 361 996 l 153 843 l 111 843 z "},"ĭ":{"ha":347,"x_min":25,"x_max":322,"o":"m 160 0 l 160 718 l 188 718 l 188 0 l 160 0 m 174 839 q 67 881 110 839 q 25 996 25 924 l 51 996 q 85 901 51 936 q 174 865 119 865 q 262 901 228 865 q 296 996 296 936 l 322 996 q 281 881 322 924 q 174 839 239 839 z "},"î":{"ha":347,"x_min":17,"x_max":331,"o":"m 160 0 l 160 718 l 188 718 l 188 0 l 160 0 m 17 843 l 153 996 l 194 996 l 331 843 l 293 843 l 171 976 l 176 976 l 54 843 l 17 843 z "},"ȉ":{"ha":347,"x_min":-106,"x_max":289,"o":"m 160 0 l 160 718 l 188 718 l 188 0 l 160 0 m 251 843 l 88 996 l 135 996 l 289 843 l 251 843 m 58 843 l -106 996 l -58 996 l 96 843 l 58 843 z "},"ï":{"ha":347,"x_min":61,"x_max":286,"o":"m 160 0 l 160 718 l 188 718 l 188 0 l 160 0 m 251 890 q 227 901 238 890 q 217 926 217 913 q 227 952 217 942 q 251 963 238 963 q 276 952 267 963 q 286 926 286 942 q 276 901 286 913 q 251 890 267 890 m 96 890 q 72 901 82 890 q 61 926 61 913 q 72 952 61 942 q 96 963 82 963 q 121 952 111 963 q 131 926 131 942 q 121 901 131 913 q 96 890 111 890 z "},"ḯ":{"ha":347,"x_min":24,"x_max":343,"o":"m 160 0 l 160 718 l 188 718 l 188 0 l 160 0 z "},"ị":{"ha":347,"x_min":138,"x_max":210,"o":"m 160 0 l 160 718 l 188 718 l 188 0 l 160 0 m 174 917 q 149 928 160 917 q 138 953 138 939 q 149 978 138 968 q 174 989 160 989 q 199 978 189 989 q 210 953 210 968 q 199 928 210 939 q 174 917 189 917 m 174 -244 q 149 -233 160 -244 q 138 -208 138 -222 q 149 -183 138 -193 q 174 -172 160 -172 q 199 -183 189 -172 q 210 -208 210 -193 q 199 -233 210 -222 q 174 -244 189 -244 z "},"ì":{"ha":347,"x_min":-14,"x_max":236,"o":"m 160 0 l 160 718 l 188 718 l 188 0 l 160 0 m 194 843 l -14 996 l 42 996 l 236 843 l 194 843 z "},"ỉ":{"ha":347,"x_min":72,"x_max":278,"o":"m 160 0 l 160 718 l 188 718 l 188 0 l 160 0 m 176 838 l 163 860 q 228 906 206 879 q 250 967 250 932 q 228 1020 250 999 q 169 1042 206 1042 q 83 1015 124 1042 l 72 1039 q 118 1060 92 1053 q 168 1068 144 1068 q 248 1041 218 1068 q 278 968 278 1014 q 253 894 278 926 q 176 838 229 863 z "},"ȋ":{"ha":347,"x_min":25,"x_max":322,"o":"m 160 0 l 160 718 l 188 718 l 188 0 l 160 0 m 25 843 q 67 958 25 917 q 174 1000 110 1000 q 281 958 239 1000 q 322 843 322 917 l 296 843 q 262 939 296 904 q 174 974 228 974 q 85 939 119 974 q 51 843 51 904 l 25 843 z "},"ĳ":{"ha":701,"x_min":138,"x_max":564,"o":"m 160 0 l 160 718 l 188 718 l 188 0 l 160 0 m 174 917 q 149 928 160 917 q 138 953 138 939 q 149 978 138 968 q 174 989 160 989 q 199 978 189 989 q 210 953 210 968 q 199 928 210 939 q 174 917 189 917 z "},"ī":{"ha":347,"x_min":19,"x_max":328,"o":"m 160 0 l 160 718 l 188 718 l 188 0 l 160 0 m 19 906 l 19 933 l 328 933 l 328 906 l 19 906 z "},"į":{"ha":347,"x_min":83,"x_max":247,"o":"m 160 0 l 160 718 l 188 718 l 188 0 l 160 0 m 174 917 q 149 928 160 917 q 138 953 138 939 q 149 978 138 968 q 174 989 160 989 q 199 978 189 989 q 210 953 210 968 q 199 928 210 939 q 174 917 189 917 m 176 -296 q 109 -265 135 -296 q 83 -187 83 -235 q 100 -93 83 -149 q 176 24 117 -37 l 188 0 q 122 -106 133 -61 q 111 -186 111 -151 q 131 -249 111 -228 q 176 -271 150 -271 q 208 -263 194 -271 q 232 -243 222 -256 l 247 -262 q 176 -296 221 -296 z "},"ĩ":{"ha":347,"x_min":19,"x_max":328,"o":"m 160 0 l 160 718 l 188 718 l 188 0 l 160 0 m 246 860 q 199 874 218 860 q 165 908 181 889 q 135 941 150 926 q 101 956 121 956 q 61 931 76 956 q 46 863 46 906 l 19 863 q 41 949 19 917 q 101 982 63 982 q 148 967 129 982 q 182 934 167 953 q 212 901 197 915 q 246 886 226 886 q 286 911 271 886 q 301 976 301 936 l 328 976 q 307 892 328 925 q 246 860 286 860 z "},"j":{"ha":354,"x_min":-119,"x_max":217,"o":"m 25 -274 q -56 -261 -17 -274 q -119 -222 -94 -249 l -100 -203 q 24 -247 -53 -247 q 130 -207 93 -247 q 167 -90 167 -167 l 167 718 l 194 718 l 194 -97 q 151 -225 194 -176 q 25 -274 107 -274 m 181 917 q 156 928 167 917 q 144 953 144 939 q 156 978 144 968 q 181 989 167 989 q 206 978 196 989 q 217 953 217 968 q 206 928 217 939 q 181 917 196 917 z "},"ȷ":{"ha":354,"x_min":-119,"x_max":194,"o":"m 25 -274 q -56 -261 -17 -274 q -119 -222 -94 -249 l -100 -203 q 24 -247 -53 -247 q 130 -207 93 -247 q 167 -90 167 -167 l 167 718 l 194 718 l 194 -97 q 151 -225 194 -176 q 25 -274 107 -274 z "},"ĵ":{"ha":354,"x_min":-119,"x_max":338,"o":"m 25 -274 q -56 -261 -17 -274 q -119 -222 -94 -249 l -100 -203 q 24 -247 -53 -247 q 130 -207 93 -247 q 167 -90 167 -167 l 167 718 l 194 718 l 194 -97 q 151 -225 194 -176 q 25 -274 107 -274 m 24 843 l 160 996 l 201 996 l 338 843 l 300 843 l 178 976 l 183 976 l 61 843 l 24 843 z "},"k":{"ha":792,"x_min":160,"x_max":767,"o":"m 178 214 l 178 247 l 694 718 l 735 718 l 422 432 l 400 415 l 178 214 m 160 0 l 160 1031 l 188 1031 l 188 0 l 160 0 m 731 0 l 394 422 l 417 439 l 767 0 l 731 0 z "},"ǩ":{"ha":792,"x_min":-18,"x_max":767,"o":"m 178 214 l 178 247 l 694 718 l 735 718 l 422 432 l 400 415 l 178 214 m 160 0 l 160 1031 l 188 1031 l 188 0 l 160 0 m 731 0 l 394 422 l 417 439 l 767 0 l 731 0 m 151 1156 l -18 1308 l 19 1308 l 178 1175 l 169 1175 l 328 1308 l 365 1308 l 196 1156 l 151 1156 z "},"ķ":{"ha":792,"x_min":160,"x_max":767,"o":"m 178 214 l 178 247 l 694 718 l 735 718 l 422 432 l 400 415 l 178 214 m 160 0 l 160 1031 l 188 1031 l 188 0 l 160 0 m 731 0 l 394 422 l 417 439 l 767 0 l 731 0 m 397 -360 l 425 -229 l 426 -244 q 401 -233 413 -244 q 390 -208 390 -222 q 401 -183 390 -193 q 426 -172 411 -172 q 453 -184 443 -172 q 463 -208 463 -196 q 460 -231 463 -219 q 454 -253 457 -242 l 422 -360 l 397 -360 z "},"ĸ":{"ha":774,"x_min":160,"x_max":767,"o":"m 178 214 l 178 247 l 694 718 l 735 718 l 422 432 l 400 415 l 178 214 m 160 0 l 160 718 l 188 718 l 188 0 l 160 0 m 731 0 l 394 422 l 417 439 l 767 0 l 731 0 z "},"l":{"ha":347,"x_min":160,"x_max":188,"o":"m 160 0 l 160 1031 l 188 1031 l 188 0 l 160 0 z "},"ĺ":{"ha":347,"x_min":111,"x_max":361,"o":"m 160 0 l 160 1031 l 188 1031 l 188 0 l 160 0 m 111 1156 l 306 1308 l 361 1308 l 153 1156 l 111 1156 z "},"ľ":{"ha":347,"x_min":160,"x_max":354,"o":"m 160 0 l 160 1031 l 188 1031 l 188 0 l 160 0 m 326 808 l 326 1058 l 354 1058 l 351 808 l 326 808 z "},"ļ":{"ha":347,"x_min":138,"x_max":210,"o":"m 160 0 l 160 1031 l 188 1031 l 188 0 l 160 0 m 144 -360 l 172 -229 l 174 -244 q 149 -233 160 -244 q 138 -208 138 -222 q 148 -183 138 -193 q 174 -172 158 -172 q 200 -184 190 -172 q 210 -208 210 -196 q 207 -231 210 -219 q 201 -253 204 -242 l 169 -360 l 144 -360 z "},"ŀ":{"ha":347,"x_min":160,"x_max":383,"o":"m 160 0 l 160 1031 l 188 1031 l 188 0 l 160 0 m 347 449 q 322 460 333 449 q 311 485 311 471 q 322 510 311 500 q 347 521 333 521 q 373 510 363 521 q 383 485 383 500 q 373 460 383 471 q 347 449 363 449 z "},"ḷ":{"ha":347,"x_min":138,"x_max":210,"o":"m 160 0 l 160 1031 l 188 1031 l 188 0 l 160 0 m 174 -244 q 149 -233 160 -244 q 138 -208 138 -222 q 149 -183 138 -193 q 174 -172 160 -172 q 199 -183 189 -172 q 210 -208 210 -193 q 199 -233 210 -222 q 174 -244 189 -244 z "},"ǉ":{"ha":701,"x_min":160,"x_max":564,"o":"m 160 0 l 160 1031 l 188 1031 l 188 0 l 160 0 m 372 -274 q 292 -261 331 -274 q 228 -222 253 -249 l 247 -203 q 371 -247 294 -247 q 477 -207 440 -247 q 514 -90 514 -167 l 514 718 l 542 718 l 542 -97 q 498 -225 542 -176 q 372 -274 454 -274 m 528 917 q 503 928 514 917 q 492 953 492 939 q 503 978 492 968 q 528 989 514 989 q 553 978 543 989 q 564 953 564 968 q 553 928 564 939 q 528 917 543 917 z "},"ḻ":{"ha":347,"x_min":-15,"x_max":363,"o":"m 160 0 l 160 1031 l 188 1031 l 188 0 l 160 0 m -15 -222 l -15 -194 l 363 -194 l 363 -222 l -15 -222 z "},"ł":{"ha":347,"x_min":32,"x_max":315,"o":"m 160 0 l 160 1031 l 188 1031 l 188 0 l 160 0 m 47 378 l 32 397 l 300 594 l 315 575 l 47 378 z "},"m":{"ha":1483,"x_min":160,"x_max":1332,"o":"m 1053 722 q 1201 688 1139 722 q 1298 588 1264 654 q 1332 424 1332 521 l 1332 0 l 1304 0 l 1304 424 q 1238 626 1304 557 q 1054 696 1172 696 q 897 658 963 696 q 795 551 831 619 q 760 390 760 482 l 760 0 l 732 0 l 732 424 q 666 626 732 557 q 482 696 600 696 q 324 658 390 696 q 223 551 258 619 q 188 390 188 482 l 188 0 l 160 0 l 160 718 l 188 718 l 188 515 l 185 519 q 292 667 215 613 q 481 722 368 722 q 664 666 592 722 q 754 499 736 610 l 750 500 q 855 660 776 599 q 1053 722 933 722 z "},"ṃ":{"ha":1483,"x_min":160,"x_max":1332,"o":"m 1053 722 q 1201 688 1139 722 q 1298 588 1264 654 q 1332 424 1332 521 l 1332 0 l 1304 0 l 1304 424 q 1238 626 1304 557 q 1054 696 1172 696 q 897 658 963 696 q 795 551 831 619 q 760 390 760 482 l 760 0 l 732 0 l 732 424 q 666 626 732 557 q 482 696 600 696 q 324 658 390 696 q 223 551 258 619 q 188 390 188 482 l 188 0 l 160 0 l 160 718 l 188 718 l 188 515 l 185 519 q 292 667 215 613 q 481 722 368 722 q 664 666 592 722 q 754 499 736 610 l 750 500 q 855 660 776 599 q 1053 722 933 722 m 746 -244 q 721 -233 732 -244 q 710 -208 710 -222 q 721 -183 710 -193 q 746 -172 732 -172 q 772 -183 761 -172 q 782 -208 782 -193 q 772 -233 782 -222 q 746 -244 761 -244 z "},"n":{"ha":928,"x_min":160,"x_max":776,"o":"m 489 722 q 642 688 578 722 q 741 588 706 654 q 776 424 776 521 l 776 0 l 749 0 l 749 424 q 681 626 749 557 q 490 696 613 696 q 328 658 396 696 q 224 551 260 619 q 188 390 188 482 l 188 0 l 160 0 l 160 718 l 188 718 l 188 514 l 185 518 q 294 667 217 613 q 489 722 372 722 z "},"ń":{"ha":928,"x_min":160,"x_max":776,"o":"m 489 722 q 642 688 578 722 q 741 588 706 654 q 776 424 776 521 l 776 0 l 749 0 l 749 424 q 681 626 749 557 q 490 696 613 696 q 328 658 396 696 q 224 551 260 619 q 188 390 188 482 l 188 0 l 160 0 l 160 718 l 188 718 l 188 514 l 185 518 q 294 667 217 613 q 489 722 372 722 m 403 843 l 597 996 l 653 996 l 444 843 l 403 843 z "},"ŉ":{"ha":982,"x_min":88,"x_max":831,"o":"m 543 722 q 696 688 632 722 q 795 588 760 654 q 831 424 831 521 l 831 0 l 803 0 l 803 424 q 735 626 803 557 q 544 696 667 696 q 382 658 450 696 q 278 551 314 619 q 242 390 242 482 l 242 0 l 214 0 l 214 718 l 242 718 l 242 514 l 239 518 q 349 667 271 613 q 543 722 426 722 z "},"ň":{"ha":928,"x_min":160,"x_max":776,"o":"m 489 722 q 642 688 578 722 q 741 588 706 654 q 776 424 776 521 l 776 0 l 749 0 l 749 424 q 681 626 749 557 q 490 696 613 696 q 328 658 396 696 q 224 551 260 619 q 188 390 188 482 l 188 0 l 160 0 l 160 718 l 188 718 l 188 514 l 185 518 q 294 667 217 613 q 489 722 372 722 m 443 843 l 274 996 l 311 996 l 469 863 l 461 863 l 619 996 l 657 996 l 488 843 l 443 843 z "},"ņ":{"ha":928,"x_min":160,"x_max":776,"o":"m 489 722 q 642 688 578 722 q 741 588 706 654 q 776 424 776 521 l 776 0 l 749 0 l 749 424 q 681 626 749 557 q 490 696 613 696 q 328 658 396 696 q 224 551 260 619 q 188 390 188 482 l 188 0 l 160 0 l 160 718 l 188 718 l 188 514 l 185 518 q 294 667 217 613 q 489 722 372 722 m 436 -360 l 464 -229 l 465 -244 q 440 -233 451 -244 q 429 -208 429 -222 q 440 -183 429 -193 q 465 -172 450 -172 q 492 -184 482 -172 q 501 -208 501 -196 q 499 -231 501 -219 q 493 -253 496 -242 l 461 -360 l 436 -360 z "},"ṅ":{"ha":928,"x_min":160,"x_max":776,"o":"m 489 722 q 642 688 578 722 q 741 588 706 654 q 776 424 776 521 l 776 0 l 749 0 l 749 424 q 681 626 749 557 q 490 696 613 696 q 328 658 396 696 q 224 551 260 619 q 188 390 188 482 l 188 0 l 160 0 l 160 718 l 188 718 l 188 514 l 185 518 q 294 667 217 613 q 489 722 372 722 m 465 890 q 440 901 451 890 q 429 926 429 913 q 440 952 429 942 q 465 963 451 963 q 491 952 481 963 q 501 926 501 942 q 491 901 501 913 q 465 890 481 890 z "},"ṇ":{"ha":928,"x_min":160,"x_max":776,"o":"m 489 722 q 642 688 578 722 q 741 588 706 654 q 776 424 776 521 l 776 0 l 749 0 l 749 424 q 681 626 749 557 q 490 696 613 696 q 328 658 396 696 q 224 551 260 619 q 188 390 188 482 l 188 0 l 160 0 l 160 718 l 188 718 l 188 514 l 185 518 q 294 667 217 613 q 489 722 372 722 m 465 -244 q 440 -233 451 -244 q 429 -208 429 -222 q 440 -183 429 -193 q 465 -172 451 -172 q 491 -183 481 -172 q 501 -208 501 -193 q 491 -233 501 -222 q 465 -244 481 -244 z "},"ŋ":{"ha":928,"x_min":160,"x_max":776,"o":"m 489 722 q 642 688 578 722 q 741 588 706 654 q 776 424 776 521 l 776 -97 q 733 -225 776 -176 q 607 -274 689 -274 q 526 -261 565 -274 q 463 -222 488 -249 l 482 -203 q 606 -247 529 -247 q 712 -207 675 -247 q 749 -90 749 -167 l 749 424 q 681 626 749 557 q 490 696 613 696 q 328 658 396 696 q 224 551 260 619 q 188 390 188 482 l 188 0 l 160 0 l 160 718 l 188 718 l 188 514 l 185 518 q 294 667 217 613 q 489 722 372 722 z "},"ǌ":{"ha":1282,"x_min":160,"x_max":1144,"o":"m 489 722 q 642 688 578 722 q 741 588 706 654 q 776 424 776 521 l 776 0 l 749 0 l 749 424 q 681 626 749 557 q 490 696 613 696 q 328 658 396 696 q 224 551 260 619 q 188 390 188 482 l 188 0 l 160 0 l 160 718 l 188 718 l 188 514 l 185 518 q 294 667 217 613 q 489 722 372 722 m 953 -274 q 872 -261 911 -274 q 808 -222 833 -249 l 828 -203 q 951 -247 875 -247 q 1058 -207 1021 -247 q 1094 -90 1094 -167 l 1094 718 l 1122 718 l 1122 -97 q 1078 -225 1122 -176 q 953 -274 1035 -274 m 1108 917 q 1083 928 1094 917 q 1072 953 1072 939 q 1083 978 1072 968 q 1108 989 1094 989 q 1134 978 1124 989 q 1144 953 1144 968 q 1134 928 1144 939 q 1108 917 1124 917 z "},"ṉ":{"ha":928,"x_min":160,"x_max":776,"o":"m 489 722 q 642 688 578 722 q 741 588 706 654 q 776 424 776 521 l 776 0 l 749 0 l 749 424 q 681 626 749 557 q 490 696 613 696 q 328 658 396 696 q 224 551 260 619 q 188 390 188 482 l 188 0 l 160 0 l 160 718 l 188 718 l 188 514 l 185 518 q 294 667 217 613 q 489 722 372 722 m 276 -222 l 276 -194 l 654 -194 l 654 -222 l 276 -222 z "},"ñ":{"ha":928,"x_min":160,"x_max":776,"o":"m 489 722 q 642 688 578 722 q 741 588 706 654 q 776 424 776 521 l 776 0 l 749 0 l 749 424 q 681 626 749 557 q 490 696 613 696 q 328 658 396 696 q 224 551 260 619 q 188 390 188 482 l 188 0 l 160 0 l 160 718 l 188 718 l 188 514 l 185 518 q 294 667 217 613 q 489 722 372 722 m 553 860 q 501 874 524 860 q 459 908 478 889 q 421 941 440 926 q 378 956 401 956 q 325 931 344 956 q 303 863 306 906 l 276 863 q 306 949 279 917 q 378 982 333 982 q 430 967 407 982 q 472 934 453 953 q 510 901 490 915 q 553 886 529 886 q 606 911 586 886 q 628 976 626 936 l 654 976 q 625 892 653 925 q 553 860 597 860 z "},"o":{"ha":847,"x_min":75,"x_max":772,"o":"m 424 -4 q 245 42 324 -4 q 121 172 167 89 q 75 360 75 254 q 121 548 75 467 q 245 676 167 629 q 424 722 324 722 q 603 676 524 722 q 727 548 682 629 q 772 360 772 467 q 727 172 772 254 q 603 42 682 89 q 424 -4 524 -4 m 424 22 q 588 65 515 22 q 703 185 661 108 q 744 360 744 261 q 703 535 744 460 q 588 653 661 611 q 424 696 515 696 q 260 653 332 696 q 145 535 188 611 q 103 360 103 460 q 145 185 103 261 q 260 65 188 108 q 424 22 332 22 z "},"ó":{"ha":847,"x_min":75,"x_max":772,"o":"m 424 -4 q 245 42 324 -4 q 121 172 167 89 q 75 360 75 254 q 121 548 75 467 q 245 676 167 629 q 424 722 324 722 q 603 676 524 722 q 727 548 682 629 q 772 360 772 467 q 727 172 772 254 q 603 42 682 89 q 424 -4 524 -4 m 424 22 q 588 65 515 22 q 703 185 661 108 q 744 360 744 261 q 703 535 744 460 q 588 653 661 611 q 424 696 515 696 q 260 653 332 696 q 145 535 188 611 q 103 360 103 460 q 145 185 103 261 q 260 65 188 108 q 424 22 332 22 m 361 843 l 556 996 l 611 996 l 403 843 l 361 843 z "},"ŏ":{"ha":847,"x_min":75,"x_max":772,"o":"m 424 -4 q 245 42 324 -4 q 121 172 167 89 q 75 360 75 254 q 121 548 75 467 q 245 676 167 629 q 424 722 324 722 q 603 676 524 722 q 727 548 682 629 q 772 360 772 467 q 727 172 772 254 q 603 42 682 89 q 424 -4 524 -4 m 424 22 q 588 65 515 22 q 703 185 661 108 q 744 360 744 261 q 703 535 744 460 q 588 653 661 611 q 424 696 515 696 q 260 653 332 696 q 145 535 188 611 q 103 360 103 460 q 145 185 103 261 q 260 65 188 108 q 424 22 332 22 m 424 839 q 296 881 349 839 q 240 996 243 924 l 267 996 q 315 901 269 936 q 424 865 360 865 q 534 901 489 865 q 581 996 579 936 l 607 996 q 552 881 606 924 q 424 839 499 839 z "},"ô":{"ha":847,"x_min":75,"x_max":772,"o":"m 424 -4 q 245 42 324 -4 q 121 172 167 89 q 75 360 75 254 q 121 548 75 467 q 245 676 167 629 q 424 722 324 722 q 603 676 524 722 q 727 548 682 629 q 772 360 772 467 q 727 172 772 254 q 603 42 682 89 q 424 -4 524 -4 m 424 22 q 588 65 515 22 q 703 185 661 108 q 744 360 744 261 q 703 535 744 460 q 588 653 661 611 q 424 696 515 696 q 260 653 332 696 q 145 535 188 611 q 103 360 103 460 q 145 185 103 261 q 260 65 188 108 q 424 22 332 22 m 232 843 l 401 996 l 446 996 l 615 843 l 578 843 l 419 976 l 428 976 l 269 843 l 232 843 z "},"ố":{"ha":847,"x_min":75,"x_max":772,"o":"m 424 -4 q 245 42 324 -4 q 121 172 167 89 q 75 360 75 254 q 121 548 75 467 q 245 676 167 629 q 424 722 324 722 q 603 676 524 722 q 727 548 682 629 q 772 360 772 467 q 727 172 772 254 q 603 42 682 89 q 424 -4 524 -4 m 424 22 q 588 65 515 22 q 703 185 661 108 q 744 360 744 261 q 703 535 744 460 q 588 653 661 611 q 424 696 515 696 q 260 653 332 696 q 145 535 188 611 q 103 360 103 460 q 145 185 103 261 q 260 65 188 108 q 424 22 332 22 z "},"ộ":{"ha":847,"x_min":75,"x_max":772,"o":"m 424 -4 q 245 42 324 -4 q 121 172 167 89 q 75 360 75 254 q 121 548 75 467 q 245 676 167 629 q 424 722 324 722 q 603 676 524 722 q 727 548 682 629 q 772 360 772 467 q 727 172 772 254 q 603 42 682 89 q 424 -4 524 -4 m 424 22 q 588 65 515 22 q 703 185 661 108 q 744 360 744 261 q 703 535 744 460 q 588 653 661 611 q 424 696 515 696 q 260 653 332 696 q 145 535 188 611 q 103 360 103 460 q 145 185 103 261 q 260 65 188 108 q 424 22 332 22 m 424 -244 q 399 -233 410 -244 q 388 -208 388 -222 q 399 -183 388 -193 q 424 -172 410 -172 q 449 -183 439 -172 q 460 -208 460 -193 q 449 -233 460 -222 q 424 -244 439 -244 m 232 843 l 401 996 l 446 996 l 615 843 l 578 843 l 419 976 l 428 976 l 269 843 l 232 843 z "},"ồ":{"ha":847,"x_min":75,"x_max":772,"o":"m 424 -4 q 245 42 324 -4 q 121 172 167 89 q 75 360 75 254 q 121 548 75 467 q 245 676 167 629 q 424 722 324 722 q 603 676 524 722 q 727 548 682 629 q 772 360 772 467 q 727 172 772 254 q 603 42 682 89 q 424 -4 524 -4 m 424 22 q 588 65 515 22 q 703 185 661 108 q 744 360 744 261 q 703 535 744 460 q 588 653 661 611 q 424 696 515 696 q 260 653 332 696 q 145 535 188 611 q 103 360 103 460 q 145 185 103 261 q 260 65 188 108 q 424 22 332 22 z "},"ổ":{"ha":847,"x_min":75,"x_max":772,"o":"m 424 -4 q 245 42 324 -4 q 121 172 167 89 q 75 360 75 254 q 121 548 75 467 q 245 676 167 629 q 424 722 324 722 q 603 676 524 722 q 727 548 682 629 q 772 360 772 467 q 727 172 772 254 q 603 42 682 89 q 424 -4 524 -4 m 424 22 q 588 65 515 22 q 703 185 661 108 q 744 360 744 261 q 703 535 744 460 q 588 653 661 611 q 424 696 515 696 q 260 653 332 696 q 145 535 188 611 q 103 360 103 460 q 145 185 103 261 q 260 65 188 108 q 424 22 332 22 z "},"ỗ":{"ha":847,"x_min":75,"x_max":772,"o":"m 424 -4 q 245 42 324 -4 q 121 172 167 89 q 75 360 75 254 q 121 548 75 467 q 245 676 167 629 q 424 722 324 722 q 603 676 524 722 q 727 548 682 629 q 772 360 772 467 q 727 172 772 254 q 603 42 682 89 q 424 -4 524 -4 m 424 22 q 588 65 515 22 q 703 185 661 108 q 744 360 744 261 q 703 535 744 460 q 588 653 661 611 q 424 696 515 696 q 260 653 332 696 q 145 535 188 611 q 103 360 103 460 q 145 185 103 261 q 260 65 188 108 q 424 22 332 22 z "},"ȍ":{"ha":847,"x_min":75,"x_max":772,"o":"m 424 -4 q 245 42 324 -4 q 121 172 167 89 q 75 360 75 254 q 121 548 75 467 q 245 676 167 629 q 424 722 324 722 q 603 676 524 722 q 727 548 682 629 q 772 360 772 467 q 727 172 772 254 q 603 42 682 89 q 424 -4 524 -4 m 424 22 q 588 65 515 22 q 703 185 661 108 q 744 360 744 261 q 703 535 744 460 q 588 653 661 611 q 424 696 515 696 q 260 653 332 696 q 145 535 188 611 q 103 360 103 460 q 145 185 103 261 q 260 65 188 108 q 424 22 332 22 m 501 843 l 338 996 l 385 996 l 539 843 l 501 843 m 308 843 l 144 996 l 192 996 l 346 843 l 308 843 z "},"ö":{"ha":847,"x_min":75,"x_max":772,"o":"m 424 -4 q 245 42 324 -4 q 121 172 167 89 q 75 360 75 254 q 121 548 75 467 q 245 676 167 629 q 424 722 324 722 q 603 676 524 722 q 727 548 682 629 q 772 360 772 467 q 727 172 772 254 q 603 42 682 89 q 424 -4 524 -4 m 424 22 q 588 65 515 22 q 703 185 661 108 q 744 360 744 261 q 703 535 744 460 q 588 653 661 611 q 424 696 515 696 q 260 653 332 696 q 145 535 188 611 q 103 360 103 460 q 145 185 103 261 q 260 65 188 108 q 424 22 332 22 m 538 890 q 513 901 524 890 q 501 926 501 913 q 513 952 501 942 q 538 963 524 963 q 563 952 553 963 q 574 926 574 942 q 563 901 574 913 q 538 890 553 890 m 310 890 q 285 901 296 890 q 274 926 274 913 q 285 952 274 942 q 310 963 296 963 q 335 952 325 963 q 346 926 346 942 q 335 901 346 913 q 310 890 325 890 z "},"ȫ":{"ha":847,"x_min":75,"x_max":772,"o":"m 424 -4 q 245 42 324 -4 q 121 172 167 89 q 75 360 75 254 q 121 548 75 467 q 245 676 167 629 q 424 722 324 722 q 603 676 524 722 q 727 548 682 629 q 772 360 772 467 q 727 172 772 254 q 603 42 682 89 q 424 -4 524 -4 m 424 22 q 588 65 515 22 q 703 185 661 108 q 744 360 744 261 q 703 535 744 460 q 588 653 661 611 q 424 696 515 696 q 260 653 332 696 q 145 535 188 611 q 103 360 103 460 q 145 185 103 261 q 260 65 188 108 q 424 22 332 22 z "},"ȱ":{"ha":847,"x_min":75,"x_max":772,"o":"m 424 -4 q 245 42 324 -4 q 121 172 167 89 q 75 360 75 254 q 121 548 75 467 q 245 676 167 629 q 424 722 324 722 q 603 676 524 722 q 727 548 682 629 q 772 360 772 467 q 727 172 772 254 q 603 42 682 89 q 424 -4 524 -4 m 424 22 q 588 65 515 22 q 703 185 661 108 q 744 360 744 261 q 703 535 744 460 q 588 653 661 611 q 424 696 515 696 q 260 653 332 696 q 145 535 188 611 q 103 360 103 460 q 145 185 103 261 q 260 65 188 108 q 424 22 332 22 z "},"ọ":{"ha":847,"x_min":75,"x_max":772,"o":"m 424 -4 q 245 42 324 -4 q 121 172 167 89 q 75 360 75 254 q 121 548 75 467 q 245 676 167 629 q 424 722 324 722 q 603 676 524 722 q 727 548 682 629 q 772 360 772 467 q 727 172 772 254 q 603 42 682 89 q 424 -4 524 -4 m 424 22 q 588 65 515 22 q 703 185 661 108 q 744 360 744 261 q 703 535 744 460 q 588 653 661 611 q 424 696 515 696 q 260 653 332 696 q 145 535 188 611 q 103 360 103 460 q 145 185 103 261 q 260 65 188 108 q 424 22 332 22 m 424 -244 q 399 -233 410 -244 q 388 -208 388 -222 q 399 -183 388 -193 q 424 -172 410 -172 q 449 -183 439 -172 q 460 -208 460 -193 q 449 -233 460 -222 q 424 -244 439 -244 z "},"ò":{"ha":847,"x_min":75,"x_max":772,"o":"m 424 -4 q 245 42 324 -4 q 121 172 167 89 q 75 360 75 254 q 121 548 75 467 q 245 676 167 629 q 424 722 324 722 q 603 676 524 722 q 727 548 682 629 q 772 360 772 467 q 727 172 772 254 q 603 42 682 89 q 424 -4 524 -4 m 424 22 q 588 65 515 22 q 703 185 661 108 q 744 360 744 261 q 703 535 744 460 q 588 653 661 611 q 424 696 515 696 q 260 653 332 696 q 145 535 188 611 q 103 360 103 460 q 145 185 103 261 q 260 65 188 108 q 424 22 332 22 m 444 843 l 236 996 l 292 996 l 486 843 l 444 843 z "},"ỏ":{"ha":847,"x_min":75,"x_max":772,"o":"m 424 -4 q 245 42 324 -4 q 121 172 167 89 q 75 360 75 254 q 121 548 75 467 q 245 676 167 629 q 424 722 324 722 q 603 676 524 722 q 727 548 682 629 q 772 360 772 467 q 727 172 772 254 q 603 42 682 89 q 424 -4 524 -4 m 424 22 q 588 65 515 22 q 703 185 661 108 q 744 360 744 261 q 703 535 744 460 q 588 653 661 611 q 424 696 515 696 q 260 653 332 696 q 145 535 188 611 q 103 360 103 460 q 145 185 103 261 q 260 65 188 108 q 424 22 332 22 m 426 838 l 413 860 q 478 906 456 879 q 500 967 500 932 q 478 1020 500 999 q 419 1042 456 1042 q 333 1015 374 1042 l 322 1039 q 368 1060 342 1053 q 418 1068 394 1068 q 498 1041 468 1068 q 528 968 528 1014 q 503 894 528 926 q 426 838 479 863 z "},"ơ":{"ha":847,"x_min":75,"x_max":772,"o":"m 424 -4 q 245 42 324 -4 q 121 172 167 89 q 75 360 75 254 q 121 548 75 467 q 245 676 167 629 q 424 722 324 722 q 488 721 463 722 q 540 717 514 719 q 604 715 567 715 q 700 747 669 715 q 731 817 731 778 q 722 867 731 844 q 703 910 714 890 l 728 921 q 750 873 742 900 q 758 818 758 846 q 742 755 758 785 q 692 707 725 725 q 606 689 658 689 q 585 690 596 689 q 554 692 574 690 l 542 703 q 708 577 644 668 q 772 360 772 486 q 727 172 772 254 q 603 42 682 89 q 424 -4 524 -4 m 424 22 q 588 65 515 22 q 703 185 661 108 q 744 360 744 261 q 703 535 744 460 q 588 653 661 611 q 424 696 515 696 q 260 653 332 696 q 145 535 188 611 q 103 360 103 460 q 145 185 103 261 q 260 65 188 108 q 424 22 332 22 z "},"ớ":{"ha":847,"x_min":75,"x_max":772,"o":"m 424 -4 q 245 42 324 -4 q 121 172 167 89 q 75 360 75 254 q 121 548 75 467 q 245 676 167 629 q 424 722 324 722 q 488 721 463 722 q 540 717 514 719 q 604 715 567 715 q 700 747 669 715 q 731 817 731 778 q 722 867 731 844 q 703 910 714 890 l 728 921 q 750 873 742 900 q 758 818 758 846 q 742 755 758 785 q 692 707 725 725 q 606 689 658 689 q 585 690 596 689 q 554 692 574 690 l 542 703 q 708 577 644 668 q 772 360 772 486 q 727 172 772 254 q 603 42 682 89 q 424 -4 524 -4 m 424 22 q 588 65 515 22 q 703 185 661 108 q 744 360 744 261 q 703 535 744 460 q 588 653 661 611 q 424 696 515 696 q 260 653 332 696 q 145 535 188 611 q 103 360 103 460 q 145 185 103 261 q 260 65 188 108 q 424 22 332 22 m 361 843 l 556 996 l 611 996 l 403 843 l 361 843 z "},"ợ":{"ha":847,"x_min":75,"x_max":772,"o":"m 424 -4 q 245 42 324 -4 q 121 172 167 89 q 75 360 75 254 q 121 548 75 467 q 245 676 167 629 q 424 722 324 722 q 488 721 463 722 q 540 717 514 719 q 604 715 567 715 q 700 747 669 715 q 731 817 731 778 q 722 867 731 844 q 703 910 714 890 l 728 921 q 750 873 742 900 q 758 818 758 846 q 742 755 758 785 q 692 707 725 725 q 606 689 658 689 q 585 690 596 689 q 554 692 574 690 l 542 703 q 708 577 644 668 q 772 360 772 486 q 727 172 772 254 q 603 42 682 89 q 424 -4 524 -4 m 424 22 q 588 65 515 22 q 703 185 661 108 q 744 360 744 261 q 703 535 744 460 q 588 653 661 611 q 424 696 515 696 q 260 653 332 696 q 145 535 188 611 q 103 360 103 460 q 145 185 103 261 q 260 65 188 108 q 424 22 332 22 m 424 -244 q 399 -233 410 -244 q 388 -208 388 -222 q 399 -183 388 -193 q 424 -172 410 -172 q 449 -183 439 -172 q 460 -208 460 -193 q 449 -233 460 -222 q 424 -244 439 -244 z "},"ờ":{"ha":847,"x_min":75,"x_max":772,"o":"m 424 -4 q 245 42 324 -4 q 121 172 167 89 q 75 360 75 254 q 121 548 75 467 q 245 676 167 629 q 424 722 324 722 q 488 721 463 722 q 540 717 514 719 q 604 715 567 715 q 700 747 669 715 q 731 817 731 778 q 722 867 731 844 q 703 910 714 890 l 728 921 q 750 873 742 900 q 758 818 758 846 q 742 755 758 785 q 692 707 725 725 q 606 689 658 689 q 585 690 596 689 q 554 692 574 690 l 542 703 q 708 577 644 668 q 772 360 772 486 q 727 172 772 254 q 603 42 682 89 q 424 -4 524 -4 m 424 22 q 588 65 515 22 q 703 185 661 108 q 744 360 744 261 q 703 535 744 460 q 588 653 661 611 q 424 696 515 696 q 260 653 332 696 q 145 535 188 611 q 103 360 103 460 q 145 185 103 261 q 260 65 188 108 q 424 22 332 22 m 444 843 l 236 996 l 292 996 l 486 843 l 444 843 z "},"ở":{"ha":847,"x_min":75,"x_max":772,"o":"m 424 -4 q 245 42 324 -4 q 121 172 167 89 q 75 360 75 254 q 121 548 75 467 q 245 676 167 629 q 424 722 324 722 q 488 721 463 722 q 540 717 514 719 q 604 715 567 715 q 700 747 669 715 q 731 817 731 778 q 722 867 731 844 q 703 910 714 890 l 728 921 q 750 873 742 900 q 758 818 758 846 q 742 755 758 785 q 692 707 725 725 q 606 689 658 689 q 585 690 596 689 q 554 692 574 690 l 542 703 q 708 577 644 668 q 772 360 772 486 q 727 172 772 254 q 603 42 682 89 q 424 -4 524 -4 m 424 22 q 588 65 515 22 q 703 185 661 108 q 744 360 744 261 q 703 535 744 460 q 588 653 661 611 q 424 696 515 696 q 260 653 332 696 q 145 535 188 611 q 103 360 103 460 q 145 185 103 261 q 260 65 188 108 q 424 22 332 22 m 426 838 l 413 860 q 478 906 456 879 q 500 967 500 932 q 478 1020 500 999 q 419 1042 456 1042 q 333 1015 374 1042 l 322 1039 q 368 1060 342 1053 q 418 1068 394 1068 q 498 1041 468 1068 q 528 968 528 1014 q 503 894 528 926 q 426 838 479 863 z "},"ỡ":{"ha":853,"x_min":75,"x_max":772,"o":"m 517 860 q 465 874 488 860 q 423 908 442 889 q 385 941 404 926 q 342 956 365 956 q 289 931 308 956 q 267 863 269 906 l 240 863 q 270 949 243 917 q 342 982 297 982 q 394 967 371 982 q 435 934 417 953 q 474 901 454 915 q 517 886 493 886 q 570 911 550 886 q 592 976 590 936 l 618 976 q 589 892 617 925 q 517 860 561 860 m 424 -4 q 245 42 324 -4 q 121 172 167 89 q 75 360 75 254 q 121 548 75 467 q 245 676 167 629 q 424 722 324 722 q 488 721 463 722 q 540 717 514 719 q 604 715 567 715 q 700 747 669 715 q 731 817 731 778 q 722 867 731 844 q 703 910 714 890 l 728 921 q 750 873 742 900 q 758 818 758 846 q 742 755 758 785 q 692 707 725 725 q 606 689 658 689 q 585 690 596 689 q 554 692 574 690 l 542 703 q 708 577 644 668 q 772 360 772 486 q 727 172 772 254 q 603 42 682 89 q 424 -4 524 -4 m 424 22 q 588 65 515 22 q 703 185 661 108 q 744 360 744 261 q 703 535 744 460 q 588 653 661 611 q 424 696 515 696 q 260 653 332 696 q 145 535 188 611 q 103 360 103 460 q 145 185 103 261 q 260 65 188 108 q 424 22 332 22 z "},"ő":{"ha":847,"x_min":75,"x_max":772,"o":"m 424 -4 q 245 42 324 -4 q 121 172 167 89 q 75 360 75 254 q 121 548 75 467 q 245 676 167 629 q 424 722 324 722 q 603 676 524 722 q 727 548 682 629 q 772 360 772 467 q 727 172 772 254 q 603 42 682 89 q 424 -4 524 -4 m 424 22 q 588 65 515 22 q 703 185 661 108 q 744 360 744 261 q 703 535 744 460 q 588 653 661 611 q 424 696 515 696 q 260 653 332 696 q 145 535 188 611 q 103 360 103 460 q 145 185 103 261 q 260 65 188 108 q 424 22 332 22 m 501 843 l 656 996 l 703 996 l 539 843 l 501 843 m 308 843 l 463 996 l 510 996 l 346 843 l 308 843 z "},"ȏ":{"ha":847,"x_min":75,"x_max":772,"o":"m 424 -4 q 245 42 324 -4 q 121 172 167 89 q 75 360 75 254 q 121 548 75 467 q 245 676 167 629 q 424 722 324 722 q 603 676 524 722 q 727 548 682 629 q 772 360 772 467 q 727 172 772 254 q 603 42 682 89 q 424 -4 524 -4 m 424 22 q 588 65 515 22 q 703 185 661 108 q 744 360 744 261 q 703 535 744 460 q 588 653 661 611 q 424 696 515 696 q 260 653 332 696 q 145 535 188 611 q 103 360 103 460 q 145 185 103 261 q 260 65 188 108 q 424 22 332 22 m 240 843 q 296 958 243 917 q 424 1000 349 1000 q 552 958 499 1000 q 607 843 606 917 l 581 843 q 534 939 579 904 q 424 974 489 974 q 315 939 360 974 q 267 843 269 904 l 240 843 z "},"ō":{"ha":847,"x_min":75,"x_max":772,"o":"m 424 -4 q 245 42 324 -4 q 121 172 167 89 q 75 360 75 254 q 121 548 75 467 q 245 676 167 629 q 424 722 324 722 q 603 676 524 722 q 727 548 682 629 q 772 360 772 467 q 727 172 772 254 q 603 42 682 89 q 424 -4 524 -4 m 424 22 q 588 65 515 22 q 703 185 661 108 q 744 360 744 261 q 703 535 744 460 q 588 653 661 611 q 424 696 515 696 q 260 653 332 696 q 145 535 188 611 q 103 360 103 460 q 145 185 103 261 q 260 65 188 108 q 424 22 332 22 m 235 906 l 235 933 l 613 933 l 613 906 l 235 906 z "},"ṓ":{"ha":847,"x_min":75,"x_max":772,"o":"m 424 -4 q 245 42 324 -4 q 121 172 167 89 q 75 360 75 254 q 121 548 75 467 q 245 676 167 629 q 424 722 324 722 q 603 676 524 722 q 727 548 682 629 q 772 360 772 467 q 727 172 772 254 q 603 42 682 89 q 424 -4 524 -4 m 424 22 q 588 65 515 22 q 703 185 661 108 q 744 360 744 261 q 703 535 744 460 q 588 653 661 611 q 424 696 515 696 q 260 653 332 696 q 145 535 188 611 q 103 360 103 460 q 145 185 103 261 q 260 65 188 108 q 424 22 332 22 z "},"ṑ":{"ha":847,"x_min":75,"x_max":772,"o":"m 424 -4 q 245 42 324 -4 q 121 172 167 89 q 75 360 75 254 q 121 548 75 467 q 245 676 167 629 q 424 722 324 722 q 603 676 524 722 q 727 548 682 629 q 772 360 772 467 q 727 172 772 254 q 603 42 682 89 q 424 -4 524 -4 m 424 22 q 588 65 515 22 q 703 185 661 108 q 744 360 744 261 q 703 535 744 460 q 588 653 661 611 q 424 696 515 696 q 260 653 332 696 q 145 535 188 611 q 103 360 103 460 q 145 185 103 261 q 260 65 188 108 q 424 22 332 22 z "},"ǫ":{"ha":847,"x_min":75,"x_max":772,"o":"m 464 -296 q 374 -265 410 -296 q 338 -181 338 -235 q 351 -118 338 -151 q 404 -49 365 -85 q 519 22 443 -12 l 504 3 q 460 -3 478 -1 q 424 -4 442 -4 q 245 42 324 -4 q 121 172 167 89 q 75 360 75 254 q 121 548 75 467 q 245 676 167 629 q 424 722 324 722 q 603 676 524 722 q 727 548 682 629 q 772 360 772 467 q 719 157 772 243 q 572 26 665 71 q 436 -53 481 -17 q 378 -122 392 -90 q 365 -181 365 -153 q 394 -247 365 -225 q 465 -269 422 -269 q 512 -261 489 -269 q 551 -237 535 -253 l 567 -258 q 519 -287 544 -278 q 464 -296 493 -296 m 424 22 q 588 65 515 22 q 703 185 661 108 q 744 360 744 261 q 703 535 744 460 q 588 653 661 611 q 424 696 515 696 q 260 653 332 696 q 145 535 188 611 q 103 360 103 460 q 145 185 103 261 q 260 65 188 108 q 424 22 332 22 z "},"ø":{"ha":847,"x_min":75,"x_max":772,"o":"m 424 -4 q 245 42 324 -4 q 121 172 167 89 q 75 360 75 254 q 121 548 75 467 q 245 676 167 629 q 424 722 324 722 q 603 676 524 722 q 727 548 682 629 q 772 360 772 467 q 727 172 772 254 q 603 42 682 89 q 424 -4 524 -4 m 424 22 q 588 65 515 22 q 703 185 661 108 q 744 360 744 261 q 703 535 744 460 q 588 653 661 611 q 424 696 515 696 q 260 653 332 696 q 145 535 188 611 q 103 360 103 460 q 145 185 103 261 q 260 65 188 108 q 424 22 332 22 m 97 -97 l 717 815 l 749 815 l 129 -97 l 97 -97 z "},"ǿ":{"ha":847,"x_min":75,"x_max":772,"o":"m 424 -4 q 245 42 324 -4 q 121 172 167 89 q 75 360 75 254 q 121 548 75 467 q 245 676 167 629 q 424 722 324 722 q 603 676 524 722 q 727 548 682 629 q 772 360 772 467 q 727 172 772 254 q 603 42 682 89 q 424 -4 524 -4 m 424 22 q 588 65 515 22 q 703 185 661 108 q 744 360 744 261 q 703 535 744 460 q 588 653 661 611 q 424 696 515 696 q 260 653 332 696 q 145 535 188 611 q 103 360 103 460 q 145 185 103 261 q 260 65 188 108 q 424 22 332 22 m 97 -97 l 717 815 l 749 815 l 129 -97 l 97 -97 m 361 843 l 556 996 l 611 996 l 403 843 l 361 843 z "},"õ":{"ha":847,"x_min":75,"x_max":772,"o":"m 424 -4 q 245 42 324 -4 q 121 172 167 89 q 75 360 75 254 q 121 548 75 467 q 245 676 167 629 q 424 722 324 722 q 603 676 524 722 q 727 548 682 629 q 772 360 772 467 q 727 172 772 254 q 603 42 682 89 q 424 -4 524 -4 m 424 22 q 588 65 515 22 q 703 185 661 108 q 744 360 744 261 q 703 535 744 460 q 588 653 661 611 q 424 696 515 696 q 260 653 332 696 q 145 535 188 611 q 103 360 103 460 q 145 185 103 261 q 260 65 188 108 q 424 22 332 22 m 511 860 q 459 874 482 860 q 417 908 436 889 q 379 941 399 926 q 336 956 360 956 q 283 931 303 956 q 261 863 264 906 l 235 863 q 265 949 238 917 q 336 982 292 982 q 388 967 365 982 q 430 934 411 953 q 468 901 449 915 q 511 886 488 886 q 565 911 544 886 q 586 976 585 936 l 613 976 q 583 892 611 925 q 511 860 556 860 z "},"ṍ":{"ha":847,"x_min":75,"x_max":772,"o":"m 424 -4 q 245 42 324 -4 q 121 172 167 89 q 75 360 75 254 q 121 548 75 467 q 245 676 167 629 q 424 722 324 722 q 603 676 524 722 q 727 548 682 629 q 772 360 772 467 q 727 172 772 254 q 603 42 682 89 q 424 -4 524 -4 m 424 22 q 588 65 515 22 q 703 185 661 108 q 744 360 744 261 q 703 535 744 460 q 588 653 661 611 q 424 696 515 696 q 260 653 332 696 q 145 535 188 611 q 103 360 103 460 q 145 185 103 261 q 260 65 188 108 q 424 22 332 22 z "},"ṏ":{"ha":847,"x_min":75,"x_max":772,"o":"m 424 -4 q 245 42 324 -4 q 121 172 167 89 q 75 360 75 254 q 121 548 75 467 q 245 676 167 629 q 424 722 324 722 q 603 676 524 722 q 727 548 682 629 q 772 360 772 467 q 727 172 772 254 q 603 42 682 89 q 424 -4 524 -4 m 424 22 q 588 65 515 22 q 703 185 661 108 q 744 360 744 261 q 703 535 744 460 q 588 653 661 611 q 424 696 515 696 q 260 653 332 696 q 145 535 188 611 q 103 360 103 460 q 145 185 103 261 q 260 65 188 108 q 424 22 332 22 z "},"ȭ":{"ha":847,"x_min":75,"x_max":772,"o":"m 424 -4 q 245 42 324 -4 q 121 172 167 89 q 75 360 75 254 q 121 548 75 467 q 245 676 167 629 q 424 722 324 722 q 603 676 524 722 q 727 548 682 629 q 772 360 772 467 q 727 172 772 254 q 603 42 682 89 q 424 -4 524 -4 m 424 22 q 588 65 515 22 q 703 185 661 108 q 744 360 744 261 q 703 535 744 460 q 588 653 661 611 q 424 696 515 696 q 260 653 332 696 q 145 535 188 611 q 103 360 103 460 q 145 185 103 261 q 260 65 188 108 q 424 22 332 22 z "},"œ":{"ha":1486,"x_min":75,"x_max":1411,"o":"m 424 -4 q 245 42 324 -4 q 121 172 167 89 q 75 360 75 254 q 121 548 75 467 q 245 676 167 629 q 424 722 324 722 q 601 676 524 722 q 724 548 679 629 q 769 360 769 467 q 724 172 769 254 q 601 42 679 89 q 424 -4 524 -4 m 424 22 q 588 65 515 22 q 703 185 661 108 q 744 360 744 261 q 703 535 744 460 q 588 653 661 611 q 424 696 515 696 q 260 653 332 696 q 145 535 188 611 q 103 360 103 460 q 145 185 103 261 q 260 65 188 108 q 424 22 332 22 m 1104 -4 q 920 42 1001 -4 q 793 172 839 89 q 747 360 747 254 q 790 548 747 467 q 908 676 833 629 q 1078 722 983 722 q 1248 677 1172 722 q 1367 551 1324 632 q 1411 367 1411 471 q 1411 364 1411 365 q 1411 360 1411 363 l 761 360 l 761 386 l 1396 386 l 1385 365 q 1344 535 1385 460 q 1235 653 1304 610 q 1078 696 1167 696 q 921 653 990 696 q 812 535 851 610 q 772 365 772 460 l 772 360 q 815 185 772 261 q 934 65 858 108 q 1104 22 1010 22 q 1241 50 1176 22 q 1349 133 1306 78 l 1368 114 q 1251 26 1321 56 q 1104 -4 1182 -4 z "},"p":{"ha":932,"x_min":160,"x_max":857,"o":"m 508 -4 q 332 42 410 -4 q 209 171 254 89 q 164 358 164 253 q 209 547 164 465 q 332 676 254 629 q 508 722 410 722 q 686 676 607 722 q 811 547 765 629 q 857 358 857 465 q 811 171 857 253 q 686 42 765 89 q 508 -4 607 -4 m 160 -269 l 160 718 l 188 718 l 188 454 l 174 357 l 188 260 l 188 -269 l 160 -269 m 508 22 q 673 65 600 22 q 788 183 746 107 q 829 358 829 260 q 788 534 829 458 q 673 653 746 610 q 508 696 600 696 q 344 653 417 696 q 229 534 271 610 q 188 358 188 458 q 229 183 188 260 q 344 65 271 107 q 508 22 417 22 z "},"þ":{"ha":932,"x_min":160,"x_max":857,"o":"m 508 -4 q 332 42 410 -4 q 209 171 254 89 q 164 358 164 253 q 209 547 164 465 q 332 676 254 629 q 508 722 410 722 q 686 676 607 722 q 811 547 765 629 q 857 358 857 465 q 811 171 857 253 q 686 42 765 89 q 508 -4 607 -4 m 160 -269 l 160 1031 l 188 1031 l 188 454 l 174 357 l 188 260 l 188 -269 l 160 -269 m 508 22 q 673 65 600 22 q 788 183 746 107 q 829 358 829 260 q 788 534 829 458 q 673 653 746 610 q 508 696 600 696 q 344 653 417 696 q 229 534 271 610 q 188 358 188 458 q 229 183 188 260 q 344 65 271 107 q 508 22 417 22 z "},"q":{"ha":932,"x_min":75,"x_max":772,"o":"m 424 -4 q 246 42 325 -4 q 121 171 167 89 q 75 358 75 253 q 121 547 75 465 q 246 676 167 629 q 424 722 325 722 q 600 676 522 722 q 723 547 678 629 q 768 358 768 465 q 723 171 768 253 q 600 42 678 89 q 424 -4 522 -4 m 424 22 q 588 65 515 22 q 703 183 661 107 q 744 358 744 260 q 703 534 744 458 q 588 653 661 610 q 424 696 515 696 q 260 653 332 696 q 145 534 188 610 q 103 358 103 458 q 145 183 103 260 q 260 65 188 107 q 424 22 332 22 m 744 -269 l 744 260 l 758 357 l 744 454 l 744 718 l 772 718 l 772 -269 l 744 -269 z "},"r":{"ha":532,"x_min":160,"x_max":469,"o":"m 160 0 l 160 718 l 188 718 l 188 519 l 185 524 q 287 670 214 618 q 469 722 360 722 l 469 694 q 466 694 468 694 q 461 694 464 694 q 260 612 332 694 q 188 386 188 529 l 188 0 l 160 0 z "},"ŕ":{"ha":532,"x_min":160,"x_max":503,"o":"m 160 0 l 160 718 l 188 718 l 188 519 l 185 524 q 287 670 214 618 q 469 722 360 722 l 469 694 q 466 694 468 694 q 461 694 464 694 q 260 612 332 694 q 188 386 188 529 l 188 0 l 160 0 m 253 843 l 447 996 l 503 996 l 294 843 l 253 843 z "},"ř":{"ha":532,"x_min":124,"x_max":507,"o":"m 160 0 l 160 718 l 188 718 l 188 519 l 185 524 q 287 670 214 618 q 469 722 360 722 l 469 694 q 466 694 468 694 q 461 694 464 694 q 260 612 332 694 q 188 386 188 529 l 188 0 l 160 0 m 293 843 l 124 996 l 161 996 l 319 863 l 311 863 l 469 996 l 507 996 l 338 843 l 293 843 z "},"ŗ":{"ha":532,"x_min":138,"x_max":469,"o":"m 160 0 l 160 718 l 188 718 l 188 519 l 185 524 q 287 670 214 618 q 469 722 360 722 l 469 694 q 466 694 468 694 q 461 694 464 694 q 260 612 332 694 q 188 386 188 529 l 188 0 l 160 0 m 144 -360 l 172 -229 l 174 -244 q 149 -233 160 -244 q 138 -208 138 -222 q 148 -183 138 -193 q 174 -172 158 -172 q 200 -184 190 -172 q 210 -208 210 -196 q 207 -231 210 -219 q 201 -253 204 -242 l 169 -360 l 144 -360 z "},"ȑ":{"ha":532,"x_min":36,"x_max":469,"o":"m 160 0 l 160 718 l 188 718 l 188 519 l 185 524 q 287 670 214 618 q 469 722 360 722 l 469 694 q 466 694 468 694 q 461 694 464 694 q 260 612 332 694 q 188 386 188 529 l 188 0 l 160 0 m 393 843 l 229 996 l 276 996 l 431 843 l 393 843 m 200 843 l 36 996 l 83 996 l 238 843 l 200 843 z "},"ṛ":{"ha":532,"x_min":138,"x_max":469,"o":"m 160 0 l 160 718 l 188 718 l 188 519 l 185 524 q 287 670 214 618 q 469 722 360 722 l 469 694 q 466 694 468 694 q 461 694 464 694 q 260 612 332 694 q 188 386 188 529 l 188 0 l 160 0 m 174 -244 q 149 -233 160 -244 q 138 -208 138 -222 q 149 -183 138 -193 q 174 -172 160 -172 q 199 -183 189 -172 q 210 -208 210 -193 q 199 -233 210 -222 q 174 -244 189 -244 z "},"ȓ":{"ha":532,"x_min":132,"x_max":499,"o":"m 160 0 l 160 718 l 188 718 l 188 519 l 185 524 q 287 670 214 618 q 469 722 360 722 l 469 694 q 466 694 468 694 q 461 694 464 694 q 260 612 332 694 q 188 386 188 529 l 188 0 l 160 0 m 132 843 q 188 958 135 917 q 315 1000 240 1000 q 444 958 390 1000 q 499 843 497 917 l 472 843 q 426 939 471 904 q 315 974 381 974 q 206 939 251 974 q 158 843 161 904 l 132 843 z "},"ṟ":{"ha":532,"x_min":-15,"x_max":469,"o":"m 160 0 l 160 718 l 188 718 l 188 519 l 185 524 q 287 670 214 618 q 469 722 360 722 l 469 694 q 466 694 468 694 q 461 694 464 694 q 260 612 332 694 q 188 386 188 529 l 188 0 l 160 0 m -15 -222 l -15 -194 l 363 -194 l 363 -222 l -15 -222 z "},"s":{"ha":643,"x_min":44,"x_max":592,"o":"m 325 -4 q 161 24 238 -4 q 44 94 85 51 l 61 117 q 169 51 100 79 q 325 22 239 22 q 508 67 453 22 q 564 182 564 111 q 538 263 564 233 q 467 309 511 293 q 371 335 424 325 q 265 356 318 344 q 169 387 213 367 q 99 442 125 407 q 72 538 72 478 q 99 628 72 586 q 181 696 125 669 q 326 722 238 722 q 458 702 393 722 q 564 649 524 682 l 547 626 q 446 678 504 661 q 326 696 388 696 q 155 650 208 696 q 101 538 101 604 q 128 453 101 485 q 198 406 154 422 q 294 379 242 389 q 399 358 347 369 q 495 328 451 347 q 565 274 539 308 q 592 182 592 240 q 563 85 592 128 q 474 19 533 43 q 325 -4 415 -4 z "},"ś":{"ha":643,"x_min":44,"x_max":592,"o":"m 325 -4 q 161 24 238 -4 q 44 94 85 51 l 61 117 q 169 51 100 79 q 325 22 239 22 q 508 67 453 22 q 564 182 564 111 q 538 263 564 233 q 467 309 511 293 q 371 335 424 325 q 265 356 318 344 q 169 387 213 367 q 99 442 125 407 q 72 538 72 478 q 99 628 72 586 q 181 696 125 669 q 326 722 238 722 q 458 702 393 722 q 564 649 524 682 l 547 626 q 446 678 504 661 q 326 696 388 696 q 155 650 208 696 q 101 538 101 604 q 128 453 101 485 q 198 406 154 422 q 294 379 242 389 q 399 358 347 369 q 495 328 451 347 q 565 274 539 308 q 592 182 592 240 q 563 85 592 128 q 474 19 533 43 q 325 -4 415 -4 m 260 843 l 454 996 l 510 996 l 301 843 l 260 843 z "},"ṥ":{"ha":643,"x_min":44,"x_max":592,"o":"m 325 -4 q 161 24 238 -4 q 44 94 85 51 l 61 117 q 169 51 100 79 q 325 22 239 22 q 508 67 453 22 q 564 182 564 111 q 538 263 564 233 q 467 309 511 293 q 371 335 424 325 q 265 356 318 344 q 169 387 213 367 q 99 442 125 407 q 72 538 72 478 q 99 628 72 586 q 181 696 125 669 q 326 722 238 722 q 458 702 393 722 q 564 649 524 682 l 547 626 q 446 678 504 661 q 326 696 388 696 q 155 650 208 696 q 101 538 101 604 q 128 453 101 485 q 198 406 154 422 q 294 379 242 389 q 399 358 347 369 q 495 328 451 347 q 565 274 539 308 q 592 182 592 240 q 563 85 592 128 q 474 19 533 43 q 325 -4 415 -4 z "},"ꞌ":{"ha":290,"x_min":131,"x_max":160,"o":"m 131 414 l 132 879 l 160 879 l 158 414 l 131 414 z "},"š":{"ha":643,"x_min":44,"x_max":592,"o":"m 325 -4 q 161 24 238 -4 q 44 94 85 51 l 61 117 q 169 51 100 79 q 325 22 239 22 q 508 67 453 22 q 564 182 564 111 q 538 263 564 233 q 467 309 511 293 q 371 335 424 325 q 265 356 318 344 q 169 387 213 367 q 99 442 125 407 q 72 538 72 478 q 99 628 72 586 q 181 696 125 669 q 326 722 238 722 q 458 702 393 722 q 564 649 524 682 l 547 626 q 446 678 504 661 q 326 696 388 696 q 155 650 208 696 q 101 538 101 604 q 128 453 101 485 q 198 406 154 422 q 294 379 242 389 q 399 358 347 369 q 495 328 451 347 q 565 274 539 308 q 592 182 592 240 q 563 85 592 128 q 474 19 533 43 q 325 -4 415 -4 m 300 843 l 131 996 l 168 996 l 326 863 l 318 863 l 476 996 l 514 996 l 344 843 l 300 843 z "},"ṧ":{"ha":643,"x_min":44,"x_max":592,"o":"m 325 -4 q 161 24 238 -4 q 44 94 85 51 l 61 117 q 169 51 100 79 q 325 22 239 22 q 508 67 453 22 q 564 182 564 111 q 538 263 564 233 q 467 309 511 293 q 371 335 424 325 q 265 356 318 344 q 169 387 213 367 q 99 442 125 407 q 72 538 72 478 q 99 628 72 586 q 181 696 125 669 q 326 722 238 722 q 458 702 393 722 q 564 649 524 682 l 547 626 q 446 678 504 661 q 326 696 388 696 q 155 650 208 696 q 101 538 101 604 q 128 453 101 485 q 198 406 154 422 q 294 379 242 389 q 399 358 347 369 q 495 328 451 347 q 565 274 539 308 q 592 182 592 240 q 563 85 592 128 q 474 19 533 43 q 325 -4 415 -4 z "},"ş":{"ha":643,"x_min":44,"x_max":592,"o":"m 325 -4 q 161 24 238 -4 q 44 94 85 51 l 61 117 q 169 51 100 79 q 325 22 239 22 q 508 67 453 22 q 564 182 564 111 q 538 263 564 233 q 467 309 511 293 q 371 335 424 325 q 265 356 318 344 q 169 387 213 367 q 99 442 125 407 q 72 538 72 478 q 99 628 72 586 q 181 696 125 669 q 326 722 238 722 q 458 702 393 722 q 564 649 524 682 l 547 626 q 446 678 504 661 q 326 696 388 696 q 155 650 208 696 q 101 538 101 604 q 128 453 101 485 q 198 406 154 422 q 294 379 242 389 q 399 358 347 369 q 495 328 451 347 q 565 274 539 308 q 592 182 592 240 q 563 85 592 128 q 474 19 533 43 q 325 -4 415 -4 m 300 -296 q 246 -287 271 -296 q 197 -258 221 -278 l 213 -237 q 252 -261 229 -253 q 299 -269 275 -269 q 370 -248 342 -269 q 399 -186 399 -226 q 373 -126 399 -150 q 300 -103 347 -103 l 278 -103 l 308 7 l 335 7 l 311 -78 q 395 -110 364 -81 q 426 -186 426 -139 q 390 -266 426 -236 q 300 -296 354 -296 z "},"ŝ":{"ha":643,"x_min":44,"x_max":592,"o":"m 325 -4 q 161 24 238 -4 q 44 94 85 51 l 61 117 q 169 51 100 79 q 325 22 239 22 q 508 67 453 22 q 564 182 564 111 q 538 263 564 233 q 467 309 511 293 q 371 335 424 325 q 265 356 318 344 q 169 387 213 367 q 99 442 125 407 q 72 538 72 478 q 99 628 72 586 q 181 696 125 669 q 326 722 238 722 q 458 702 393 722 q 564 649 524 682 l 547 626 q 446 678 504 661 q 326 696 388 696 q 155 650 208 696 q 101 538 101 604 q 128 453 101 485 q 198 406 154 422 q 294 379 242 389 q 399 358 347 369 q 495 328 451 347 q 565 274 539 308 q 592 182 592 240 q 563 85 592 128 q 474 19 533 43 q 325 -4 415 -4 m 131 843 l 300 996 l 344 996 l 514 843 l 476 843 l 318 976 l 326 976 l 168 843 l 131 843 z "},"ș":{"ha":643,"x_min":44,"x_max":592,"o":"m 325 -4 q 161 24 238 -4 q 44 94 85 51 l 61 117 q 169 51 100 79 q 325 22 239 22 q 508 67 453 22 q 564 182 564 111 q 538 263 564 233 q 467 309 511 293 q 371 335 424 325 q 265 356 318 344 q 169 387 213 367 q 99 442 125 407 q 72 538 72 478 q 99 628 72 586 q 181 696 125 669 q 326 722 238 722 q 458 702 393 722 q 564 649 524 682 l 547 626 q 446 678 504 661 q 326 696 388 696 q 155 650 208 696 q 101 538 101 604 q 128 453 101 485 q 198 406 154 422 q 294 379 242 389 q 399 358 347 369 q 495 328 451 347 q 565 274 539 308 q 592 182 592 240 q 563 85 592 128 q 474 19 533 43 q 325 -4 415 -4 m 293 -360 l 321 -229 l 322 -244 q 297 -233 308 -244 q 286 -208 286 -222 q 297 -183 286 -193 q 322 -172 307 -172 q 349 -184 339 -172 q 358 -208 358 -196 q 356 -231 358 -219 q 350 -253 353 -242 l 318 -360 l 293 -360 z "},"ṡ":{"ha":643,"x_min":44,"x_max":592,"o":"m 325 -4 q 161 24 238 -4 q 44 94 85 51 l 61 117 q 169 51 100 79 q 325 22 239 22 q 508 67 453 22 q 564 182 564 111 q 538 263 564 233 q 467 309 511 293 q 371 335 424 325 q 265 356 318 344 q 169 387 213 367 q 99 442 125 407 q 72 538 72 478 q 99 628 72 586 q 181 696 125 669 q 326 722 238 722 q 458 702 393 722 q 564 649 524 682 l 547 626 q 446 678 504 661 q 326 696 388 696 q 155 650 208 696 q 101 538 101 604 q 128 453 101 485 q 198 406 154 422 q 294 379 242 389 q 399 358 347 369 q 495 328 451 347 q 565 274 539 308 q 592 182 592 240 q 563 85 592 128 q 474 19 533 43 q 325 -4 415 -4 m 322 890 q 297 901 308 890 q 286 926 286 913 q 297 952 286 942 q 322 963 308 963 q 348 952 338 963 q 358 926 358 942 q 348 901 358 913 q 322 890 338 890 z "},"ṣ":{"ha":643,"x_min":44,"x_max":592,"o":"m 325 -4 q 161 24 238 -4 q 44 94 85 51 l 61 117 q 169 51 100 79 q 325 22 239 22 q 508 67 453 22 q 564 182 564 111 q 538 263 564 233 q 467 309 511 293 q 371 335 424 325 q 265 356 318 344 q 169 387 213 367 q 99 442 125 407 q 72 538 72 478 q 99 628 72 586 q 181 696 125 669 q 326 722 238 722 q 458 702 393 722 q 564 649 524 682 l 547 626 q 446 678 504 661 q 326 696 388 696 q 155 650 208 696 q 101 538 101 604 q 128 453 101 485 q 198 406 154 422 q 294 379 242 389 q 399 358 347 369 q 495 328 451 347 q 565 274 539 308 q 592 182 592 240 q 563 85 592 128 q 474 19 533 43 q 325 -4 415 -4 m 322 -244 q 297 -233 308 -244 q 286 -208 286 -222 q 297 -183 286 -193 q 322 -172 308 -172 q 348 -183 338 -172 q 358 -208 358 -193 q 348 -233 358 -222 q 322 -244 338 -244 z "},"ṩ":{"ha":643,"x_min":44,"x_max":592,"o":"m 325 -4 q 161 24 238 -4 q 44 94 85 51 l 61 117 q 169 51 100 79 q 325 22 239 22 q 508 67 453 22 q 564 182 564 111 q 538 263 564 233 q 467 309 511 293 q 371 335 424 325 q 265 356 318 344 q 169 387 213 367 q 99 442 125 407 q 72 538 72 478 q 99 628 72 586 q 181 696 125 669 q 326 722 238 722 q 458 702 393 722 q 564 649 524 682 l 547 626 q 446 678 504 661 q 326 696 388 696 q 155 650 208 696 q 101 538 101 604 q 128 453 101 485 q 198 406 154 422 q 294 379 242 389 q 399 358 347 369 q 495 328 451 347 q 565 274 539 308 q 592 182 592 240 q 563 85 592 128 q 474 19 533 43 q 325 -4 415 -4 m 322 -244 q 297 -233 308 -244 q 286 -208 286 -222 q 297 -183 286 -193 q 322 -172 308 -172 q 348 -183 338 -172 q 358 -208 358 -193 q 348 -233 358 -222 q 322 -244 338 -244 m 322 890 q 297 901 308 890 q 286 926 286 913 q 297 952 286 942 q 322 963 308 963 q 348 952 338 963 q 358 926 358 942 q 348 901 358 913 q 322 890 338 890 z "},"ß":{"ha":906,"x_min":160,"x_max":831,"o":"m 514 -4 q 437 1 475 -4 q 367 17 399 7 l 375 43 q 441 28 407 33 q 514 22 475 22 q 661 51 596 22 q 765 136 726 81 q 803 269 803 192 q 722 451 803 388 q 515 515 642 515 l 432 515 l 432 542 q 647 608 569 542 q 724 789 724 675 q 656 947 724 885 q 467 1008 588 1008 q 265 933 342 1008 q 188 704 188 857 l 188 0 l 160 0 l 160 706 q 199 887 160 814 q 306 997 238 960 q 465 1035 375 1035 q 618 1003 554 1035 q 717 915 682 971 q 751 789 751 860 q 728 678 751 726 q 666 595 706 629 q 577 543 626 561 q 475 525 528 525 l 510 540 q 678 508 606 540 q 790 416 750 476 q 831 269 831 356 q 788 124 831 185 q 674 29 746 63 q 514 -4 603 -4 z "},"ſ":{"ha":379,"x_min":47,"x_max":500,"o":"m 186 0 l 186 858 q 231 986 186 938 q 360 1035 276 1035 q 437 1022 399 1035 q 500 983 475 1010 l 481 964 q 427 997 458 986 q 361 1008 396 1008 q 251 968 289 1008 q 214 851 214 928 l 214 0 l 186 0 m 47 692 l 47 718 l 207 718 l 207 692 l 47 692 z "},"t":{"ha":539,"x_min":32,"x_max":485,"o":"m 344 -4 q 215 44 260 -4 q 171 172 171 93 l 171 875 l 199 875 l 199 179 q 236 63 199 103 q 346 22 274 22 q 465 67 418 22 l 485 47 q 422 8 460 21 q 344 -4 383 -4 m 32 692 l 32 718 l 442 718 l 442 692 l 32 692 z "},"ŧ":{"ha":553,"x_min":39,"x_max":492,"o":"m 351 -4 q 222 44 267 -4 q 178 172 178 93 l 178 875 l 206 875 l 206 179 q 243 63 206 103 q 353 22 281 22 q 472 67 425 22 l 492 47 q 428 8 467 21 q 351 -4 390 -4 m 39 692 l 39 718 l 449 718 l 449 692 l 39 692 m 54 414 l 54 440 l 435 440 l 435 414 l 54 414 z "},"ť":{"ha":539,"x_min":32,"x_max":485,"o":"m 344 -4 q 215 44 260 -4 q 171 172 171 93 l 171 875 l 199 875 l 199 179 q 236 63 199 103 q 346 22 274 22 q 465 67 418 22 l 485 47 q 422 8 460 21 q 344 -4 383 -4 m 32 692 l 32 718 l 442 718 l 442 692 l 32 692 m 344 836 l 344 1058 l 372 1058 l 365 836 l 344 836 z "},"ţ":{"ha":539,"x_min":32,"x_max":485,"o":"m 344 -4 q 215 44 260 -4 q 171 172 171 93 l 171 875 l 199 875 l 199 179 q 236 63 199 103 q 346 22 274 22 q 465 67 418 22 l 485 47 q 422 8 460 21 q 344 -4 383 -4 m 32 692 l 32 718 l 442 718 l 442 692 l 32 692 m 313 -296 q 258 -287 283 -296 q 210 -258 233 -278 l 225 -237 q 265 -261 242 -253 q 311 -269 288 -269 q 383 -248 354 -269 q 411 -186 411 -226 q 385 -126 411 -150 q 313 -103 360 -103 l 290 -103 l 321 7 l 347 7 l 324 -78 q 408 -110 376 -81 q 439 -186 439 -139 q 403 -266 439 -236 q 313 -296 367 -296 z "}}}
